<?xml version="1.0" encoding="utf-8"?>
<!-- Generator: Adobe Illustrator 19.2.0, SVG Export Plug-In . SVG Version: 6.00 Build 0)  -->
<svg version="1.1" id="Layer_1" xmlns="http://www.w3.org/2000/svg" xmlns:xlink="http://www.w3.org/1999/xlink" x="0px" y="0px"
	 viewBox="0 0 512 512" style="enable-background:new 0 0 512 512;" xml:space="preserve">
<style type="text/css">
	.st0{fill:#505CFD;}
	.st1{fill:#000222;}
</style>
<g>
	<g>
		<path class="st0" d="M231.4,71.4c-60.7,0-121.5,0-182.2,0.1c-6.2,0-6.7-14.6-6-19.2c1-6.8,4.4-10.3,9.6-14.2
			c5.9-4.3,7.7-9.8,8.6-16.9c0.7-5.6,2.6-10.6,7.3-13.8c2.5-1.7,5.8-3.1,8.8-3.1c36.3-0.2,72.5-0.1,108.8-0.1
			c8,0,14.9,6.8,16.1,15.6c0.4,2.7,0.8,5.5,1.7,8.1c2.3,7.2,6,9.8,13.6,9.7c62.5,0,125-0.1,187.5-0.1c7,0.9,11.2,5.4,13,12
			c1.2,4.5,3.7,22.1-3.2,22c-17.8-0.1-35.5-0.1-53.3-0.1C318.2,71.5,274.8,71.5,231.4,71.4C231.4,71.4,231.4,71.4,231.4,71.4z"/>
		<path class="st1" d="M414.8,94.3H48.3c-24.3,0-44.2,19.8-44.2,44.2v0.4l13.4,207.6c0.2,24.2,20,43.8,44.2,43.8h169.1
			c-2.2-7.5-4.1-15.3-5.7-23.4c-0.1-0.2-0.1-0.6-0.2-0.8H61.8c-11.1,0-20.1-9-20.1-20.1v-0.4L28.2,138.2
			c0.2-10.9,9.1-19.8,20.1-19.8h366.5c11,0,19.9,8.8,20.1,19.8l-5.4,84.4c7.6,3.9,15.4,6.8,23.5,8.8l6-92.2v-0.8
			C459.1,114.2,439.2,94.3,414.8,94.3z"/>
	</g>
	<path class="st0" d="M377.6,507.9c-4.9,0-9.6-1-13.7-2.9c-36.1-16.8-64.4-40.9-83.9-71.6c-13.3-20.6-22.4-44.1-27.8-71.7
		c-3.1-15.8-4.7-32.3-4.9-50.6v-5.4c-0.1-3.5-0.1-7.3,0-11c0-13.5,7.9-30.1,30.2-31.9c25.5-1.8,47.2-7.8,66.6-18.2
		c4.7-2.5,9.6-5.6,14.3-8.6l2.3-1.5c11.2-7.2,25.5-6.8,36.4,1C415.3,248,434,256,454,259.8c5.3,0.9,11.2,1.6,17.2,2.2
		c2.7,0.3,5.4,0.5,8.2,0.9c19.4,1.7,28.4,17.4,28.4,31.2c-0.6,43.2-8.2,80-23.3,112.6c-18.9,40.8-49.5,73.4-91,97.1
		C389.1,506.4,383.4,507.9,377.6,507.9z M378.3,252.6c-1.6,0-3.3,0.5-4.9,1.6l-2.3,1.5c-5,3.2-10.3,6.6-15.8,9.5
		c-22.3,12-47.2,18.9-75.9,20.9c-4,0.3-8.4,1.3-8.4,8.6c-0.1,3.7-0.1,7.1,0,10.6v5.5c0.2,16.7,1.7,31.9,4.5,46.3
		c4.9,24.6,12.9,45.4,24.5,63.5c17.1,26.9,41.9,48.1,74,63c2.2,1.1,6.4,0.5,7.7-0.2c37.4-21.3,64.7-50.4,81.5-86.6
		c13.7-29.5,20.6-63.2,21.1-102.9c0-2.5-0.9-7-7.2-7.6c-3-0.3-5.5-0.6-8.1-0.8c-6.5-0.7-12.9-1.3-19.1-2.4
		c-23.5-4.4-45.2-13.7-66.3-28.5C381.7,253.2,380,252.6,378.3,252.6z"/>
	<path class="st0" d="M430,340.6l-74.3,59.7c-4,3.2-7.2,4.7-10.5,4.7c-5.2,0-8.9-3.9-11.6-7.2c-5.4-6.7-10.8-13.5-16.1-20.4
		c-5.7-7.3-4.8-14.5,2.5-20.4c3.4-2.7,6.7-4.1,9.9-4.1l1.2,0.1c3.4,0.3,6.5,2.3,9.4,5.8c0.8,1,4.5,6.2,7.2,9.8
		c2.8-2.1,6.2-4.7,6.9-5.3l41.4-33.3c5.2-4.1,10.3-8.3,15.5-12.4c0.6-0.5,1-0.8,1.5-1.1c3.3-2.5,6.3-3.6,9.3-3.6
		c5.3,0,8.9,3.7,11.1,6.5C439.3,327,438.2,334,430,340.6z"/>
</g>
</svg>
