<?xml version="1.0" encoding="UTF-8" standalone="no"?>
<!DOCTYPE svg PUBLIC "-//W3C//DTD SVG 1.1//EN" "http://www.w3.org/Graphics/SVG/1.1/DTD/svg11.dtd">
<svg width="100%" height="100%" viewBox="0 0 596 127" version="1.1" xmlns="http://www.w3.org/2000/svg" xmlns:xlink="http://www.w3.org/1999/xlink" xml:space="preserve" xmlns:serif="http://www.serif.com/" style="fill-rule:evenodd;clip-rule:evenodd;stroke-linejoin:round;stroke-miterlimit:1.41421;">
    <g id="cdr_object">
        <g transform="matrix(1,0,0,1,206.957,75.5397)">
            <path d="M0,-58.015L6.908,-58.015L6.908,-35.828L7.073,-35.828C9.347,-40.869 15.28,-42.98 20.321,-42.98C31.373,-42.98 34.782,-36.642 34.782,-27.636L34.782,-0.003L27.878,-0.003L27.878,-28.447C27.878,-33.555 24.626,-36.886 19.345,-36.886C10.973,-36.886 6.908,-31.278 6.908,-23.733L6.908,-0.003L0,-0.003L0,-58.015ZM77.691,-13.332C75.825,-4.067 69.158,0.973 59.731,0.973C46.325,0.973 39.985,-8.291 39.579,-21.133C39.579,-33.716 47.867,-42.98 59.325,-42.98C74.2,-42.98 78.749,-29.098 78.342,-18.939L46.891,-18.939C46.647,-11.623 50.795,-5.122 59.974,-5.122C65.666,-5.122 69.648,-7.886 70.869,-13.332L77.691,-13.332ZM71.031,-25.035C70.705,-31.602 65.749,-36.886 58.918,-36.886C51.688,-36.886 47.381,-31.441 46.891,-25.035L71.031,-25.035ZM113.856,-28.529C112.798,-33.796 109.145,-36.886 103.456,-36.886C93.46,-36.886 90.37,-29.017 90.37,-20.483C90.37,-12.762 93.864,-5.122 102.642,-5.122C109.302,-5.122 113.286,-9.023 114.182,-15.363L121.251,-15.363C119.705,-5.122 113.286,0.973 102.724,0.973C89.882,0.973 83.054,-7.968 83.054,-20.483C83.054,-33.066 89.556,-42.98 102.886,-42.98C112.392,-42.98 120.033,-38.512 121.01,-28.529L113.856,-28.529ZM127.344,-58.015L134.253,-58.015L134.253,-23.651L153.435,-42.007L162.698,-42.007L146.037,-26.738L163.916,-0.003L155.138,-0.003L140.755,-21.946L134.253,-15.932L134.253,-0.003L127.344,-0.003L127.344,-58.015ZM188.786,-58.015L214.223,-58.015C225.76,-58.015 232.018,-51.596 232.018,-40.869C232.018,-30.148 225.76,-23.651 214.223,-23.733L196.503,-23.733L196.503,-0.003L188.786,-0.003L188.786,-58.015ZM196.503,-30.228L211.618,-30.228C220.317,-30.148 224.3,-33.962 224.3,-40.869C224.3,-47.776 220.317,-51.513 211.618,-51.513L196.503,-51.513L196.503,-30.228ZM253.597,-42.98C266.924,-42.98 273.993,-33.311 273.993,-20.969C273.993,-8.699 266.924,0.973 253.597,0.973C240.27,0.973 233.197,-8.699 233.197,-20.969C233.197,-33.311 240.27,-42.98 253.597,-42.98M253.597,-5.122C260.829,-5.122 266.68,-10.812 266.68,-20.969C266.68,-31.198 260.829,-36.886 253.597,-36.886C246.365,-36.886 240.514,-31.198 240.514,-20.969C240.514,-10.812 246.365,-5.122 253.597,-5.122M287.402,-49.564L280.493,-49.564L280.493,-58.015L287.402,-58.015L287.402,-49.564ZM280.493,-42.007L287.402,-42.007L287.402,-0.003L280.493,-0.003L280.493,-42.007ZM296.097,-42.007L302.599,-42.007L302.599,-35.342L302.762,-35.342C305.686,-40.541 310.397,-42.98 316.414,-42.98C327.466,-42.98 330.875,-36.642 330.875,-27.636L330.875,-0.003L323.972,-0.003L323.972,-28.447C323.972,-33.555 320.719,-36.886 315.437,-36.886C307.069,-36.886 303.006,-31.278 303.006,-23.733L303.006,-0.003L296.097,-0.003L296.097,-42.007ZM348.839,-42.007L357.207,-42.007L357.207,-35.911L348.839,-35.911L348.839,-9.834C348.839,-6.667 349.736,-6.099 354.042,-6.099L357.207,-6.099L357.207,-0.003L351.926,-0.003C344.772,-0.003 341.93,-1.464 341.93,-9.186L341.93,-35.911L334.779,-35.911L334.779,-42.007L341.93,-42.007L341.93,-54.601L348.839,-54.601L348.839,-42.007ZM359.722,-55.091C362.654,-55.091 364.99,-52.706 364.99,-49.728C364.99,-46.701 362.654,-44.342 359.7,-44.342C356.766,-44.342 354.384,-46.701 354.384,-49.728C354.384,-52.706 356.766,-55.091 359.7,-55.091L359.722,-55.091ZM359.7,-54.255C357.338,-54.255 355.409,-52.231 355.409,-49.728C355.409,-47.178 357.338,-45.176 359.722,-45.176C362.106,-45.152 364.014,-47.178 364.014,-49.703C364.014,-52.231 362.106,-54.255 359.722,-54.255L359.7,-54.255ZM358.699,-46.604L357.744,-46.604L357.744,-52.587C358.246,-52.661 358.721,-52.732 359.437,-52.732C360.343,-52.732 360.94,-52.541 361.295,-52.278C361.65,-52.017 361.846,-51.611 361.846,-51.038C361.846,-50.253 361.319,-49.777 360.68,-49.584L360.68,-49.536C361.203,-49.442 361.559,-48.965 361.678,-48.081C361.819,-47.154 361.966,-46.797 362.058,-46.604L361.057,-46.604C360.916,-46.797 360.771,-47.343 360.652,-48.133C360.512,-48.892 360.129,-49.18 359.364,-49.18L358.699,-49.18L358.699,-46.604ZM358.699,-49.919L359.391,-49.919C360.175,-49.919 360.843,-50.204 360.843,-50.943C360.843,-51.468 360.46,-51.992 359.391,-51.992C359.079,-51.992 358.865,-51.968 358.699,-51.943L358.699,-49.919ZM-14.704,-40.541C-16.331,-48.75 -22.914,-52.896 -30.96,-52.896C-44.775,-52.896 -50.627,-41.518 -50.627,-29.422C-50.627,-16.175 -44.775,-5.122 -30.876,-5.122C-20.721,-5.122 -14.868,-12.276 -14.134,-21.864L-6.417,-21.864C-7.88,-7.397 -16.9,1.381 -31.53,1.381C-49.572,1.381 -58.347,-11.95 -58.347,-28.853C-58.347,-45.664 -48.758,-59.396 -30.876,-59.396C-18.769,-59.396 -8.773,-52.896 -6.984,-40.541L-14.704,-40.541Z"/>
        </g>
        <g transform="matrix(1,0,0,1,177.105,107.996)">
            <path d="M0,-19.135C5.805,-19.135 8.749,-14.531 8.749,-9.566C8.749,-4.603 5.805,0 0,0C-5.806,0 -8.748,-4.603 -8.748,-9.566C-8.748,-14.531 -5.806,-19.135 0,-19.135M0,-2.047C4.453,-2.047 6.318,-5.883 6.318,-9.566C6.318,-13.251 4.453,-17.089 0,-17.089C-4.452,-17.089 -6.318,-13.251 -6.318,-9.566C-6.318,-5.883 -4.452,-2.047 0,-2.047M12.686,-18.701L24.686,-18.701L24.686,-16.651L15.119,-16.651L15.119,-10.849L23.508,-10.849L23.508,-8.803L15.119,-8.803L15.119,-0.436L12.686,-0.436L12.686,-18.701ZM32.719,-16.651L26.632,-16.651L26.632,-18.701L41.237,-18.701L41.237,-16.651L35.147,-16.651L35.147,-0.436L32.719,-0.436L32.719,-16.651ZM61.602,-0.436L59.068,-0.436L54.897,-15.781L54.846,-15.781L50.624,-0.436L48.093,-0.436L43.412,-18.701L45.895,-18.701L49.473,-3.503L49.526,-3.503L53.62,-18.701L56.255,-18.701L60.297,-3.503L60.346,-3.503L64.059,-18.701L66.486,-18.701L61.602,-0.436ZM73.185,-18.701L75.871,-18.701L83.006,-0.436L80.32,-0.436L78.325,-5.935L70.6,-5.935L68.553,-0.436L66.048,-0.436L73.185,-18.701ZM71.366,-7.983L77.56,-7.983L74.514,-16.499L74.465,-16.499L71.366,-7.983ZM85.771,-18.701L94.365,-18.701C97.791,-18.701 99.918,-16.835 99.918,-13.915C99.918,-11.714 98.943,-9.9 96.746,-9.287L96.746,-9.232C98.87,-8.826 99.303,-7.263 99.48,-5.474C99.633,-3.683 99.53,-1.69 100.558,-0.436L97.847,-0.436C97.154,-1.177 97.538,-3.145 97.18,-4.937C96.92,-6.728 96.488,-8.24 94.135,-8.24L88.199,-8.24L88.199,-0.436L85.771,-0.436L85.771,-18.701ZM93.265,-10.283C95.543,-10.283 97.485,-10.874 97.485,-13.531C97.485,-15.323 96.514,-16.651 94.24,-16.651L88.199,-16.651L88.199,-10.283L93.265,-10.283ZM104.265,-18.701L116.876,-18.701L116.876,-16.651L106.698,-16.651L106.698,-10.849L116.187,-10.849L116.187,-8.803L106.698,-8.803L106.698,-2.482L116.958,-2.482L116.958,-0.436L104.265,-0.436L104.265,-18.701ZM133.098,-16.651L127.008,-16.651L127.008,-18.701L141.616,-18.701L141.616,-16.651L135.526,-16.651L135.526,-0.436L133.098,-0.436L133.098,-16.651ZM144.608,-18.701L157.219,-18.701L157.219,-16.651L147.039,-16.651L147.039,-10.849L156.53,-10.849L156.53,-8.803L147.039,-8.803L147.039,-2.482L157.295,-2.482L157.295,-0.436L144.608,-0.436L144.608,-18.701ZM174.051,-13.2C173.539,-15.781 171.469,-17.089 168.938,-17.089C164.586,-17.089 162.745,-13.506 162.745,-9.693C162.745,-5.527 164.586,-2.047 168.959,-2.047C172.158,-2.047 174.002,-4.297 174.233,-7.316L176.661,-7.316C176.203,-2.761 173.362,0 168.756,0C163.079,0 160.312,-4.195 160.312,-9.516C160.312,-14.811 163.333,-19.135 168.959,-19.135C172.771,-19.135 175.92,-17.089 176.479,-13.2L174.051,-13.2ZM180.649,-18.701L183.079,-18.701L183.079,-10.849L192.701,-10.849L192.701,-18.701L195.134,-18.701L195.134,-0.436L192.701,-0.436L192.701,-8.803L183.079,-8.803L183.079,-0.436L180.649,-0.436L180.649,-18.701ZM200.069,-18.701L202.651,-18.701L212.273,-3.889L212.325,-3.889L212.325,-18.701L214.625,-18.701L214.625,-0.436L211.963,-0.436L202.42,-15.093L202.375,-15.093L202.375,-0.436L200.069,-0.436L200.069,-18.701ZM227.263,-19.135C233.066,-19.135 236.011,-14.531 236.011,-9.566C236.011,-4.603 233.066,0 227.263,0C221.458,0 218.512,-4.603 218.512,-9.566C218.512,-14.531 221.458,-19.135 227.263,-19.135M227.263,-2.047C231.714,-2.047 233.581,-5.883 233.581,-9.566C233.581,-13.251 231.714,-17.089 227.263,-17.089C222.812,-17.089 220.943,-13.251 220.943,-9.566C220.943,-5.883 222.812,-2.047 227.263,-2.047M239.719,-18.701L242.15,-18.701L242.15,-2.482L251.818,-2.482L251.818,-0.436L239.719,-0.436L239.719,-18.701ZM262.18,-19.135C267.986,-19.135 270.926,-14.531 270.926,-9.566C270.926,-4.603 267.986,0 262.18,0C256.373,0 253.432,-4.603 253.432,-9.566C253.432,-14.531 256.373,-19.135 262.18,-19.135M262.18,-2.047C266.632,-2.047 268.499,-5.883 268.499,-9.566C268.499,-13.251 266.632,-17.089 262.18,-17.089C257.729,-17.089 255.857,-13.251 255.857,-9.566C255.857,-5.883 257.729,-2.047 262.18,-2.047M288.529,-2.715C287.124,-0.794 284.821,0 282.672,0C277.219,0 273.975,-4.453 273.975,-9.21C273.975,-14.531 276.888,-19.135 282.672,-19.135C286.663,-19.135 289.831,-17.343 290.523,-13.072L288.095,-13.072C287.607,-15.834 285.382,-17.089 282.672,-17.089C278.243,-17.089 276.403,-13.251 276.403,-9.338C276.403,-5.527 278.606,-2.047 282.672,-2.047C286.435,-2.047 288.683,-4.682 288.529,-8.008L282.697,-8.008L282.697,-10.055L290.702,-10.055L290.702,-0.436L289.169,-0.436L288.529,-2.715ZM295.362,-18.701L297.793,-18.701L297.793,-0.435L295.362,-0.435L295.362,-18.701ZM302.854,-18.701L315.462,-18.701L315.462,-16.651L305.288,-16.651L305.288,-10.849L314.771,-10.849L314.771,-8.803L305.288,-8.803L305.288,-2.482L315.542,-2.482L315.542,-0.436L302.854,-0.436L302.854,-18.701ZM330.022,-13.357C329.737,-15.963 328.003,-17.089 325.492,-17.089C323.446,-17.089 321.401,-16.347 321.401,-13.967C321.401,-11.714 324.317,-11.38 327.257,-10.72C330.176,-10.055 333.092,-9.032 333.092,-5.447C333.092,-1.558 329.281,0 325.953,0C321.862,0 318.409,-1.994 318.409,-6.446L320.711,-6.446C320.711,-3.375 323.27,-2.047 326.032,-2.047C328.234,-2.047 330.66,-2.737 330.66,-5.371C330.66,-7.878 327.744,-8.31 324.827,-8.951C321.917,-9.594 318.973,-10.437 318.973,-13.789C318.973,-17.501 322.272,-19.135 325.592,-19.135C329.33,-19.135 332.167,-17.371 332.328,-13.357L330.022,-13.357ZM344.301,-18.701L346.732,-18.701L346.732,-2.482L356.4,-2.482L356.4,-0.436L344.301,-0.436L344.301,-18.701ZM361.619,-16.651L355.529,-16.651L355.529,-18.701L370.137,-18.701L370.137,-16.651L364.049,-16.651L364.049,-0.436L361.619,-0.436L361.619,-16.651ZM373.131,-18.701L379.398,-18.701C385.024,-18.701 388.167,-15.886 388.167,-10.002C388.167,-3.889 385.482,-0.436 379.398,-0.436L373.131,-0.436L373.131,-18.701ZM375.559,-2.482L379.604,-2.482C381.264,-2.482 385.743,-2.944 385.743,-9.667C385.743,-14.02 384.128,-16.651 379.653,-16.651L375.559,-16.651L375.559,-2.482ZM390.194,-0.436L393.029,-0.436L393.029,-3.272L390.194,-3.272L390.194,-0.436ZM-14.71,-13.357C-14.99,-15.963 -16.728,-17.089 -19.236,-17.089C-21.284,-17.089 -23.331,-16.347 -23.331,-13.967C-23.331,-11.714 -20.416,-11.38 -17.472,-10.72C-14.556,-10.055 -11.641,-9.032 -11.641,-5.447C-11.641,-1.558 -15.45,0 -18.775,0C-22.871,0 -26.324,-1.994 -26.324,-6.446L-24.022,-6.446C-24.022,-3.375 -21.465,-2.047 -18.7,-2.047C-16.5,-2.047 -14.071,-2.737 -14.071,-5.371C-14.071,-7.878 -16.985,-8.31 -19.903,-8.951C-22.818,-9.594 -25.762,-10.437 -25.762,-13.789C-25.762,-17.501 -22.46,-19.135 -19.135,-19.135C-15.4,-19.135 -12.56,-17.371 -12.404,-13.357L-14.71,-13.357Z"/>
        </g>
        <g transform="matrix(-1,-0,-0,1,148.541,-1.917)">
            <rect x="21.947" y="18.036" width="104.647" height="91.9" style="fill:rgb(231,145,151);"/>
        </g>
        <g transform="matrix(1,0,0,1,89.9053,21.9156)">
            <path d="M0,50.74C-2.163,51.036 -6.4,51.462 -8.444,51.672C-10.307,51.862 -12.314,51.954 -14.407,52.075C-16.278,52.183 -18.217,52.093 -20.193,52.107C-22.164,52.121 -24.181,52.118 -26.175,51.88C-30.256,51.388 -31.102,50.816 -32.2,50.683C-34.462,50.404 -36.18,49.99 -38.091,49.579C-39.655,49.239 -41.268,48.882 -42.23,48.848C-42.336,48.742 -42.682,48.068 -42.743,47.925C-43.775,45.479 -43.758,45.777 -44.811,42.241C-45.33,40.499 -46.014,36.881 -46.373,34.554C-46.66,32.68 -47.044,32.136 -47.179,31.69C-47.719,29.886 -47.533,28.812 -47.626,26.853C-47.719,24.902 -47.812,20.124 -47.719,18.151C-47.571,15.032 -47.377,14.641 -46.933,12.737C-46.483,10.822 -45.522,8.851 -44.699,7.087C-43.983,5.557 -43.609,4.157 -42.561,2.797C-41.359,1.236 -41.066,0.539 -40.462,-0.031C-40.413,-0.08 -39.958,-0.192 -39.892,-0.199C-38.416,-0.683 -37.071,-0.837 -36.298,-1.073C-36.121,-1.092 -35.348,-1.008 -35.165,-1.008C-34.833,-1.008 -32.704,-0.941 -29.535,-0.861C-27.879,-0.819 -25.945,-0.666 -23.832,-0.621C-21.94,-0.579 -19.906,-0.558 -17.808,-0.522C-15.894,-0.49 -13.925,-0.577 -11.965,-0.554C-10.157,-0.533 -8.357,-0.386 -6.606,-0.379C-4.719,-0.37 -2.89,-0.446 -1.182,-0.46C0.745,-0.477 2.515,-0.555 4.057,-0.61C6.403,-0.691 8.225,-0.686 9.19,-0.878C11.046,-1.248 12.438,-1.443 13.667,-1.443C13.995,-1.356 14.132,-1.237 14.411,-1.109C15.45,-0.633 16.891,0.437 16.891,0.437C16.891,1.11 16.647,5.559 16.968,8.649C17.153,10.421 17.464,12.423 17.736,14.482C17.993,16.424 18.115,17.975 18.389,19.852C18.664,21.749 19.343,24.445 19.577,25.959C20,28.713 20.117,27.228 20.504,29.531C21.003,32.507 20.721,32.198 21.056,35.629C21.242,37.573 20.919,41.707 20.607,43.688C20.286,45.711 19.442,47.269 18.788,47.549C17.425,48.131 13.011,48.753 13.89,48.612C11.652,48.971 11.832,48.702 10.487,48.971C6.979,49.672 6.226,49.516 3.849,49.743C1.622,49.955 3.324,50.134 0.728,50.492C0.533,50.52 0.265,50.704 0,50.74" style="fill:rgb(63,58,134);"/>
        </g>
        <g transform="matrix(1,0,0,1,53.1831,68.0408)">
            <path d="M0,-42.934C0.775,-44.649 1.453,-44.524 3.085,-44.638C4.032,-44.705 5.205,-44.441 6.757,-44.205C7.789,-44.049 7.798,-44.356 9.154,-43.986C10.169,-43.707 10.36,-43.775 11.929,-43.537C13.159,-43.351 16.892,-42.533 18.342,-42.381C19.65,-42.244 21.028,-41.555 22.435,-41.451C23.769,-41.35 25.136,-41.236 26.491,-41.168C27.853,-41.1 29.214,-41.06 30.531,-41.032C31.938,-41 33.306,-41.283 34.584,-41.3C36.001,-41.318 37.304,-41.57 38.458,-41.654C40.046,-41.769 41.34,-42.009 42.188,-42.264C43.795,-42.752 45.119,-42.671 46.249,-42.474C47.722,-42.215 48.699,-41.604 49.267,-40.339C49.724,-39.324 49.449,-38.344 49.715,-36.52C49.845,-35.648 49.435,-34.193 49.414,-32.409C49.401,-31.202 49.464,-29.834 49.478,-28.386C49.49,-27.071 49.69,-25.686 49.719,-24.282C49.747,-22.92 49.732,-21.542 49.771,-20.193C49.808,-18.773 49.882,-17.386 49.925,-16.094C49.971,-14.644 50.003,-13.306 50.044,-12.167C50.13,-9.829 50.476,-10.412 50.254,-8.258C50.053,-6.294 50.689,-5.928 48.822,-4.463C48.061,-3.867 46.899,-3.127 45.232,-2.967C44.732,-2.921 43.441,-2.515 41.522,-2.039C40.464,-1.778 39.211,-1.499 37.809,-1.185C36.675,-0.928 35.377,-0.746 34.057,-0.489C32.874,-0.258 31.636,-0.127 30.328,0.085C29.143,0.276 27.856,0.322 26.586,0.483C25.393,0.635 24.138,0.516 22.883,0.625C21.728,0.725 20.553,0.834 19.36,0.887C18.389,0.932 19.381,1.205 18.856,1.378C17.661,1.771 17.34,1.629 15.062,1.591C13.921,1.573 12.796,1.581 11.392,1.503C10.181,1.434 8.828,1.326 7.565,1.185C6.297,1.045 5.075,0.666 3.892,0.432C2.546,0.166 1.194,0.181 0.147,-0.236C-1.193,-0.771 -2.276,-1.321 -2.754,-2.169C-3.138,-2.846 -3.233,-4.454 -3.38,-6.184C-3.474,-7.298 -3.399,-8.592 -3.411,-10.012C-3.42,-11.188 -3.636,-12.455 -3.6,-13.779C-3.566,-15.015 -3.581,-16.308 -3.512,-17.622C-3.45,-18.859 -3.392,-20.124 -3.303,-21.392C-3.215,-22.652 -2.858,-23.897 -2.75,-25.147C-2.642,-26.409 -2.405,-27.642 -2.285,-28.856C-2.157,-30.103 -2.189,-31.33 -2.054,-32.482C-1.901,-33.768 -1.583,-34.961 -1.426,-36.082C-1.233,-37.468 -1.368,-38.756 -1.182,-39.785C-0.848,-41.615 -0.25,-42.705 0,-42.934" style="fill:white;"/>
        </g>
        <g transform="matrix(1,0,0,1,117.271,83.0962)">
            <path d="M0,13.534C-0.805,13.803 -3.781,14.535 -6.31,14.472C-7.653,14.441 -9.601,14.643 -12.009,14.745C-13.715,14.817 -15.495,14.512 -17.607,14.633C-19.331,14.73 -21.179,14.707 -23.109,14.836C-25.025,14.965 -27.025,15.201 -29.089,15.355C-30.955,15.501 -32.02,15.28 -33.961,15.445C-35.924,15.613 -37.454,14.978 -39.452,15.167C-41.263,15.34 -44.395,15.376 -46.203,15.564C-48.057,15.759 -50.183,16.494 -51.999,16.708C-53.875,16.925 -55.414,16.787 -57.217,17.025C-59.099,17.275 -61.241,17.887 -62.999,18.155C-64.859,18.438 -66.634,18.741 -68.306,19.046C-70.106,19.373 -71.815,19.558 -73.338,19.91C-74.74,20.231 -75.974,20.718 -77.089,21.057C-79.741,21.867 -81.807,22.342 -83.417,22.57C-86.864,23.055 -88.408,22.35 -89.354,20.956C-90.196,19.721 -90.491,17.723 -90.722,15.996C-91,13.904 -90.912,14.865 -91.274,12.938C-91.806,10.102 -92.272,8.295 -90.571,6.504C-89.681,5.567 -88.103,4.477 -86.282,3.652C-83.663,2.247 -84.697,2.442 -80.985,0.946C-79.511,0.354 -77.702,-0.284 -75.559,-0.983C-73.896,-1.526 -71.964,-1.882 -69.871,-2.447C-68.146,-2.915 -66.274,-3.378 -64.24,-3.842C-62.442,-4.25 -60.557,-4.815 -58.51,-5.208C-56.696,-5.554 -54.783,-5.892 -52.766,-6.216C-50.827,-6.528 -48.784,-6.753 -46.655,-7.033C-44.761,-7.281 -42.787,-7.459 -40.738,-7.679C-38.921,-7.873 -37.059,-8.222 -35.119,-8.39C-33.232,-8.553 -30.615,-8.362 -28.609,-8.495C-26.834,-8.611 -25.677,-8.97 -23.805,-9.061C-21.979,-9.151 -20.107,-9.185 -18.188,-9.247C-16.313,-9.305 -14.396,-9.356 -12.433,-9.385C-10.794,-9.412 -9.128,-9.505 -7.428,-9.512C-4.671,-9.521 -1.982,-9.362 -0.586,-8.463C1.5,-7.127 1.265,-6.336 1.349,-3.709C1.447,-0.745 1.169,-2.176 1.65,0.752C2.164,3.909 2.23,6.673 2.442,9.422C2.552,10.846 1.602,12.084 0,13.534" style="fill:rgb(63,58,134);"/>
        </g>
        <g transform="matrix(1,0,0,1,76.4858,44.606)">
            <path d="M0,1.739L3.066,3.464L2.064,0.566L0,1.739ZM10.964,-5.369L1.821,-2.361L1.645,-2.345L-10.542,-4.184L-0.779,1.302L1.809,-0.167L1.587,-0.807L2.31,-1.056L2.485,-0.551L10.964,-5.369ZM-10.996,-10.696L-14.143,-10.696L-14.143,-7.556L-10.996,-7.556L-10.996,-10.696ZM-17.55,12.529L-19.153,15.668L-19.5,16.351L-19.843,16.177L-23.329,14.403L-23.672,14.228L-23.497,13.886L-21.721,10.405L-21.545,10.064L-21.205,10.238L-19.876,10.912L-19.41,10.067L-18.737,10.436L-19.193,11.262L-17.717,12.013L-17.375,12.187L-17.55,12.529ZM-19.834,15.32L-18.406,12.523L-21.211,11.094L-22.639,13.893L-19.834,15.32ZM-1.474,6.694L-1.474,10.985L-1.857,10.985L-5.772,10.985L-6.155,10.985L-6.155,10.601L-6.155,6.694L-6.155,6.309L-4.232,6.309L-4.229,5.579L-3.463,5.582L-3.468,6.309L-1.474,6.309L-1.474,6.694ZM-2.241,7.077L-5.387,7.077L-5.387,10.218L-2.241,10.218L-2.241,7.077ZM7.171,7.725L7.171,12.016L6.788,12.016L2.873,12.016L2.489,12.016L2.489,11.633L2.489,7.725L2.489,7.343L4.289,7.343L4.289,6.6L5.053,6.6L5.053,7.343L7.171,7.343L7.171,7.725ZM6.404,8.109L3.257,8.109L3.257,11.249L6.404,11.249L6.404,8.109ZM24.735,3.68L24.735,7.971L24.352,7.971L20.436,7.971L20.053,7.971L20.053,7.59L20.053,3.68L20.053,3.298L21.832,3.298L21.871,1.986L22.637,2.007L22.597,3.298L24.735,3.298L24.735,3.68ZM23.967,4.065L20.821,4.065L20.821,7.204L23.967,7.204L23.967,4.065ZM-12.231,-5.214L1.668,-3.119L14.342,-7.288L16.253,-8.373L16.342,-8.663L16.435,-8.635L16.435,-9.938L14.889,-9.938L14.507,-9.938L14.507,-10.32L14.507,-14.228L14.507,-14.612L19.186,-14.612L19.186,-9.939L18.804,-9.939L17.203,-9.939L17.203,-8.033L17.008,-7.923L16.895,-7.858L16.878,-7.805L22.688,-0.739L23.101,-0.239L22.464,-0.118L14.417,1.397L14.275,0.645L21.687,-0.752L16.608,-6.929L14.713,-0.782L13.98,-1.007L15.818,-6.967L14.647,-6.581L2.739,0.183C3.282,1.748 3.823,3.311 4.365,4.875L13.599,0.189L13.943,0.873L4.321,5.759L3.931,5.956L3.786,5.541L3.543,4.836L-3.058,4.333L-3.001,3.566L2.425,3.981L-0.779,2.183L-3.331,3.632L-3.398,3.661L-18.406,8.71L-19.215,8.982L-18.88,8.197L-13.66,-4.013L-12.956,-3.713L-17.839,7.712L-3.678,2.948L-1.559,1.745L-12.803,-4.574L-13,-4.684L-13,-4.909L-13,-6.788L-14.526,-6.788L-14.911,-6.788L-14.911,-7.173L-14.911,-11.079L-14.911,-11.463L-10.228,-11.463L-10.228,-6.788L-10.611,-6.788L-12.231,-6.788L-12.231,-5.214ZM18.422,-10.703L18.422,-13.844L15.272,-13.844L15.272,-10.705L16.82,-10.705L16.82,-10.703L18.422,-10.703Z" style="fill:rgb(63,58,134);"/>
        </g>
        <g transform="matrix(1,0,0,1,93.1455,35.7401)">
            <path d="M0,3.646C1.008,3.646 1.827,2.833 1.827,1.826C1.827,0.82 1.008,0 0,0C-1.007,0 -1.826,0.82 -1.826,1.826C-1.826,2.833 -1.007,3.646 0,3.646" style="fill:rgb(223,63,84);"/>
        </g>
        <g transform="matrix(1,0,0,1,72.7563,46.5559)">
            <path d="M0,3.837C1.062,3.837 1.923,2.977 1.923,1.919C1.923,0.859 1.062,0 0,0C-1.062,0 -1.923,0.859 -1.923,1.919C-1.923,2.977 -1.062,3.837 0,3.837" style="fill:rgb(223,63,84);"/>
        </g>
        <g transform="matrix(1,0,0,1,78.3887,40.5761)">
            <path d="M0,3.643C1.007,3.643 1.825,2.829 1.825,1.823C1.825,0.815 1.007,0 0,0C-1.008,0 -1.826,0.815 -1.826,1.823C-1.826,2.829 -1.008,3.643 0,3.643" style="fill:rgb(223,63,84);"/>
        </g>
        <g transform="matrix(1,0,0,1,58.1611,51.6474)">
            <path d="M0,3.643C1.01,3.643 1.826,2.827 1.826,1.822C1.826,0.814 1.01,0 0,0C-1.007,0 -1.825,0.814 -1.825,1.822C-1.825,2.827 -1.007,3.643 0,3.643" style="fill:rgb(229,136,157);"/>
        </g>
        <g transform="matrix(1,0,0,1,90.7856,43.3973)">
            <path d="M0,3.644C1.007,3.644 1.826,2.829 1.826,1.824C1.826,0.816 1.007,0 0,0C-1.009,0 -1.826,0.816 -1.826,1.824C-1.826,2.829 -1.009,3.644 0,3.644" style="fill:rgb(230,135,156);"/>
        </g>
        <g transform="matrix(1,0,0,1,63.8052,38.4578)">
            <path d="M0,3.646C1.007,3.646 1.825,2.833 1.825,1.824C1.825,0.82 1.007,0 0,0C-1.008,0 -1.826,0.82 -1.826,1.824C-1.826,2.833 -1.008,3.646 0,3.646" style="fill:rgb(240,229,37);"/>
        </g>
        <g transform="matrix(1,0,0,1,98.5181,43.2313)">
            <path d="M0,3.646C1.006,3.646 1.825,2.831 1.825,1.825C1.825,0.818 1.006,0 0,0C-1.008,0 -1.826,0.818 -1.826,1.825C-1.826,2.831 -1.008,3.646 0,3.646" style="fill:rgb(240,229,37);"/>
        </g>
        <g transform="matrix(1,0,0,1,81.2275,47.7909)">
            <path d="M0,3.645C1.007,3.645 1.826,2.83 1.826,1.822C1.826,0.816 1.007,0 0,0C-1.008,0 -1.826,0.816 -1.826,1.822C-1.826,2.83 -1.008,3.645 0,3.645" style="fill:rgb(240,229,37);"/>
        </g>
        <g transform="matrix(1,0,0,1,41.2832,87.985)">
            <path d="M0,3.86C0.989,3.86 1.78,3.107 1.78,2.018C1.78,0.93 0.989,0 0,0C-0.989,0 -1.652,0.93 -1.652,2.018C-1.652,3.107 -0.989,3.86 0,3.86" style="fill:white;"/>
        </g>
        <g transform="matrix(1,0,0,1,51.9692,94.2622)">
            <path d="M0,2.908C0.978,3.057 1.826,2.052 1.826,1.066C1.826,0.079 0.987,-0.566 0,-0.566C-0.989,-0.566 -1.736,0.079 -1.753,1.066C-1.788,3.474 -0.478,2.838 0,2.908" style="fill:white;"/>
        </g>
        <g transform="matrix(1,0,0,1,45.9316,94.7777)">
            <path d="M0,3.666C0.989,3.666 1.846,2.75 1.846,1.763C1.846,0.777 0.989,0 0,0C-0.989,0 -1.655,0.777 -1.655,1.763C-1.655,2.75 -0.989,3.666 0,3.666" style="fill:white;"/>
        </g>
        <g transform="matrix(1,0,0,1,69.4082,87.3102)">
            <path d="M0,3.528C0.989,3.528 1.857,2.619 1.857,1.631C1.857,0.645 0.989,0 0,0C-0.989,0 -2.194,0.395 -1.762,1.684C-1.45,2.621 -0.989,3.528 0,3.528" style="fill:white;"/>
        </g>
        <g transform="matrix(1,0,0,1,59.2441,89.7036)">
            <path d="M0,3.285C0.849,3.285 1.646,2.594 1.646,1.605C1.646,0.618 0.849,0 0,0C-0.846,0 -1.503,0.618 -1.503,1.605C-1.503,2.594 -0.846,3.285 0,3.285" style="fill:white;"/>
        </g>
        <g transform="matrix(1,0,0,1,54.457,88.2366)">
            <path d="M0,3.419C0.965,3.633 1.722,2.586 1.722,1.597C1.722,0.612 0.99,-0.214 0,-0.214C-0.988,-0.214 -1.764,0.612 -1.764,1.597C-1.764,2.586 -1.791,3.022 0,3.419" style="fill:white;"/>
        </g>
        <g transform="matrix(1,0,0,1,65.083,82.2668)">
            <path d="M0,2.963C0.989,2.963 1.756,2.707 1.756,1.72C1.756,0.731 0.818,0 -0.169,0C-1.158,0 -2.037,0.731 -2.037,1.72C-2.037,2.707 -0.989,2.963 0,2.963" style="fill:white;"/>
        </g>
        <g transform="matrix(1,0,0,1,70.1318,79.1577)">
            <path d="M0,3.453C0.989,3.453 1.876,2.678 1.876,1.691C1.876,0.704 0.989,0 0,0C-0.989,0 -1.86,0.704 -1.86,1.691C-1.86,2.678 -0.989,3.453 0,3.453" style="fill:white;"/>
        </g>
        <g transform="matrix(1,0,0,1,39.769,95.766)">
            <path d="M0,2.789C0.715,2.789 1.288,2.245 1.288,1.457C1.288,0.672 0.715,0 0,0C-0.713,0 -1.193,0.672 -1.193,1.457C-1.193,2.245 -0.713,2.789 0,2.789" style="fill:rgb(240,229,37);"/>
        </g>
        <g transform="matrix(1,0,0,1,55.166,81.7702)">
            <path d="M0,2.65C0.714,2.65 1.335,1.988 1.335,1.276C1.335,0.564 0.714,0 0,0C-0.715,0 -1.195,0.564 -1.195,1.276C-1.195,1.988 -0.715,2.65 0,2.65" style="fill:rgb(240,229,37);"/>
        </g>
        <g transform="matrix(1,0,0,1,49.1123,88.4208)">
            <path d="M0,2.143C0.715,2.143 1.27,1.958 1.27,1.246C1.27,0.532 0.593,0 -0.122,0C-0.836,0 -1.471,0.532 -1.471,1.246C-1.471,1.958 -0.713,2.143 0,2.143" style="fill:rgb(240,229,37);"/>
        </g>
        <g transform="matrix(1,0,0,1,64.8511,91.2114)">
            <path d="M0,2.495C0.714,2.495 1.355,1.935 1.355,1.223C1.355,0.511 0.714,0 0,0C-0.715,0 -1.344,0.511 -1.344,1.223C-1.344,1.935 -0.715,2.495 0,2.495" style="fill:rgb(240,229,37);"/>
        </g>
        <g transform="matrix(1,0,0,1,90.4077,89.236)">
            <path d="M0,5.11C1.375,5.11 2.53,3.916 2.53,2.544C2.53,1.172 1.321,0 -0.052,0C-1.426,0 -2.35,1.186 -2.35,2.557C-2.35,3.93 -1.372,5.11 0,5.11" style="fill:rgb(240,229,37);"/>
        </g>
        <g transform="matrix(1,0,0,1,87.439,80.7358)">
            <path d="M0,5.037C1.373,5.037 2.628,3.819 2.628,2.448C2.628,1.078 1.373,0 0,0C-1.374,0 -2.404,1.078 -2.404,2.448C-2.404,3.819 -1.374,5.037 0,5.037" style="fill:rgb(240,229,37);"/>
        </g>
        <g transform="matrix(1,0,0,1,102.143,81.7479)">
            <path d="M0,4.688C1.373,4.688 2.446,3.675 2.446,2.305C2.446,0.934 1.373,0 0,0C-1.374,0 -2.275,0.934 -2.275,2.305C-2.275,3.675 -1.374,4.688 0,4.688" style="fill:rgb(240,229,37);"/>
        </g>
        <g transform="matrix(1,0,0,1,96.9219,86.3617)">
            <path d="M0,4.912C1.374,4.912 2.483,3.62 2.483,2.249C2.483,0.88 1.374,0 0,0C-1.374,0 -2.719,0.88 -2.719,2.249C-2.719,3.62 -1.374,4.912 0,4.912" style="fill:rgb(240,229,37);"/>
        </g>
    </g>
</svg>
