<?xml version="1.0" encoding="UTF-8" standalone="no"?>
<svg
   xmlns:dc="http://purl.org/dc/elements/1.1/"
   xmlns:cc="http://creativecommons.org/ns#"
   xmlns:rdf="http://www.w3.org/1999/02/22-rdf-syntax-ns#"
   xmlns:svg="http://www.w3.org/2000/svg"
   xmlns="http://www.w3.org/2000/svg"
   version="1.1"
   width="202"
   height="59">
  <path
     d="m 61.4822,25.1624 19.65,0 0,3.269 -15.884,0 0,7.497 15.138,0 0,3.27 -15.138,0 0,11.335 -3.766,0 0,-25.371 z"
     id="F"
     style="fill:#dd1731" />
  <path
     d="m 85.0048,31.9138 3.553,0 0,18.62 -3.553,0 0,-18.62 z m 0,-6.965 3.553,0 0,3.909 -3.553,0 0,-3.909 z"
     id="i"
     style="fill:#dd1731" />
  <path
     d="m 94.6006,31.914 3.553,0 0,3.411 0.071,0 c 1.67,-2.95 4.051,-4.051 6.396,-4.051 0.889,0 1.351,0.036 2.026,0.213 l 0,3.838 c -0.889,-0.213 -1.564,-0.355 -2.523,-0.355 -3.518,0 -5.97,2.061 -5.97,6.112 l 0,9.452 -3.553,0 0,-18.62 z"
     id="r"
     style="fill:#dd1731" />
  <path
     d="m 124.9079,39.518 c -0.533,-3.376 -3.162,-5.259 -6.503,-5.259 -3.268,0 -6.218,1.919 -6.751,5.259 l 13.254,0 z m -13.361,2.772 c 0.285,3.837 3.696,5.898 6.858,5.898 2.026,0 4.798,-0.675 6.006,-3.305 l 3.766,0 c -1.776,4.478 -5.934,6.29 -9.594,6.29 -7.249,0 -10.802,-4.584 -10.802,-9.949 0,-5.366 3.553,-9.95 10.802,-9.95 4.904,0 10.091,2.843 10.091,10.554 l 0,0.462 -17.127,0 z"
     id="e1"
     style="fill:#dd1731" />
  <path
     d="m 133.0443,25.1624 20.397,0 0,3.269 -16.63,0 0,7.356 16.132,0 0,3.269 -16.132,0 0,8.208 16.985,0 0,3.269 -20.752,0 0,-25.371 z"
     id="E"
     style="fill:#090e14" />
  <path
     d="m 172.3417,31.914 3.98,0 -9.737,21.817 c -1.777,3.944 -3.162,4.619 -6.466,4.619 -0.889,0 -1.777,-0.071 -2.701,-0.142 l 0,-2.984 c 0.64,0.035 1.208,0.142 2.062,0.142 2.202,0 2.735,-0.463 3.873,-2.843 l 0.817,-1.706 -8.6,-18.903 4.087,0 6.396,14.71 6.289,-14.71 z"
     id="y"
     style="fill:#090e14" />
  <path
     d="m 194.1564,39.518 c -0.533,-3.376 -3.163,-5.259 -6.502,-5.259 -3.27,0 -6.219,1.919 -6.752,5.259 l 13.254,0 z m -13.361,2.772 c 0.285,3.837 3.696,5.898 6.859,5.898 2.024,0 4.796,-0.675 6.005,-3.305 l 3.766,0 c -1.777,4.478 -5.934,6.29 -9.594,6.29 -7.248,0 -10.803,-4.584 -10.803,-9.949 0,-5.366 3.555,-9.95 10.803,-9.95 4.904,0 10.091,2.843 10.091,10.554 l 0,0.462 -17.127,0 z"
     id="e2"
     style="fill:#090e14" />
  <path
     d="m 32.4218,0.4388 c 1.273,4.551 5.654,6.746 3.677,12.135 -1.055,2.878 -4.706,5.673 -2.206,9.562 -0.696,0.357 -1.502,-1.218 -1.655,-2.023 -0.654,-3.445 2.223,-7.769 2.206,-11.4 -0.015,-3.378 -2.439,-4.917 -2.022,-8.274"
     id="flame3"
     style="fill:#dd1731" />
  <path
     d="m 40.328,31.5103 c -2.601,-2.056 -8.339,-2.189 -10.848,0 -5.731,4.999 -0.622,15.434 9.193,13.239 -7.981,4.751 -19.234,-2.125 -15.997,-12.872 -5.612,1.621 -10.919,3.546 -15.629,6.068 5.728,7.144 14.487,11.255 26.294,12.32 -15.225,1.127 -22.95,-6.837 -32.361,-12.136 7.994,-4.08 17.902,-12.343 30.338,-11.4 3.612,0.274 7.771,1.67 9.01,4.781"
     id="eye"
     style="fill:#090e14" />
  <path
     d="m 38.4265,19.6216 c -0.758,0.958 -1.512,1.921 -2.758,2.39 1.592,-1.902 0.246,-8.333 3.493,-9.193 -0.536,6.469 4.678,8.668 8.274,12.503 2.922,3.115 6.057,6.704 5.333,13.422 -0.765,7.097 -8.042,9.962 -14.155,11.247 4.944,-2.253 10.949,-4.036 11.765,-9.959 1.415,-10.282 -8.206,-14.603 -11.952,-20.41"
     id="flame1"
     style="fill:#dd1731" />
  <path
     d="m 43.6061,29.6305 c 2.965,2.977 4.502,8.883 0,12.094 -2.952,2.104 -6.712,1.183 -8.395,-0.453 -1.083,-1.051 -1.285,-2.562 -1.074,-3.558 0.424,-2.005 2.932,-4.151 4.61,-2.466 -1.526,-1.258 -4.645,2.661 -1.931,4.175 0.319,0.178 1.125,0.282 1.128,0.282 4.024,0.097 7.545,-4.242 4.618,-9.022 -0.408,-0.666 -0.867,-1.366 -1.457,-2.057 0,0 -1.172,-1.452 -0.518,-1.143 0.459,0.215 0.862,0.425 1.093,0.59 0.186,0.134 1.442,1.072 1.926,1.558"
     id="flame2"
     style="fill:#dd1731" />
  <path
     d="m 196.3546,29.5806 0,-0.294 2.097,0 0,0.294 -0.874,0 0,2.33 -0.349,0 0,-2.33 -0.874,0 z"
     id="T"
     style="fill:#090e14" />
  <path
     d="m 199.228,29.2866 0.827,2.205 0.83,-2.205 0.478,0 0,2.624 -0.33,0 0,-2.183 -0.009,0 -0.819,2.183 -0.297,0 -0.819,-2.183 -0.008,0 0,2.183 -0.331,0 0,-2.624 0.478,0 z"
     id="M"
     style="fill:#090e14" />
</svg>