<?xml version="1.0" encoding="UTF-8" standalone="no"?>
<!DOCTYPE svg PUBLIC "-//W3C//DTD SVG 1.1//EN" "http://www.w3.org/Graphics/SVG/1.1/DTD/svg11.dtd">
<svg width="100%" height="100%" viewBox="0 0 888 175" version="1.1" xmlns="http://www.w3.org/2000/svg" xmlns:xlink="http://www.w3.org/1999/xlink" xml:space="preserve" xmlns:serif="http://www.serif.com/" style="fill-rule:evenodd;clip-rule:evenodd;stroke-linejoin:round;stroke-miterlimit:1.41421;">
    <g transform="matrix(1,0,0,1,-202.002,-168.782)">
        <g transform="matrix(5.55556,0,0,5.55556,-1048,-482)">
            <clipPath id="_clip1">
                <rect x="225" y="117.14" width="159.725" height="31.358" clip-rule="nonzero"/>
            </clipPath>
            <g clip-path="url(#_clip1)">
                <g transform="matrix(1,0,0,1,271.872,146.11)">
                    <path d="M0,-27.278C0.271,-27.327 0.574,-27.364 0.908,-27.389C1.241,-27.413 1.543,-27.426 1.816,-27.426C2.087,-27.426 2.39,-27.413 2.724,-27.389C3.058,-27.364 3.36,-27.327 3.631,-27.278L3.631,-5.856C3.631,-5.164 3.693,-4.62 3.817,-4.225C3.941,-3.829 4.107,-3.526 4.318,-3.317C4.528,-3.106 4.775,-2.97 5.059,-2.909C5.343,-2.847 5.645,-2.816 5.967,-2.816C6.189,-2.816 6.442,-2.829 6.726,-2.854C7.011,-2.877 7.251,-2.915 7.45,-2.965C7.672,-2.099 7.783,-1.16 7.783,-0.147C7.437,-0.024 7.017,0.056 6.523,0.094C6.028,0.13 5.571,0.148 5.151,0.148C4.435,0.148 3.767,0.062 3.15,-0.111C2.532,-0.283 1.988,-0.567 1.52,-0.963C1.05,-1.358 0.679,-1.89 0.407,-2.557C0.135,-3.223 0,-4.052 0,-5.039L0,-27.278Z" style="fill:rgb(34,30,31);fill-rule:nonzero;"/>
                </g>
                <g transform="matrix(1,0,0,1,292.108,135.918)">
                    <path d="M0,1.149C-0.371,1.1 -0.84,1.051 -1.409,1.001C-1.977,0.951 -2.459,0.926 -2.854,0.926C-4.386,0.926 -5.554,1.211 -6.357,1.779C-7.16,2.347 -7.56,3.212 -7.56,4.373C-7.56,5.115 -7.425,5.696 -7.154,6.116C-6.882,6.536 -6.542,6.857 -6.134,7.079C-5.726,7.301 -5.276,7.438 -4.781,7.487C-4.287,7.537 -3.817,7.561 -3.373,7.561C-2.804,7.561 -2.218,7.53 -1.612,7.468C-1.007,7.407 -0.47,7.315 0,7.19L0,1.149ZM0,-2.446C0,-3.903 -0.371,-4.917 -1.111,-5.485C-1.853,-6.053 -2.928,-6.337 -4.336,-6.337C-5.202,-6.337 -6.011,-6.269 -6.764,-6.134C-7.518,-5.998 -8.253,-5.819 -8.969,-5.596C-9.439,-6.412 -9.674,-7.387 -9.674,-8.524C-8.834,-8.795 -7.907,-9.006 -6.894,-9.154C-5.881,-9.303 -4.905,-9.377 -3.966,-9.377C-1.495,-9.377 0.383,-8.814 1.668,-7.69C2.952,-6.566 3.595,-4.768 3.595,-2.299L3.595,9.599C2.73,9.797 1.68,10.001 0.445,10.21C-0.791,10.421 -2.051,10.526 -3.335,10.526C-4.546,10.526 -5.64,10.415 -6.616,10.193C-7.592,9.97 -8.42,9.612 -9.099,9.118C-9.779,8.623 -10.303,7.993 -10.674,7.227C-11.045,6.462 -11.23,5.535 -11.23,4.447C-11.23,3.386 -11.013,2.452 -10.582,1.649C-10.15,0.847 -9.562,0.18 -8.821,-0.352C-8.079,-0.883 -7.227,-1.278 -6.264,-1.538C-5.3,-1.798 -4.287,-1.927 -3.225,-1.927C-2.434,-1.927 -1.786,-1.909 -1.279,-1.872C-0.773,-1.835 -0.346,-1.791 0,-1.742L0,-2.446Z" style="fill:rgb(34,30,31);fill-rule:nonzero;"/>
                </g>
                <g transform="matrix(1,0,0,1,299.965,130.433)">
                    <path d="M0,12.12C0.668,12.392 1.402,12.608 2.205,12.769C3.008,12.929 3.805,13.009 4.596,13.009C5.164,13.009 5.707,12.948 6.226,12.823C6.746,12.701 7.196,12.515 7.579,12.268C7.963,12.022 8.271,11.719 8.506,11.361C8.741,11.002 8.858,10.6 8.858,10.155C8.858,9.662 8.766,9.254 8.58,8.933C8.395,8.611 8.147,8.339 7.839,8.117C7.529,7.895 7.173,7.703 6.764,7.543C6.356,7.382 5.918,7.228 5.449,7.079L4.151,6.597C2.57,6.004 1.421,5.338 0.705,4.596C-0.013,3.854 -0.37,2.854 -0.37,1.595C-0.37,-0.085 0.227,-1.42 1.427,-2.409C2.625,-3.396 4.386,-3.891 6.709,-3.891C7.673,-3.891 8.617,-3.799 9.544,-3.614C10.471,-3.428 11.279,-3.211 11.972,-2.965C11.922,-2.47 11.83,-1.976 11.693,-1.482C11.557,-0.988 11.39,-0.531 11.194,-0.11C10.649,-0.308 10.001,-0.5 9.247,-0.685C8.494,-0.87 7.684,-0.963 6.82,-0.963C5.904,-0.963 5.096,-0.803 4.392,-0.481C3.688,-0.16 3.336,0.408 3.336,1.223C3.336,1.643 3.422,2.002 3.595,2.299C3.769,2.595 4.003,2.848 4.3,3.058C4.596,3.268 4.935,3.447 5.319,3.596C5.701,3.743 6.115,3.892 6.559,4.04L8.191,4.596C8.783,4.794 9.346,5.029 9.877,5.301C10.408,5.572 10.866,5.912 11.249,6.319C11.631,6.727 11.941,7.222 12.176,7.802C12.409,8.383 12.527,9.08 12.527,9.896C12.527,10.81 12.342,11.645 11.972,12.397C11.6,13.152 11.075,13.794 10.396,14.325C9.716,14.857 8.895,15.27 7.931,15.567C6.967,15.863 5.904,16.011 4.744,16.011C3.559,16.011 2.52,15.931 1.631,15.77C0.741,15.61 -0.087,15.394 -0.852,15.122C-0.803,14.628 -0.699,14.127 -0.537,13.621C-0.377,13.115 -0.199,12.615 0,12.12" style="fill:rgb(34,30,31);fill-rule:nonzero;"/>
                </g>
                <g transform="matrix(1,0,0,1,316.939,138.661)">
                    <path d="M0,-8.747L-2.891,-8.747L-3.038,-9.266L3.336,-16.382L3.633,-16.382L3.633,-11.674L8.45,-11.674C8.549,-11.254 8.6,-10.786 8.6,-10.266C8.6,-9.994 8.587,-9.734 8.562,-9.489C8.537,-9.241 8.499,-8.993 8.45,-8.747L3.633,-8.747L3.633,-0.074C3.633,0.963 3.676,1.792 3.763,2.41C3.849,3.027 3.997,3.503 4.207,3.836C4.417,4.169 4.701,4.392 5.059,4.503C5.418,4.614 5.869,4.67 6.413,4.67C6.833,4.67 7.228,4.639 7.598,4.578C7.969,4.516 8.302,4.447 8.6,4.373C8.772,4.868 8.877,5.374 8.915,5.893C8.951,6.412 8.97,6.869 8.97,7.264C8.475,7.388 7.956,7.481 7.414,7.542C6.869,7.604 6.288,7.635 5.671,7.635C3.892,7.635 2.502,7.203 1.502,6.338C0.501,5.473 0,4.04 0,2.039L0,-8.747Z" style="fill:rgb(34,30,31);fill-rule:nonzero;"/>
                </g>
                <g transform="matrix(1,0,0,1,328.503,146.11)">
                    <path d="M0,-27.278C0.272,-27.327 0.574,-27.364 0.908,-27.389C1.241,-27.413 1.543,-27.426 1.816,-27.426C2.088,-27.426 2.39,-27.413 2.724,-27.389C3.057,-27.364 3.359,-27.327 3.633,-27.278L3.633,-5.856C3.633,-5.164 3.694,-4.62 3.818,-4.225C3.941,-3.829 4.108,-3.526 4.317,-3.317C4.527,-3.106 4.775,-2.97 5.058,-2.909C5.343,-2.847 5.646,-2.816 5.967,-2.816C6.19,-2.816 6.442,-2.829 6.727,-2.854C7.011,-2.877 7.251,-2.915 7.45,-2.965C7.672,-2.099 7.783,-1.16 7.783,-0.147C7.437,-0.024 7.017,0.056 6.522,0.094C6.029,0.13 5.571,0.148 5.151,0.148C4.435,0.148 3.768,0.062 3.15,-0.111C2.532,-0.283 1.989,-0.567 1.518,-0.963C1.051,-1.358 0.679,-1.89 0.408,-2.557C0.136,-3.223 0,-4.052 0,-5.039L0,-27.278Z" style="fill:rgb(140,198,63);fill-rule:nonzero;"/>
                </g>
                <g transform="matrix(1,0,0,1,338.991,142.255)">
                    <path d="M0,-19.457C-0.05,-19.754 -0.082,-20.074 -0.093,-20.421C-0.106,-20.766 -0.112,-21.075 -0.112,-21.347C-0.112,-21.619 -0.106,-21.927 -0.093,-22.273C-0.082,-22.62 -0.05,-22.928 0,-23.201C0.32,-23.249 0.665,-23.287 1.037,-23.312C1.407,-23.335 1.728,-23.349 2.001,-23.349C2.272,-23.349 2.594,-23.335 2.965,-23.312C3.335,-23.287 3.668,-23.249 3.964,-23.201C4.014,-22.928 4.044,-22.62 4.059,-22.273C4.069,-21.927 4.076,-21.619 4.076,-21.347C4.076,-21.075 4.069,-20.766 4.059,-20.421C4.044,-20.074 4.014,-19.754 3.964,-19.457C3.668,-19.407 3.341,-19.37 2.983,-19.346C2.625,-19.321 2.309,-19.308 2.039,-19.308C1.741,-19.308 1.407,-19.321 1.037,-19.346C0.665,-19.37 0.32,-19.407 0,-19.457M0.814,-12.378L-1.593,-12.378C-1.644,-12.575 -1.682,-12.804 -1.705,-13.064C-1.73,-13.323 -1.743,-13.576 -1.743,-13.824C-1.743,-14.07 -1.73,-14.324 -1.705,-14.584C-1.682,-14.843 -1.644,-15.071 -1.593,-15.269L4.41,-15.269L4.41,3.744C4.138,3.794 3.835,3.83 3.502,3.855C3.168,3.88 2.866,3.892 2.594,3.892C2.347,3.892 2.056,3.88 1.723,3.855C1.39,3.83 1.086,3.794 0.814,3.744L0.814,-12.378Z" style="fill:rgb(140,198,63);fill-rule:nonzero;"/>
                </g>
                <g transform="matrix(1,0,0,1,348.442,145.702)">
                    <path d="M0,-18.716C0.271,-18.765 0.538,-18.802 0.796,-18.827C1.056,-18.852 1.321,-18.865 1.593,-18.865C1.864,-18.865 2.119,-18.852 2.353,-18.827C2.589,-18.802 2.841,-18.765 3.113,-18.716C3.187,-18.346 3.261,-17.846 3.336,-17.215C3.409,-16.585 3.448,-16.06 3.448,-15.64C3.693,-16.06 4.009,-16.48 4.392,-16.9C4.775,-17.32 5.213,-17.697 5.707,-18.031C6.202,-18.364 6.769,-18.636 7.411,-18.846C8.055,-19.056 8.76,-19.161 9.526,-19.161C11.699,-19.161 13.305,-18.537 14.342,-17.29C15.381,-16.041 15.9,-14.195 15.9,-11.748L15.9,0.297C15.627,0.346 15.318,0.383 14.973,0.408C14.626,0.432 14.319,0.445 14.046,0.445C13.774,0.445 13.473,0.432 13.138,0.408C12.805,0.383 12.502,0.346 12.23,0.297L12.23,-10.748C12.23,-12.501 11.959,-13.793 11.415,-14.622C10.871,-15.449 10.007,-15.862 8.82,-15.862C8.129,-15.862 7.475,-15.739 6.857,-15.492C6.238,-15.244 5.694,-14.861 5.226,-14.343C4.756,-13.824 4.38,-13.151 4.095,-12.323C3.811,-11.495 3.669,-10.5 3.669,-9.339L3.669,0.297C3.397,0.346 3.095,0.383 2.76,0.408C2.427,0.432 2.124,0.445 1.853,0.445C1.581,0.445 1.272,0.432 0.926,0.408C0.579,0.383 0.271,0.346 0,0.297L0,-18.716Z" style="fill:rgb(140,198,63);fill-rule:nonzero;"/>
                </g>
                <g transform="matrix(1,0,0,1,381.093,138.326)">
                    <path d="M0,-3.668C0,-4.359 -0.093,-5.021 -0.278,-5.652C-0.463,-6.281 -0.735,-6.831 -1.092,-7.3C-1.452,-7.77 -1.908,-8.147 -2.464,-8.43C-3.02,-8.715 -3.682,-8.857 -4.447,-8.857C-5.955,-8.857 -7.109,-8.4 -7.912,-7.485C-8.715,-6.572 -9.205,-5.299 -9.377,-3.668L0,-3.668ZM-9.413,-0.926C-9.365,1.15 -8.827,2.67 -7.8,3.633C-6.776,4.596 -5.263,5.079 -3.261,5.079C-1.507,5.079 0.161,4.77 1.742,4.152C1.94,4.522 2.099,4.974 2.225,5.505C2.348,6.036 2.422,6.561 2.447,7.08C1.631,7.426 0.734,7.685 -0.24,7.858C-1.216,8.031 -2.298,8.117 -3.483,8.117C-5.213,8.117 -6.696,7.876 -7.931,7.395C-9.167,6.913 -10.185,6.234 -10.988,5.356C-11.792,4.48 -12.378,3.442 -12.749,2.243C-13.121,1.045 -13.305,-0.271 -13.305,-1.704C-13.305,-3.112 -13.127,-4.428 -12.768,-5.652C-12.41,-6.874 -11.859,-7.936 -11.118,-8.839C-10.377,-9.74 -9.445,-10.456 -8.321,-10.987C-7.195,-11.52 -5.869,-11.785 -4.336,-11.785C-3.026,-11.785 -1.878,-11.563 -0.889,-11.117C0.098,-10.673 0.927,-10.061 1.594,-9.283C2.261,-8.505 2.767,-7.578 3.113,-6.504C3.459,-5.429 3.632,-4.261 3.632,-3.001C3.632,-2.655 3.619,-2.291 3.596,-1.908C3.57,-1.524 3.546,-1.197 3.521,-0.926L-9.413,-0.926Z" style="fill:rgb(140,198,63);fill-rule:nonzero;"/>
                </g>
                <g transform="matrix(1,0,0,1,241.876,138.089)">
                    <path d="M0,-1.301L18.693,10.409L8.897,10.409L-4.898,1.74C-10.762,-1.9 -10.644,-7.952 -4.65,-11.71L0.234,-8.632C-3.042,-6.551 -3.156,-3.261 0,-1.301" style="fill:rgb(140,198,63);fill-rule:nonzero;"/>
                </g>
                <g transform="matrix(0.845987,-0.533203,-0.533203,-0.845987,228.879,152.244)">
                    <path d="M-0.645,4.834L12.607,4.834L15.082,-0.394L7.643,-0.389L-0.645,4.834Z" style="fill:rgb(140,198,63);fill-rule:nonzero;"/>
                </g>
                <g transform="matrix(-0.851294,0.524688,0.524688,0.851294,248.028,128.726)">
                    <path d="M-17.972,-2.532L-3.437,-2.532L-0.869,-7.668L-9.632,-7.672L-17.972,-2.532Z" style="fill:rgb(140,198,63);fill-rule:nonzero;"/>
                </g>
                <g transform="matrix(1,0,0,1,244.785,127.486)">
                    <path d="M0,1.883L-19.785,-10.345L-9.988,-10.345L-3.827,-6.577L-3.837,-6.597L5.45,-0.804L5.476,-0.827C10.763,2.851 10.439,8.594 4.597,12.219L4.582,12.228L-0.3,9.203C3.045,7.125 3.179,3.858 0,1.883" style="fill:rgb(34,30,31);fill-rule:nonzero;"/>
                </g>
            </g>
        </g>
    </g>
</svg>
