<?xml version="1.0" encoding="UTF-8" standalone="no"?>
<!DOCTYPE svg PUBLIC "-//W3C//DTD SVG 1.1//EN" "http://www.w3.org/Graphics/SVG/1.1/DTD/svg11.dtd">
<svg width="100%" height="100%" viewBox="0 0 790 400" version="1.1" xmlns="http://www.w3.org/2000/svg" xmlns:xlink="http://www.w3.org/1999/xlink" xml:space="preserve" xmlns:serif="http://www.serif.com/" style="fill-rule:evenodd;clip-rule:evenodd;stroke-linejoin:round;stroke-miterlimit:1.41421;">
    <g transform="matrix(0.59322,0,0,0.59322,389.009,200)">
        <g transform="matrix(1,0,0,1,-614.583,-329.167)">
            <g transform="matrix(4.16667,0,0,4.16667,0,0)">
                <path d="M294.27,99.931L21.072,158L0,58.861L273.197,0.791L294.27,99.931Z" style="fill:rgb(0,141,194);fill-rule:nonzero;"/>
                <path d="M189.987,104.759L191.445,104.449C191.445,104.449 190.269,98.905 190.125,98.227C190.655,98.671 196.352,103.406 196.352,103.406L197.925,103.075L196.141,94.667L194.684,94.977C194.684,94.977 195.86,100.525 196.003,101.199C195.474,100.759 189.775,96.017 189.775,96.017L188.203,96.351L189.987,104.759Z" style="fill:white;fill-rule:nonzero;"/>
                <path d="M199.885,102.658L206.649,101.223L206.366,99.888C206.366,99.888 201.328,100.958 201.063,101.014L200.566,98.677L205.6,97.607L205.317,96.274L200.282,97.344C200.231,97.103 199.894,95.517 199.843,95.278C200.112,95.221 205.038,94.174 205.038,94.174L204.754,92.842L198.101,94.249L199.885,102.658Z" style="fill:white;fill-rule:nonzero;"/>
                <path d="M206.474,93.871C206.474,93.871 209.215,93.288 209.468,93.234C209.528,93.512 210.969,100.307 210.969,100.307L212.429,99.996C212.429,99.996 210.988,93.202 210.929,92.924C211.183,92.873 213.924,92.29 213.924,92.29L213.64,90.954L206.19,92.535L206.474,93.871Z" style="fill:white;fill-rule:nonzero;"/>
                <path d="M219.3,98.539L220.803,98.22C220.803,98.22 221.449,92.042 221.529,91.323C221.886,91.949 225.002,97.33 225.002,97.33L226.493,97.013L227.489,88.017L225.968,88.34C225.968,88.34 225.441,94.322 225.376,95.056C225.004,94.418 221.956,89.19 221.956,89.19L220.353,89.53C220.353,89.53 219.744,95.526 219.668,96.263C219.305,95.613 216.39,90.37 216.39,90.37L214.814,90.705L219.3,98.539Z" style="fill:white;fill-rule:nonzero;"/>
                <path d="M231.544,93.864C230.903,93.434 230.477,92.749 230.28,91.822L230.279,91.818C230.081,90.888 230.191,90.085 230.605,89.435C231.032,88.756 231.763,88.29 232.713,88.088L232.716,88.088C234.622,87.686 236.052,88.613 236.455,90.509C236.857,92.401 235.925,93.831 234.02,94.236C233.066,94.439 232.212,94.307 231.544,93.864ZM232.433,86.755C231.008,87.058 229.965,87.713 229.335,88.713C228.738,89.657 228.554,90.87 228.821,92.125C229.088,93.381 229.746,94.417 230.676,95.037C231.661,95.691 232.879,95.872 234.303,95.569C237.657,94.859 238.345,92.231 237.913,90.199C237.483,88.164 235.786,86.042 232.433,86.755Z" style="fill:white;fill-rule:nonzero;"/>
                <path d="M240.39,86.674C240.649,86.619 243.565,85.999 243.565,85.999C244.377,85.83 244.911,86.143 245.069,86.885C245.156,87.313 245.142,88.062 244.019,88.301C244.019,88.301 241.133,88.911 240.877,88.966C240.826,88.724 240.442,86.919 240.39,86.674ZM240.432,94.054L241.89,93.747C241.89,93.747 241.217,90.564 241.161,90.302L244.091,89.679C244.912,89.504 245.463,89.691 245.854,91.146L245.925,91.406C246.145,92.216 246.228,92.518 246.479,92.72L246.532,92.76L248.15,92.416L247.897,92.221C247.597,91.984 247.48,91.625 247.106,90.179C246.873,89.288 246.377,88.75 245.765,88.631C246.41,88.119 246.688,87.333 246.488,86.393C246.262,85.332 245.394,84.217 243.695,84.579L238.648,85.648L240.432,94.054Z" style="fill:white;fill-rule:nonzero;"/>
                <path d="M249.862,92.054L251.324,91.747C251.324,91.747 250.77,89.14 250.743,89.016C250.809,88.925 251.637,87.776 251.781,87.577C252.002,87.756 255.797,90.796 255.797,90.796L257.789,90.372C257.789,90.372 252.89,86.53 252.673,86.356C252.834,86.135 255.863,81.997 255.863,81.997L253.772,82.442C253.772,82.442 250.706,86.762 250.365,87.238L249.537,83.339L248.079,83.648L249.862,92.054Z" style="fill:white;fill-rule:nonzero;"/>
                <path d="M257.644,84.134C258.038,85.986 259.965,85.906 260.596,85.879L262.457,85.803C263.459,85.768 263.919,85.99 264.041,86.578C264.099,86.85 264.055,87.105 263.909,87.337C263.647,87.751 263.077,88.069 262.302,88.234C261.411,88.42 259.868,88.522 259.534,87.058L259.501,86.916L258.045,87.225L258.077,87.368C258.254,88.202 258.644,88.827 259.245,89.227C260.23,89.886 261.56,89.788 262.495,89.589C263.214,89.437 264.515,89.028 265.152,88.019C265.512,87.455 265.612,86.784 265.451,86.029C265.076,84.264 263.132,84.318 262.495,84.337C262.477,84.338 260.463,84.41 260.463,84.41C259.362,84.451 259.148,84.043 259.083,83.734C259.023,83.456 259.068,83.201 259.213,82.969C259.443,82.607 259.936,82.312 260.532,82.185C262.323,81.804 262.82,82.526 263.039,83.097L263.083,83.214L264.533,82.909L264.488,82.757C264.032,81.073 262.541,80.365 260.407,80.819C258.359,81.25 257.302,82.519 257.644,84.134Z" style="fill:white;fill-rule:nonzero;"/>
                <path d="M109.323,97.468C104.663,98.458 103.083,94.509 102.09,89.84C101.098,85.171 100.946,80.974 105.607,79.984C110.264,78.994 111.782,82.9 112.774,87.569C113.767,92.238 113.98,96.478 109.323,97.468ZM112.693,75.984C110.968,74.831 108.501,74.432 105.919,74.981C103.136,75.573 101.213,76.743 99.795,79.538L99.465,77.986C98.708,77.329 97.684,77.012 96.647,77.232C95.604,77.454 94.82,78.152 94.402,79.066L101.987,114.75L107.152,113.652L104.318,100.321C106.678,102.205 108.96,102.478 111.693,101.897C114.275,101.348 116.316,99.992 117.424,98.24C119.447,95.044 118.788,90.466 117.939,86.471C117.09,82.477 115.841,78.08 112.693,75.984Z" style="fill:white;fill-rule:nonzero;"/>
                <path d="M137.068,84.033L131.042,85.314C128.005,85.96 126.732,87.694 127.239,90.08C127.747,92.468 129.503,93.505 132.744,92.816C134.719,92.396 136.152,91.927 137.235,90.287C137.828,89.349 137.917,88.028 137.52,86.159L137.068,84.033ZM139.642,95.632L139.135,93.246C137.669,95.565 136.06,96.719 132.87,97.397C129.679,98.075 127.389,97.75 125.477,96.475C123.862,95.352 122.721,93.48 122.247,91.251C121.31,86.839 123.627,83.041 129.503,81.792L136.286,80.35L135.888,78.482C135.183,75.161 133.22,73.897 129.22,74.747C126.385,75.35 125.162,76.315 124.139,78.485L120.053,75.937C121.868,72.514 124.209,71.094 128.465,70.189C135.501,68.694 139.697,71.003 140.965,76.969L144.703,94.556L139.642,95.632Z" style="fill:white;fill-rule:nonzero;"/>
                <path d="M156.781,87.271C154.703,87.713 153.774,86.826 153.344,84.803L147.104,55.444C146.331,54.772 145.289,54.45 144.23,54.675C143.167,54.901 142.365,55.612 141.94,56.545L148.246,86.212C149.072,90.101 151.915,93.024 156.829,91.98L160.019,91.301L159.059,86.787L156.781,87.271Z" style="fill:white;fill-rule:nonzero;"/>
                <path d="M171.974,67.45C170.803,66.668 169.376,66.428 167.856,66.751C166.339,67.074 165.183,67.863 164.431,69.053C163.202,70.996 163.583,73.788 164.19,76.642C164.796,79.494 165.584,82.202 167.496,83.477C168.668,84.255 170.055,84.558 171.572,84.235C173.092,83.912 174.287,83.061 175.04,81.873C176.268,79.931 175.887,77.136 175.281,74.285C174.674,71.43 173.886,68.725 171.974,67.45ZM179.611,84.208C178.316,86.326 176.07,88.213 172.576,88.956C169.084,89.698 166.315,88.877 164.27,87.469C161.287,85.391 159.973,82.2 159.025,77.74C158.087,73.328 157.989,69.879 159.87,66.77C161.166,64.649 163.361,62.773 166.853,62.031C170.347,61.288 173.166,62.099 175.212,63.509C178.195,65.584 179.505,68.776 180.443,73.187C181.391,77.648 181.492,81.096 179.611,84.208Z" style="fill:white;fill-rule:nonzero;"/>
                <path d="M219.984,73.837C217.909,74.278 216.98,73.391 216.55,71.368L210.307,42.01C209.537,41.337 208.493,41.016 207.433,41.241C206.37,41.467 205.568,42.178 205.143,43.111L211.449,72.778C212.275,76.667 215.121,79.589 220.032,78.545L223.222,77.867L222.263,73.353L219.984,73.837Z" style="fill:white;fill-rule:nonzero;"/>
                <path d="M199.573,70.748L193.546,72.029C190.509,72.674 189.236,74.408 189.744,76.794C190.251,79.183 192.008,80.219 195.248,79.53C197.223,79.11 198.656,78.641 199.736,77.002C200.332,76.063 200.422,74.742 200.025,72.873L199.573,70.748ZM202.143,82.347L201.636,79.961C200.17,82.28 198.564,83.433 195.374,84.111C192.186,84.789 189.893,84.464 187.981,83.189C186.367,82.066 185.228,80.194 184.755,77.965C183.817,73.553 186.131,69.755 192.005,68.507L198.79,67.065L198.393,65.196C197.687,61.876 195.725,60.611 191.725,61.461C188.889,62.064 187.666,63.029 186.644,65.199L182.558,62.652C184.369,59.229 186.714,57.808 190.967,56.904C198.006,55.408 202.201,57.718 203.469,63.684L207.208,81.271L202.143,82.347Z" style="fill:white;fill-rule:nonzero;"/>
                <path d="M232.939,53.027L232.079,48.981L227.118,50.036L225.424,42.067C224.652,41.398 223.61,41.076 222.548,41.301C221.485,41.527 220.686,42.238 220.26,43.167L221.953,51.134L219.016,51.758L219.876,55.804L222.813,55.18L225.89,69.655C226.695,73.441 229.67,76.497 234.484,75.473L237.571,74.817L236.611,70.303L234.484,70.755C232.562,71.163 231.407,70.214 231,68.297L227.978,54.082L232.939,53.027Z" style="fill:white;fill-rule:nonzero;"/>
                <path d="M250.81,50.693C249.639,49.911 248.212,49.671 246.692,49.994C245.175,50.317 244.019,51.106 243.267,52.296C242.038,54.238 242.419,57.03 243.026,59.885C243.632,62.737 244.42,65.445 246.333,66.72C247.504,67.498 248.891,67.801 250.408,67.478C251.928,67.155 253.123,66.304 253.876,65.116C255.104,63.174 254.723,60.379 254.117,57.527C253.51,54.673 252.722,51.967 250.81,50.693ZM258.446,67.451C257.152,69.569 254.906,71.456 251.412,72.198C247.917,72.941 245.151,72.119 243.103,70.712C240.123,68.634 238.812,65.442 237.864,60.982C236.926,56.57 236.825,53.122 238.704,50.014C240.002,47.892 242.194,46.017 245.689,45.274C249.183,44.531 252.002,45.341 254.048,46.752C257.031,48.827 258.344,52.018 259.282,56.43C260.23,60.89 260.328,64.339 258.446,67.451Z" style="fill:white;fill-rule:nonzero;"/>
                <path d="M269.101,80.734L268.594,80.842L268.802,81.819L269.309,81.711C269.61,81.647 269.778,81.398 269.719,81.117C269.659,80.835 269.403,80.67 269.101,80.734ZM270.149,83.068L269.282,82.063L268.872,82.15L269.114,83.288L268.736,83.368L268.144,80.579L269.07,80.382C269.541,80.282 270.005,80.565 270.105,81.035C270.192,81.443 269.998,81.749 269.682,81.926L270.59,82.974L270.149,83.068ZM268.788,79.634C267.635,79.879 266.91,81.054 267.164,82.248C267.418,83.445 268.558,84.22 269.711,83.975C270.864,83.73 271.596,82.557 271.341,81.36C271.087,80.166 269.941,79.389 268.788,79.634ZM269.791,84.35C268.417,84.641 267.065,83.74 266.766,82.333C266.467,80.926 267.335,79.551 268.709,79.26C270.082,78.968 271.435,79.87 271.734,81.277C272.033,82.684 271.164,84.058 269.791,84.35Z" style="fill:white;fill-rule:nonzero;"/>
                <path d="M78.74,88.629L79.125,98.544C79.174,99.783 78.254,100.987 77.077,101.237C75.897,101.488 74.898,100.692 74.851,99.452L74.468,89.537C74.422,88.3 75.34,87.094 76.52,86.843C77.693,86.594 78.691,87.393 78.74,88.629ZM71.3,85.604L72.036,104.61C72.087,105.847 71.168,107.053 69.989,107.304C68.809,107.555 67.816,106.754 67.768,105.517L67.026,86.513C66.979,85.282 67.9,84.071 69.078,83.82C70.258,83.57 71.253,84.374 71.3,85.604ZM64.137,89.572L65.131,115.19C65.178,116.429 64.26,117.629 63.08,117.879C61.901,118.13 60.906,117.337 60.86,116.098L59.865,90.48C59.819,89.256 60.736,88.046 61.915,87.795C63.091,87.545 64.092,88.348 64.137,89.572ZM57.227,100.162L57.961,119.167C58.014,120.406 57.094,121.609 55.917,121.859C54.735,122.11 53.74,121.314 53.691,120.075L52.953,101.07C52.907,99.833 53.825,98.628 54.999,98.378C56.183,98.127 57.179,98.925 57.227,100.162ZM50.141,106.23L50.524,116.148C50.571,117.385 49.656,118.591 48.477,118.841C47.295,119.093 46.304,118.292 46.252,117.056L45.869,107.138C45.819,105.901 46.736,104.694 47.917,104.443C49.097,104.192 50.09,104.993 50.141,106.23ZM42.881,107.773L42.993,110.606C43.04,111.845 42.12,113.047 40.94,113.298C39.759,113.549 38.769,112.752 38.719,111.514L38.608,108.681C38.562,107.444 39.474,106.238 40.656,105.986C41.839,105.735 42.833,106.536 42.881,107.773ZM81.981,94.984C81.937,93.781 82.803,92.602 83.944,92.312L80.414,75.705C79.506,71.432 75.336,68.69 71.107,69.589L37.342,76.765C33.111,77.665 30.417,81.866 31.325,86.139L38.579,120.265C39.488,124.542 43.658,127.284 47.889,126.385L81.654,119.208C85.883,118.309 88.577,114.107 87.668,109.831L85.379,99.063C85.07,99.329 84.709,99.521 84.315,99.605C83.133,99.856 82.139,99.052 82.095,97.822L81.981,94.984Z" style="fill:white;fill-rule:nonzero;"/>
            </g>
        </g>
    </g>
</svg>
