<?xml version="1.0" encoding="UTF-8"?>
<svg width="110px" height="37px" viewBox="0 0 110 37" version="1.1" xmlns="http://www.w3.org/2000/svg" xmlns:xlink="http://www.w3.org/1999/xlink">
    <!-- Generator: Sketch 41.1 (35376) - http://www.bohemiancoding.com/sketch -->
    <title>print_v1</title>
    <desc>Created with Sketch.</desc>
    <defs></defs>
    <g id="Page-1" stroke="none" stroke-width="1" fill="none" fill-rule="evenodd">
        <g id="print_v1">
            <path d="M3.63636364,36.3636364 C1.62818182,36.3636364 0,34.7354545 0,32.7272727 L0,3.63636364 C0,1.62818182 1.62818182,0 3.63636364,0 L32.7272727,0 C34.7354545,0 36.3636364,1.62818182 36.3636364,3.63636364 L36.3636364,32.7272727 C36.3636364,34.7354545 34.7354545,36.3636364 32.7272727,36.3636364 L3.63636364,36.3636364 Z" id="Fill-1" fill="#005F86"></path>
            <path d="M48.4109091,7.28181818 C47.7413636,7.28181818 47.2036364,7.14136364 46.7968182,6.85909091 C46.3918182,6.59454545 46.1895455,6.05636364 46.1895455,5.245 C46.1895455,4.37136364 46.415,3.78727273 46.8677273,3.49090909 C47.3190909,3.21 47.8886364,3.07 48.5759091,3.07 L54.3554545,3.07 L54.3554545,1.47727273 L48.7622727,1.47727273 C47.4522727,1.47727273 46.3918182,1.78272727 45.5804545,2.39 C44.7690909,2.99909091 44.3645455,3.95772727 44.3645455,5.26818182 C44.3645455,6.51636364 44.73,7.42909091 45.4636364,8.00590909 C46.1968182,8.59909091 47.1786364,8.89545455 48.4109091,8.89545455 L51.1027273,8.89545455 C51.7577273,8.89545455 52.2886364,9.03590909 52.6936364,9.31636364 C53.1145455,9.61272727 53.3254545,10.19 53.3254545,11.0477273 C53.3254545,11.8909091 53.0840909,12.4681818 52.5995455,12.7804545 C52.1163636,13.0913636 51.5554545,13.2477273 50.9163636,13.2477273 L44.645,13.2477273 L44.645,14.8386364 L50.845,14.8386364 C52.1236364,14.8386364 53.1622727,14.5277273 53.9577273,13.9027273 C54.7531818,13.2636364 55.1509091,12.3045455 55.1509091,11.0245455 C55.1509091,9.74590909 54.7922727,8.80136364 54.075,8.19409091 C53.3418182,7.58545455 52.3418182,7.28181818 51.0795455,7.28181818 L48.4109091,7.28181818 Z M68.2545455,1.47727273 C67.9422727,1.47727273 67.6686364,1.57136364 67.4359091,1.75954545 C67.1859091,1.94590909 67.0222727,2.18045455 66.9440909,2.46090909 C66.9281818,2.52318182 66.8963636,2.61727273 66.85,2.74136364 C66.2572727,4.44227273 65.3531818,6.99227273 64.1354545,10.3922727 C64.105,10.4863636 64.0731818,10.5718182 64.0431818,10.65 L63.9490909,10.9304545 C63.9027273,11.0722727 63.8086364,11.1809091 63.6681818,11.2590909 C63.5440909,11.3531818 63.4018182,11.3990909 63.2477273,11.3990909 C63.0913636,11.3990909 62.9422727,11.3531818 62.8018182,11.2590909 C62.6777273,11.1645455 62.5922727,11.0477273 62.5445455,10.9072727 C62.5140909,10.815 62.4822727,10.7281818 62.4522727,10.65 C62.42,10.5577273 62.3881818,10.4704545 62.3581818,10.3922727 C62.0772727,9.62909091 61.8359091,8.965 61.6318182,8.40363636 C61.4131818,7.82681818 61.2268182,7.32772727 61.0704545,6.90681818 C60.9463636,6.57863636 60.8363636,6.29090909 60.7440909,6.04045455 C60.6659091,5.79181818 60.5877273,5.57363636 60.5095455,5.38545455 C60.2431818,4.65181818 60.0959091,4.23818182 60.0640909,4.14590909 C60.0177273,4.03590909 59.8454545,3.57590909 59.5490909,2.76454545 C59.5186364,2.67045455 59.4709091,2.53909091 59.4086364,2.36681818 C59.3163636,2.11818182 59.1513636,1.90681818 58.9186364,1.73454545 C58.6840909,1.56409091 58.4181818,1.47727273 58.1231818,1.47727273 C57.7486364,1.47727273 57.4290909,1.61772727 57.1627273,1.9 C56.8981818,2.16454545 56.765,2.48409091 56.765,2.85863636 L56.765,14.9095455 L58.45,14.9095455 L58.45,8.80136364 C58.45,8.59909091 58.5209091,8.41954545 58.6613636,8.26363636 C58.8013636,8.12318182 58.9809091,8.05409091 59.1990909,8.05409091 C59.3554545,8.05409091 59.4959091,8.1 59.62,8.19409091 C59.7445455,8.28636364 59.8386364,8.40363636 59.9004545,8.54409091 C60.3531818,9.76227273 61.0386364,11.6013636 61.96,14.0659091 C62.0381818,14.3163636 62.1859091,14.5186364 62.4040909,14.675 C62.6227273,14.8313636 62.8727273,14.9095455 63.1536364,14.9095455 C63.4340909,14.9095455 63.6840909,14.8313636 63.9027273,14.675 C64.105,14.5186364 64.2522727,14.3163636 64.3463636,14.0659091 C64.7995455,12.8336364 65.4777273,10.9945455 66.3831818,8.54409091 C66.4454545,8.40363636 66.5377273,8.28636364 66.6636364,8.19409091 C66.7881818,8.1 66.9281818,8.05409091 67.0845455,8.05409091 C67.3027273,8.05409091 67.4822727,8.12318182 67.6227273,8.26363636 C67.7627273,8.41954545 67.8336364,8.59909091 67.8336364,8.80136364 L67.8336364,14.9095455 L69.6340909,14.9095455 L69.6340909,2.85863636 C69.6340909,2.48409091 69.5027273,2.16454545 69.2363636,1.9 C68.9559091,1.61772727 68.6290909,1.47727273 68.2545455,1.47727273 Z M78.5495455,1.94590909 C78.5190909,1.88409091 78.425,1.79 78.2686364,1.66545455 C78.1286364,1.525 77.855,1.45409091 77.4504545,1.45409091 C77.0595455,1.45409091 76.7881818,1.51636364 76.6318182,1.64227273 C76.4754545,1.76681818 76.3813636,1.86090909 76.3513636,1.92272727 C75.1954545,4.80818182 73.4568182,9.13727273 71.1327273,14.9095455 L73.0040909,14.9095455 C73.3327273,14.0818182 73.8227273,12.8568182 74.4781818,11.2359091 C74.6040909,10.9072727 74.7977273,10.4172727 75.0640909,9.76227273 C75.3445455,9.02863636 75.7722727,7.93681818 76.3513636,6.48636364 L76.4436364,6.25181818 C76.4754545,6.17363636 76.5054545,6.10272727 76.5377273,6.04045455 C76.6318182,5.80590909 76.74,5.61272727 76.8645455,5.45636364 C77.0063636,5.31590909 77.1859091,5.245 77.4040909,5.245 C77.6227273,5.245 77.7931818,5.31590909 77.9172727,5.45636364 C78.0272727,5.58045455 78.1286364,5.74409091 78.2227273,5.94636364 L78.3168182,6.22863636 C78.3468182,6.30681818 78.3790909,6.39181818 78.4090909,6.48636364 C78.535,6.81272727 78.6436364,7.10227273 78.7377273,7.35090909 C78.83,7.58545455 78.9081818,7.78772727 78.9718182,7.96 C79.2522727,8.67727273 79.3927273,9.04318182 79.3927273,9.05909091 C79.4086364,9.09090909 79.4940909,9.32545455 79.65,9.76227273 L80.2113636,11.2359091 C80.5236364,12.0472727 80.9909091,13.2704545 81.6159091,14.9095455 L83.5563636,14.9095455 C82.4645455,12.0704545 80.8204545,7.80363636 78.6204545,2.10954545 C78.6045455,2.09318182 78.5886364,2.07045455 78.5722727,2.04 C78.5722727,2.00818182 78.5654545,1.97818182 78.5495455,1.94590909 Z M93.4781818,10.4172727 C93.3840909,10.245 93.2990909,10.0727273 93.2209091,9.90227273 C93.1427273,9.71409091 93.1977273,9.58272727 93.3840909,9.50454545 C94.1654545,9.23818182 94.7818182,8.82454545 95.2345455,8.26363636 C95.6713636,7.68636364 95.9195455,6.93 95.9818182,5.99454545 L95.9818182,5.57363636 C95.9818182,4.24727273 95.5931818,3.23318182 94.8118182,2.53 C94.0163636,1.82863636 92.7931818,1.47727273 91.1381818,1.47727273 L86.0136364,1.47727273 C85.7954545,1.47727273 85.6090909,1.55545455 85.4527273,1.71181818 C85.2963636,1.88409091 85.2181818,2.07909091 85.2181818,2.29772727 L85.2181818,14.9095455 L87.0668182,14.9095455 L87.0668182,3.84045455 C87.0827273,3.62227273 87.1609091,3.44272727 87.3009091,3.30272727 C87.4572727,3.16227273 87.6368182,3.09318182 87.8390909,3.09318182 L90.8809091,3.09318182 C92.0827273,3.09318182 92.9172727,3.27954545 93.3840909,3.65409091 C93.8531818,4.02863636 94.0872727,4.70681818 94.0872727,5.69090909 C94.0872727,6.76681818 93.83,7.46090909 93.315,7.77181818 C92.7840909,8.08409091 91.9727273,8.24045455 90.8809091,8.24045455 L89.945,8.24045455 C89.7263636,8.25636364 89.5472727,8.34181818 89.4068182,8.49772727 C89.2509091,8.65409091 89.1727273,8.83363636 89.1727273,9.03590909 C89.1727273,9.25409091 89.2509091,9.44090909 89.4068182,9.59681818 C89.5472727,9.75318182 89.7263636,9.83136364 89.945,9.83136364 C90.3354545,9.84727273 90.6390909,9.91636364 90.8577273,10.0427273 C91.06,10.1668182 91.1859091,10.2522727 91.2322727,10.3 L91.2554545,10.3231818 C91.3795455,10.4472727 91.5127273,10.6036364 91.6531818,10.79 C91.7790909,10.9622727 91.9195455,11.1809091 92.0736364,11.4454545 C92.2922727,11.79 92.4877273,12.0863636 92.66,12.335 C92.8159091,12.6013636 92.9563636,12.8268182 93.0804545,13.0131818 C93.5495455,13.7781818 93.7909091,14.1672727 93.8068182,14.1831818 C93.8209091,14.1990909 93.97,14.4409091 94.2509091,14.9095455 L96.3336364,14.9095455 L94.0163636,11.2590909 C93.9240909,11.1186364 93.83,10.9695455 93.7359091,10.815 C93.6418182,10.6586364 93.5563636,10.5254545 93.4781818,10.4172727 Z M98.86,1.47727273 C99.0004545,1.83590909 99.2186364,2.36681818 99.5154545,3.07 L102.533636,3.07 C102.752273,3.08409091 102.931364,3.16227273 103.071818,3.30272727 C103.228182,3.45863636 103.305909,3.63818182 103.305909,3.84045455 L103.305909,14.8863636 L105.131364,14.8863636 L105.131364,3.81727273 C105.131364,3.615 105.209545,3.44272727 105.365909,3.30272727 C105.505909,3.16227273 105.676364,3.08409091 105.880909,3.07 L108.922273,3.07 C109.062727,2.72545455 109.273636,2.19636364 109.554545,1.47727273 L98.86,1.47727273 Z" id="Fill-2" fill="#005F86"></path>
            <path d="M45.135,20.3872727 C44.9327273,20.3872727 44.7531818,20.465 44.5968182,20.6213636 C44.4409091,20.7759091 44.3645455,20.9554545 44.3645455,21.1577273 L44.3645455,33.7713636 L46.2090909,33.7713636 L46.2090909,22.7468182 C46.2090909,22.5445455 46.2781818,22.365 46.4186364,22.2086364 C46.575,22.0527273 46.7613636,21.9763636 46.9795455,21.9763636 L49.7354545,21.9763636 C51.1522727,21.9763636 52.1181818,22.2159091 52.6331818,22.6990909 C53.1304545,23.1977273 53.3809091,24.0072727 53.3809091,25.1295455 C53.3809091,26.2340909 53.1,26.9904545 52.5390909,27.3954545 C51.9940909,27.8 51.06,28.0022727 49.7354545,28.0022727 L49.0818182,28.0022727 C48.8636364,28.0168182 48.6840909,28.1036364 48.5440909,28.2581818 C48.3895455,28.4145455 48.3113636,28.5936364 48.3113636,28.7963636 C48.3113636,29.0145455 48.3895455,29.2009091 48.5440909,29.3572727 C48.6840909,29.4977273 48.8636364,29.5736364 49.0818182,29.59 L49.9927273,29.59 C51.8927273,29.59 53.2477273,29.185 54.0572727,28.3754545 C54.8668182,27.5495455 55.2718182,26.4295455 55.2718182,25.0122727 C55.2718182,23.5477273 54.8509091,22.4113636 54.0109091,21.6013636 C53.1695455,20.7918182 51.8377273,20.3872727 50.0159091,20.3872727 L45.135,20.3872727 Z M66.0172727,25.3622727 C66.0172727,25.5804545 65.9390909,25.7672727 65.7831818,25.9231818 C65.6286364,26.0636364 65.4404545,26.1327273 65.2236364,26.1327273 L65.2236364,26.1559091 L59.8027273,26.1559091 L59.8027273,26.1327273 C59.5704545,26.1327273 59.375,26.0545455 59.2204545,25.9 C59.0640909,25.7440909 58.9863636,25.5577273 58.9863636,25.3390909 L58.9863636,20.3640909 L57.1645455,20.3640909 L57.1645455,33.7945455 L58.9863636,33.7945455 L58.9863636,28.3986364 C59.0022727,28.1959091 59.0872727,28.0168182 59.2436364,27.8622727 C59.3981818,27.7059091 59.5772727,27.6277273 59.78,27.6277273 L65.2236364,27.6277273 C65.4404545,27.6277273 65.6286364,27.7059091 65.7831818,27.8622727 C65.9390909,28.0168182 66.0172727,28.205 66.0172727,28.4213636 L66.0172727,33.7945455 L67.8622727,33.7945455 L67.8622727,20.3640909 L66.0172727,20.3640909 L66.0172727,25.3622727 Z M72.0204545,25.4081818 L72.0204545,33.8172727 L70.1990909,33.8172727 L70.1990909,20.41 L72.0204545,20.41 L72.0204545,25.4081818 Z M78.4445455,26.1809091 C77.7736364,26.1809091 77.2372727,26.0404545 76.8322727,25.76 C76.4277273,25.4954545 76.225,24.9572727 76.225,24.1477273 C76.225,23.2759091 76.4504545,22.6918182 76.9018182,22.3954545 C77.3545455,22.1145455 77.9227273,21.9763636 78.6081818,21.9763636 L84.3768182,21.9763636 L84.3768182,20.3872727 L78.7945455,20.3872727 C77.4859091,20.3872727 76.4277273,20.6909091 75.6177273,21.2977273 C74.8081818,21.905 74.4036364,22.8622727 74.4036364,24.1709091 C74.4036364,25.4172727 74.7690909,26.3281818 75.5009091,26.9036364 C76.2322727,27.4963636 77.2140909,27.7913636 78.4445455,27.7913636 L81.1290909,27.7913636 C81.7845455,27.7913636 82.3136364,27.9313636 82.7181818,28.2118182 C83.1390909,28.5086364 83.3486364,29.0836364 83.3486364,29.9413636 C83.3486364,30.7813636 83.1072727,31.3581818 82.6240909,31.6690909 C82.1431818,31.9795455 81.5818182,32.1359091 80.9427273,32.1359091 L74.6840909,32.1359091 L74.6840909,33.725 L80.8736364,33.725 C82.15,33.725 83.1854545,33.4127273 83.9790909,32.7913636 C84.7745455,32.1518182 85.1704545,31.195 85.1704545,29.9163636 C85.1704545,28.64 84.8136364,27.6990909 84.0963636,27.0918182 C83.3645455,26.4845455 82.3686364,26.1809091 81.1063636,26.1809091 L78.4445455,26.1809091 Z M96.0104545,25.3622727 C96.0104545,25.5804545 95.9322727,25.7672727 95.7759091,25.9231818 C95.6195455,26.0636364 95.4331818,26.1327273 95.215,26.1327273 L95.215,26.1559091 L89.7959091,26.1559091 L89.7959091,26.1327273 C89.5631818,26.1327273 89.3677273,26.0545455 89.2118182,25.9 C89.0572727,25.7440909 88.9790909,25.5577273 88.9790909,25.3390909 L88.9790909,20.3640909 L87.1572727,20.3640909 L87.1572727,33.7945455 L88.9790909,33.7945455 L88.9790909,28.3986364 C88.9931818,28.1959091 89.0804545,28.0168182 89.2345455,27.8622727 C89.3909091,27.7059091 89.5704545,27.6277273 89.7727273,27.6277273 L95.215,27.6277273 C95.4331818,27.6277273 95.6195455,27.7059091 95.7759091,27.8622727 C95.9322727,28.0168182 96.0104545,28.205 96.0104545,28.4213636 L96.0104545,33.7945455 L97.855,33.7945455 L97.855,20.3640909 L96.0104545,20.3640909 L96.0104545,25.3622727 Z" id="Fill-3" fill="#000000"></path>
            <path d="M13.6522727,20.9409091 C13.8368182,20.9409091 13.9968182,20.8736364 14.1336364,20.7368182 C14.2704545,20.6 14.3377273,20.4368182 14.3377273,20.2468182 C14.3377273,20.0640909 14.2704545,19.9022727 14.1336364,19.7654545 C13.9968182,19.6309091 13.8368182,19.5613636 13.6522727,19.5613636 L9.51363636,19.5613636 C8.55636364,19.5613636 7.74318182,19.2259091 7.07045455,18.5527273 C6.39727273,17.88 6.06,17.065 6.06,16.1081818 C6.06,15.1563636 6.39727273,14.345 7.07045455,13.6718182 C7.74318182,12.9990909 8.55636364,12.6631818 9.51363636,12.6631818 L17.0968182,12.6631818 L17.0968182,15.4227273 L9.51363636,15.4227273 C9.32545455,15.4227273 9.16181818,15.49 9.025,15.6268182 C8.88863636,15.7636364 8.81909091,15.925 8.81909091,16.1081818 C8.81909091,16.2977273 8.88863636,16.4613636 9.025,16.5981818 C9.16181818,16.7327273 9.32545455,16.8022727 9.51363636,16.8022727 L13.6522727,16.8022727 C14.6040909,16.8022727 15.4154545,17.1377273 16.0886364,17.8109091 C16.7613636,18.4836364 17.0968182,19.2968182 17.0968182,20.2468182 C17.0968182,21.2036364 16.7613636,22.0186364 16.0886364,22.6918182 C15.4154545,23.3645455 14.6040909,23.7004545 13.6522727,23.7004545 L6.06,23.7004545 L6.06,20.9409091 L13.6522727,20.9409091 Z M26.1645455,12.6631818 C27.31,12.6631818 28.2863636,13.0663636 29.0927273,13.8727273 C29.8986364,14.6804545 30.3036364,15.6568182 30.3036364,16.8022727 C30.3036364,17.9472727 29.8986364,18.9240909 29.0927273,19.73 C28.2863636,20.5381818 27.31,20.9409091 26.1645455,20.9409091 L22.0259091,20.9409091 L22.0259091,18.1818182 L26.1645455,18.1818182 C26.5481818,18.1818182 26.8731818,18.0486364 27.1413636,17.7804545 C27.4095455,17.5122727 27.5445455,17.1859091 27.5445455,16.8022727 C27.5445455,16.4186364 27.4095455,16.0918182 27.1413636,15.8236364 C26.8731818,15.5559091 26.5481818,15.4227273 26.1645455,15.4227273 L20.6463636,15.4227273 L20.6463636,23.7004545 L17.8854545,23.7004545 L17.8854545,12.6631818 L26.1645455,12.6631818 Z" id="Fill-4" fill="#FFFFFF"></path>
        </g>
    </g>
</svg>