<?xml version="1.0" encoding="UTF-8" standalone="no"?>
<!DOCTYPE svg PUBLIC "-//W3C//DTD SVG 1.1//EN" "http://www.w3.org/Graphics/SVG/1.1/DTD/svg11.dtd">
<svg width="100%" height="100%" viewBox="0 0 1985 390" version="1.1" xmlns="http://www.w3.org/2000/svg" xmlns:xlink="http://www.w3.org/1999/xlink" xml:space="preserve" xmlns:serif="http://www.serif.com/" style="fill-rule:evenodd;clip-rule:evenodd;stroke-linejoin:round;stroke-miterlimit:1.41421;">
    <g transform="matrix(13.8889,0,0,13.8889,-1481.48,-9847.27)">
        <path d="M113.278,729.105C112.12,729.105 111.181,728.166 111.181,727.008C111.181,725.851 112.12,724.912 113.278,724.912C114.436,724.912 115.375,725.851 115.375,727.008C115.375,728.166 114.436,729.105 113.278,729.105" style="fill:rgb(21,50,83);fill-rule:nonzero;"/>
    </g>
    <g transform="matrix(13.8889,0,0,13.8889,-1481.48,-9847.27)">
        <path d="M129.488,729.105C128.33,729.105 127.392,728.166 127.392,727.008C127.392,725.851 128.33,724.912 129.488,724.912C130.646,724.912 131.585,725.851 131.585,727.008C131.585,728.166 130.646,729.105 129.488,729.105" style="fill:rgb(21,50,83);fill-rule:nonzero;"/>
    </g>
    <g transform="matrix(13.8889,0,0,13.8889,-1481.48,-9663.98)">
        <path d="M118.078,722.506C116.92,722.506 115.981,721.567 115.981,720.41C115.981,719.252 116.92,718.313 118.078,718.313C119.236,718.313 120.174,719.252 120.174,720.41C120.174,721.567 119.236,722.506 118.078,722.506" style="fill:rgb(21,50,83);fill-rule:nonzero;"/>
    </g>
    <g transform="matrix(13.8889,0,0,13.8889,-1481.48,-9663.98)">
        <path d="M129.488,722.506L124.973,722.506C123.815,722.506 122.876,721.567 122.876,720.41C122.876,719.252 123.815,718.313 124.973,718.313L129.488,718.313C130.646,718.313 131.585,719.252 131.585,720.41C131.585,721.567 130.646,722.506 129.488,722.506" style="fill:rgb(21,50,83);fill-rule:nonzero;"/>
    </g>
    <g transform="matrix(13.8889,0,0,13.8889,-1481.48,-9663.98)">
        <path d="M111.182,722.506L108.763,722.506C107.605,722.506 106.667,721.567 106.667,720.41C106.667,719.252 107.605,718.313 108.763,718.313L111.182,718.313C112.34,718.313 113.279,719.252 113.279,720.41C113.279,721.567 112.34,722.506 111.182,722.506" style="fill:rgb(21,50,83);fill-rule:nonzero;"/>
    </g>
    <g transform="matrix(13.8889,0,0,13.8889,-1481.48,-9847.27)">
        <path d="M122.593,729.105L120.174,729.105C119.016,729.105 118.078,728.166 118.078,727.008C118.078,725.851 119.016,724.912 120.174,724.912L122.593,724.912C123.751,724.912 124.69,725.851 124.69,727.008C124.69,728.166 123.751,729.105 122.593,729.105" style="fill:rgb(21,50,83);fill-rule:nonzero;"/>
    </g>
    <g transform="matrix(13.8889,0,0,13.8889,-1481.48,-10030.6)">
        <path d="M120.174,735.703C119.016,735.703 118.077,734.765 118.077,733.607C118.077,732.449 119.016,731.511 120.174,731.511C121.332,731.511 122.27,732.449 122.27,733.607C122.27,734.765 121.332,735.703 120.174,735.703" style="fill:rgb(0,186,178);fill-rule:nonzero;"/>
    </g>
    <g transform="matrix(13.8889,0,0,13.8889,-1481.48,-10030.6)">
        <path d="M129.488,735.703L127.069,735.703C125.912,735.703 124.973,734.764 124.973,733.607C124.973,732.449 125.912,731.511 127.069,731.511L129.488,731.511C130.646,731.511 131.585,732.449 131.585,733.607C131.585,734.764 130.646,735.703 129.488,735.703" style="fill:rgb(21,50,83);fill-rule:nonzero;"/>
    </g>
    <g transform="matrix(13.8889,0,0,13.8889,-1481.48,-9924.66)">
        <path d="M248.961,739.169C247.99,739.337 246.923,739.309 246.174,739.092C245.674,738.95 245.247,738.678 244.907,738.283C244.587,737.914 244.345,737.419 244.187,736.816C244.038,736.254 243.966,735.548 243.966,734.658L243.966,725.923L248.755,725.923L248.755,723.047L243.966,723.047L243.966,717.237L237.17,725.923L239.824,725.923L239.824,735.886C239.824,738.198 240.384,739.866 241.488,740.844C242.617,741.844 244.312,742.351 246.526,742.351C247.36,742.351 248.748,742.153 249.524,742.032L249.23,739.122L248.961,739.169Z" style="fill:rgb(21,50,83);fill-rule:nonzero;"/>
    </g>
    <g transform="matrix(13.8889,0,0,13.8889,-1481.48,-9847.28)">
        <path d="M151.593,727.192C151.228,726.804 150.779,726.473 150.26,726.207C149.71,725.926 149.08,725.684 148.387,725.486L146.123,724.81C145.385,724.574 144.827,724.326 144.411,724.048C143.849,723.674 143.565,723.066 143.565,722.239C143.565,721.386 143.96,720.698 144.678,720.3C145.291,719.961 146.088,719.797 147.116,719.797C148.015,719.797 148.886,719.904 149.706,720.117C150.122,720.224 150.682,720.409 151.157,720.574L151.916,717.878C151.283,717.689 150.218,717.381 149.601,717.266C148.64,717.09 147.657,717 146.68,717C144.373,717 142.54,717.523 141.236,718.553C139.963,719.556 139.344,720.917 139.344,722.713C139.344,724.176 139.695,725.268 140.385,725.959C141.128,726.701 142.191,727.274 143.547,727.661L146.004,728.375C146.782,728.615 147.376,728.889 147.824,729.214C148.396,729.628 148.686,730.279 148.686,731.146C148.686,731.771 148.499,732.295 148.13,732.704C147.816,733.051 147.428,733.334 146.975,733.543C146.547,733.742 146.077,733.881 145.577,733.956C145.11,734.027 144.668,734.064 144.266,734.064C143.373,734.064 142.503,733.971 141.68,733.789C141.22,733.689 140.472,733.451 139.838,733.239L139.053,736.163C139.361,736.269 139.716,736.387 139.938,736.449C140.391,736.573 140.858,736.683 141.328,736.772C141.787,736.859 142.273,736.921 142.774,736.96C143.282,736.998 143.851,737.017 144.463,737.017C145.783,737.017 146.977,736.849 148.009,736.517C149.031,736.188 149.909,735.734 150.619,735.171C151.31,734.619 151.845,733.962 152.206,733.216C152.566,732.472 152.749,731.655 152.749,730.79C152.749,729.927 152.643,729.194 152.434,728.612C152.23,728.047 151.947,727.569 151.593,727.192" style="fill:rgb(21,50,83);fill-rule:nonzero;"/>
    </g>
    <g transform="matrix(13.8889,0,0,13.8889,-1481.48,-9847.28)">
        <path d="M171.424,719.861C170.678,718.982 169.722,718.279 168.584,717.772C167.441,717.26 166.072,717 164.516,717C162.961,717 161.599,717.26 160.47,717.77C159.345,718.278 158.403,718.98 157.67,719.857C156.928,720.746 156.359,721.816 155.981,723.039C155.595,724.284 155.398,725.639 155.398,727.069C155.398,728.496 155.594,729.837 155.979,731.052C156.357,732.252 156.927,733.311 157.67,734.199C158.401,735.076 159.341,735.77 160.463,736.265C161.597,736.764 162.96,737.017 164.516,737.017C166.073,737.017 167.444,736.763 168.59,736.263C169.725,735.769 170.679,735.073 171.423,734.195C172.175,733.312 172.743,732.257 173.109,731.06C173.483,729.839 173.673,728.496 173.673,727.069C173.673,725.639 173.483,724.281 173.107,723.033C172.743,721.815 172.176,720.748 171.424,719.861M168.305,732.155C167.527,733.474 166.251,734.142 164.516,734.142C162.806,734.142 161.543,733.473 160.766,732.154C160.058,730.958 159.699,729.246 159.699,727.069C159.699,724.892 160.058,723.181 160.766,721.983C161.544,720.664 162.806,719.995 164.516,719.995C166.251,719.995 167.527,720.663 168.305,721.982C169.014,723.182 169.373,724.894 169.373,727.069C169.373,729.244 169.014,730.956 168.305,732.155" style="fill:rgb(21,50,83);fill-rule:nonzero;"/>
    </g>
    <g transform="matrix(13.8889,0,0,13.8889,-1481.48,-9847.27)">
        <path d="M201.674,719.578C200.965,718.784 200.09,718.149 199.077,717.69C198.063,717.232 196.882,717 195.565,717C194.039,717 192.693,717.265 191.564,717.788C190.437,718.309 189.478,719.028 188.715,719.922C187.947,720.824 187.361,721.901 186.97,723.124C186.571,724.369 186.368,725.722 186.368,727.147C186.368,728.598 186.565,729.953 186.95,731.172C187.327,732.362 187.915,733.4 188.698,734.256C189.479,735.108 190.509,735.787 191.76,736.272C193.033,736.766 194.593,737.017 196.397,737.017C198.672,737.017 200.758,736.695 202.601,736.062C202.456,735.24 202.096,733.906 201.846,733.139C201.161,733.36 200.445,733.541 199.71,733.675C198.737,733.854 197.768,733.943 196.832,733.943C195.054,733.943 193.586,733.54 192.468,732.745C191.29,731.909 190.632,730.573 190.513,728.778L190.463,728.03L203.745,728.03C203.762,727.872 203.779,727.698 203.794,727.507C203.832,727.039 203.852,726.559 203.852,726.078C203.852,724.788 203.663,723.563 203.293,722.437C202.929,721.335 202.385,720.373 201.674,719.578M190.479,725.511L190.554,724.743C190.7,723.248 191.174,722.059 191.965,721.208C192.786,720.324 193.971,719.876 195.487,719.876C196.859,719.876 197.953,720.353 198.736,721.296C199.48,722.192 199.887,723.365 199.946,724.782L199.976,725.511L190.479,725.511Z" style="fill:rgb(21,50,83);fill-rule:nonzero;"/>
    </g>
    <g transform="matrix(13.8889,0,0,13.8889,-1481.48,-9956.56)">
        <path d="M223.282,727.18C222.618,726.41 221.821,725.827 220.911,725.449C219.015,724.66 216.658,724.7 215.021,725.489C212.772,726.573 212.029,727.906 212.029,727.906L212.029,716.873L207.847,716.873L207.847,743.938C208.201,744.054 208.578,744.158 208.971,744.251C209.546,744.389 210.164,744.505 210.807,744.596C211.438,744.685 212.084,744.757 212.727,744.81C215.249,745.013 217.364,744.8 219.184,744.154C220.537,743.674 221.692,742.986 222.618,742.108C223.541,741.236 224.255,740.156 224.743,738.9C225.237,737.628 225.488,736.162 225.488,734.542C225.488,732.856 225.287,731.385 224.889,730.167C224.497,728.968 223.956,727.963 223.282,727.18M219.366,739.899C218.257,741.038 216.73,741.616 214.827,741.616C214.438,741.616 214.058,741.601 213.686,741.573C213.274,741.543 212.876,741.464 212.506,741.341L212.029,741.182L212.029,733.235C212.029,731.55 212.434,730.274 213.234,729.444C214.041,728.606 215.082,728.18 216.331,728.18C218.035,728.18 219.275,728.792 220.016,729.999C220.689,731.095 221.03,732.677 221.03,734.7C221.03,737.015 220.47,738.764 219.366,739.899" style="fill:rgb(21,50,83);fill-rule:nonzero;"/>
    </g>
    <g transform="matrix(13.8889,0,0,13.8889,-1481.48,-9847.27)">
        <path d="M229.785,736.542L233.887,736.542L233.887,717.475L228.03,717.475L228.03,720.351L229.785,720.351L229.785,736.542Z" style="fill:rgb(21,50,83);fill-rule:nonzero;"/>
    </g>
    <g transform="matrix(13.8889,0,0,13.8889,-1481.48,-9961.63)">
        <path d="M184.304,741.856C184.051,741.824 183.811,741.778 183.594,741.705C183.137,741.555 182.761,741.275 182.475,740.875C182.216,740.513 182.03,740.025 181.921,739.426C181.819,738.881 181.771,738.191 181.771,737.32L181.771,717.237L177.588,717.237L177.588,738.548C177.588,740.864 178.131,742.536 179.202,743.513C180.29,744.509 181.776,745.013 183.618,745.013C183.905,745.013 184.219,745 184.544,744.981L184.304,741.856Z" style="fill:rgb(21,50,83);fill-rule:nonzero;"/>
    </g>
</svg>
