<?xml version="1.0" encoding="UTF-8" standalone="no"?>
<!DOCTYPE svg PUBLIC "-//W3C//DTD SVG 1.1//EN" "http://www.w3.org/Graphics/SVG/1.1/DTD/svg11.dtd">
<svg width="100%" height="100%" viewBox="0 0 1834 544" version="1.1" xmlns="http://www.w3.org/2000/svg" xmlns:xlink="http://www.w3.org/1999/xlink" xml:space="preserve" xmlns:serif="http://www.serif.com/" style="fill-rule:evenodd;clip-rule:evenodd;stroke-linejoin:round;stroke-miterlimit:1.41421;">
    <g transform="matrix(13.8889,0,0,13.8889,195.625,205.758)">
        <path d="M0,8.902C0,9.779 -0.186,10.589 -0.557,11.333C-0.928,12.077 -1.446,12.708 -2.11,13.225C-2.773,13.744 -3.561,14.149 -4.476,14.441C-5.392,14.733 -6.393,14.878 -7.481,14.878C-8.782,14.878 -9.948,14.7 -10.983,14.344C-12.017,13.987 -13.051,13.398 -14.085,12.577L-12.375,9.796C-11.553,10.485 -10.811,10.989 -10.147,11.307C-9.485,11.626 -8.808,11.784 -8.117,11.784C-7.269,11.784 -6.587,11.566 -6.069,11.128C-5.552,10.689 -5.293,10.099 -5.293,9.356C-5.293,9.037 -5.34,8.737 -5.432,8.459C-5.525,8.181 -5.697,7.895 -5.949,7.602C-6.2,7.311 -6.544,6.992 -6.982,6.648C-7.419,6.303 -7.982,5.877 -8.67,5.373C-9.2,5.001 -9.717,4.617 -10.22,4.219C-10.724,3.82 -11.18,3.395 -11.591,2.944C-12.002,2.492 -12.333,1.989 -12.585,1.431C-12.837,0.872 -12.962,0.236 -12.962,-0.48C-12.962,-1.303 -12.79,-2.054 -12.446,-2.731C-12.103,-3.408 -11.633,-3.985 -11.037,-4.462C-10.442,-4.941 -9.728,-5.312 -8.894,-5.577C-8.061,-5.843 -7.155,-5.976 -6.176,-5.976C-5.143,-5.976 -4.143,-5.838 -3.174,-5.561C-2.207,-5.284 -1.312,-4.883 -0.489,-4.356L-2.041,-1.858C-3.101,-2.6 -4.215,-2.971 -5.383,-2.971C-6.098,-2.971 -6.689,-2.785 -7.153,-2.413C-7.617,-2.041 -7.849,-1.578 -7.849,-1.019C-7.849,-0.488 -7.644,-0.009 -7.234,0.416C-6.826,0.841 -6.119,1.439 -5.113,2.208C-4.101,2.952 -3.262,3.603 -2.597,4.161C-1.931,4.719 -1.406,5.244 -1.02,5.734C-0.633,6.226 -0.367,6.725 -0.22,7.229C-0.075,7.734 0,8.291 0,8.902" style="fill-rule:nonzero;"/>
    </g>
    <g transform="matrix(13.8889,0,0,13.8889,517.236,405.103)">
        <path d="M0,-10.34C0,-8.774 -0.24,-7.334 -0.719,-6.021C-1.199,-4.707 -1.863,-3.56 -2.715,-2.579C-3.568,-1.596 -4.578,-0.834 -5.75,-0.289C-6.921,0.253 -8.186,0.525 -9.543,0.525C-10.156,0.525 -10.728,0.473 -11.261,0.367C-11.793,0.26 -12.298,0.08 -12.778,-0.171C-13.257,-0.423 -13.73,-0.749 -14.195,-1.148C-14.661,-1.547 -15.147,-2.039 -15.652,-2.623L-15.652,9.989L-20.766,9.989L-20.766,-19.851L-15.652,-19.851L-15.624,-16.947C-14.694,-18.114 -13.684,-18.97 -12.595,-19.514C-11.506,-20.057 -10.243,-20.329 -8.808,-20.329C-7.506,-20.329 -6.318,-20.083 -5.242,-19.593C-4.166,-19.102 -3.236,-18.419 -2.451,-17.543C-1.668,-16.667 -1.063,-15.619 -0.638,-14.398C-0.213,-13.178 0,-11.825 0,-10.34M-5.561,-10.138C-5.561,-12.315 -6.002,-14.035 -6.884,-15.297C-7.765,-16.558 -8.967,-17.19 -10.489,-17.19C-12.092,-17.19 -13.36,-16.519 -14.295,-15.178C-15.23,-13.836 -15.698,-12.023 -15.698,-9.74C-15.698,-7.509 -15.237,-5.756 -14.316,-4.482C-13.394,-3.205 -12.132,-2.569 -10.529,-2.569C-9.568,-2.569 -8.774,-2.814 -8.146,-3.305C-7.518,-3.797 -7.011,-4.421 -6.623,-5.177C-6.236,-5.934 -5.963,-6.758 -5.802,-7.648C-5.642,-8.538 -5.561,-9.367 -5.561,-10.138" style="fill-rule:nonzero;"/>
    </g>
    <g transform="matrix(13.8889,0,0,13.8889,-2000.01,-5024.99)">
        <rect x="183.517" y="361.799" width="5.248" height="29.201"/>
    </g>
    <g transform="matrix(13.8889,0,0,13.8889,860.151,135.688)">
        <path d="M0,19.44L-0.013,16.775C-1.023,17.891 -2.059,18.694 -3.122,19.186C-4.185,19.678 -5.42,19.923 -6.829,19.923C-8.397,19.923 -9.718,19.612 -10.795,18.988C-11.871,18.363 -12.648,17.44 -13.126,16.218C-13.259,15.926 -13.359,15.62 -13.425,15.301C-13.492,14.982 -13.552,14.617 -13.605,14.205C-13.658,13.793 -13.691,13.321 -13.704,12.79C-13.718,12.259 -13.724,11.607 -13.724,10.836L-13.724,-0.483L-8.477,-0.483L-8.477,10.915C-8.477,11.926 -8.43,12.696 -8.337,13.228C-8.244,13.758 -8.077,14.238 -7.837,14.661C-7.224,15.779 -6.144,16.336 -4.598,16.336C-2.625,16.336 -1.265,15.513 -0.52,13.865C-0.334,13.44 -0.2,12.968 -0.12,12.45C-0.039,11.932 0,11.196 0,10.239L0,-0.483L5.248,-0.483L5.248,19.44L0,19.44Z" style="fill-rule:nonzero;"/>
    </g>
    <g transform="matrix(13.8889,0,0,13.8889,1174.51,122.76)">
        <path d="M0,20.362L0,8.994C0,7.987 -0.046,7.218 -0.14,6.688C-0.232,6.159 -0.4,5.681 -0.638,5.257C-1.251,4.144 -2.331,3.587 -3.877,3.587C-4.864,3.587 -5.711,3.793 -6.417,4.204C-7.123,4.614 -7.65,5.217 -7.996,6.012C-8.184,6.463 -8.31,6.946 -8.377,7.463C-8.443,7.979 -8.476,8.702 -8.476,9.629L-8.476,20.362L-13.769,20.362L-13.769,0.484L-8.476,0.484L-8.466,3.149C-7.455,2.034 -6.42,1.228 -5.356,0.738C-4.294,0.245 -3.057,0 -1.649,0C-0.081,0 1.241,0.325 2.318,0.974C3.394,1.624 4.172,2.545 4.65,3.737C4.756,4.03 4.85,4.328 4.929,4.633C5.009,4.939 5.075,5.289 5.128,5.686C5.182,6.084 5.214,6.555 5.228,7.098C5.241,7.642 5.249,8.298 5.249,9.067L5.249,20.362L0,20.362Z" style="fill-rule:nonzero;"/>
    </g>
    <g transform="matrix(13.8889,0,0,13.8889,1481.24,0.0805556)">
        <path d="M0,29.598L-7.916,18.618L-7.916,29.201L-13.209,29.201L-13.209,0L-7.916,0L-7.916,17.146L-7.359,17.146L-0.319,8.991L3.66,10.701L-3.104,17.942L4.894,27.887L0,29.598Z" style="fill-rule:nonzero;"/>
    </g>
    <g transform="matrix(13.8889,0,0,13.8889,1612.31,132.099)">
        <path d="M0,19.151L0,15.655L12.332,9.575L0,3.575L0,0L15.913,7.986L15.913,11.244L0,19.151Z" style="fill:rgb(152,152,152);fill-rule:nonzero;"/>
    </g>
    <g transform="matrix(13.8889,0,0,13.8889,1629.07,86.3)">
        <path d="M0,-0.135L0.231,-0.135C0.492,-0.135 0.715,-0.23 0.715,-0.477C0.715,-0.651 0.588,-0.826 0.231,-0.826C0.127,-0.826 0.055,-0.818 0,-0.81L0,-0.135ZM0,0.969L-0.318,0.969L-0.318,-1.024C-0.151,-1.048 0.008,-1.072 0.246,-1.072C0.548,-1.072 0.746,-1.009 0.865,-0.921C0.984,-0.833 1.048,-0.699 1.048,-0.508C1.048,-0.246 0.873,-0.087 0.659,-0.024L0.659,-0.008C0.834,0.024 0.953,0.183 0.993,0.476C1.04,0.786 1.088,0.905 1.119,0.969L0.786,0.969C0.738,0.905 0.691,0.722 0.651,0.461C0.603,0.207 0.476,0.111 0.222,0.111L0,0.111L0,0.969ZM0.333,-1.58C-0.453,-1.58 -1.096,-0.905 -1.096,-0.071C-1.096,0.778 -0.453,1.445 0.342,1.445C1.136,1.453 1.77,0.778 1.77,-0.064C1.77,-0.905 1.136,-1.58 0.342,-1.58L0.333,-1.58ZM0.342,-1.858C1.318,-1.858 2.097,-1.064 2.097,-0.071C2.097,0.937 1.318,1.723 0.333,1.723C-0.643,1.723 -1.437,0.937 -1.437,-0.071C-1.437,-1.064 -0.643,-1.858 0.333,-1.858L0.342,-1.858Z" style="fill:rgb(151,151,151);fill-rule:nonzero;"/>
    </g>
</svg>
