<?xml version="1.0" encoding="UTF-8" standalone="no"?>
<!DOCTYPE svg PUBLIC "-//W3C//DTD SVG 1.1//EN" "http://www.w3.org/Graphics/SVG/1.1/DTD/svg11.dtd">
<svg width="100%" height="100%" viewBox="0 0 927 245" version="1.1" xmlns="http://www.w3.org/2000/svg" xmlns:xlink="http://www.w3.org/1999/xlink" xml:space="preserve" xmlns:serif="http://www.serif.com/" style="fill-rule:evenodd;clip-rule:evenodd;stroke-linejoin:round;stroke-miterlimit:1.41421;">
    <g id="Layer-1" serif:id="Layer 1" transform="matrix(4.16667,0,0,4.16667,-1189.87,-1148.86)">
        <g transform="matrix(1,0,0,1,350.767,294.767)">
            <path d="M0,28.626C-5.147,28.626 -8.428,26.667 -9.923,25.499L-10.078,25.38L-9.973,25.214L-7.827,21.858L-7.704,21.665L-7.518,21.802C-6.269,22.718 -3.642,24.257 -0.079,24.257C2.982,24.257 4.738,22.927 4.738,20.61C4.738,18.062 2.672,17.335 -1.075,16.017L-1.517,15.86C-5.276,14.552 -8.757,12.642 -8.757,7.545C-8.757,2.96 -5.228,0 0.233,0C3.47,0 5.985,0.59 8.145,1.861L8.315,1.961L8.229,2.139L6.513,5.689L6.417,5.889L6.219,5.788C4.378,4.845 2.391,4.367 0.313,4.367C-1.636,4.367 -3.958,4.899 -3.958,7.428C-3.958,9.904 -2.13,10.507 1.51,11.709C5.468,12.999 9.691,14.853 9.691,20.534C9.691,25.601 6.069,28.626 0,28.626" style="fill:rgb(35,31,32);fill-rule:nonzero;"/>
        </g>
        <g transform="matrix(1,0,0,1,364.336,302.721)">
            <path d="M0,27.574C-0.941,27.574 -1.834,27.465 -2.895,27.22L-3.09,27.176L-3.059,26.976L-2.551,23.66L-2.521,23.453L-2.313,23.478L-1.982,23.519C-1.475,23.582 -1.074,23.635 -0.506,23.635C1.4,23.635 2.619,22.912 3.435,21.299L-3.713,0.285L-3.811,0L1.49,0L1.537,0.157L5.685,15.008L9.388,0.163L9.427,0L14.45,0L14.365,0.28L8.009,21.066C6.662,25.508 4.115,27.574 0,27.574" style="fill:rgb(35,31,32);fill-rule:nonzero;"/>
        </g>
        <g transform="matrix(1,0,0,1,407.894,302.292)">
            <path d="M0,20.751L-0.215,20.751L-4.896,20.751L-5.111,20.751L-5.111,20.536L-5.111,7.157C-5.111,5.462 -5.461,4.33 -7.156,4.33C-8.325,4.33 -9.692,5.028 -11.115,6.355L-11.115,20.751L-11.33,20.751L-16.01,20.751L-16.225,20.751L-16.225,20.536L-16.225,7.157C-16.225,5.462 -16.574,4.33 -18.272,4.33C-19.516,4.33 -20.955,5.093 -22.23,6.427L-22.23,20.751L-22.445,20.751L-27.126,20.751L-27.341,20.751L-27.341,20.536L-27.341,0.645L-27.341,0.43L-24.123,0.43L-24.076,0.579L-23.174,3.345C-21.059,1.093 -18.916,0 -16.635,0C-13.739,0 -12.557,1.58 -11.885,3.069C-10.457,1.615 -8.255,0 -5.52,0C-0.957,0 0,3.913 0,7.196L0,20.751Z" style="fill:rgb(35,31,32);fill-rule:nonzero;"/>
        </g>
        <g transform="matrix(1,0,0,1,421.62,312.267)">
            <path d="M0,1.151C-3.346,1.801 -4.994,2.411 -5.66,3.245C-6.074,3.725 -6.2,4.122 -6.2,4.944C-6.2,6.46 -5.385,7.262 -3.843,7.262C-2.566,7.262 -1.14,6.723 0,5.815L0,1.151ZM-4.896,11.126C-8.648,11.126 -11.271,8.712 -11.271,5.256C-11.271,3.034 -10.498,1.475 -8.838,0.356C-7.144,-0.798 -4.328,-1.634 0,-2.263L0,-2.779C0,-5.009 -0.809,-5.839 -2.984,-5.839C-4.846,-5.839 -6.719,-5.062 -8.467,-4.222L-8.653,-4.13L-8.75,-4.316L-10.389,-7.396L-10.483,-7.574L-10.313,-7.682C-7.738,-9.268 -5.348,-9.975 -2.555,-9.975C2.461,-9.975 5.11,-7.38 5.11,-2.466L5.11,10.774L4.895,10.774L2.047,10.774L1.904,10.774L1.849,10.643L0.996,8.669C-0.277,9.837 -2.275,11.126 -4.896,11.126" style="fill:rgb(35,31,32);fill-rule:nonzero;"/>
        </g>
        <g transform="matrix(1,0,0,1,447.788,302.292)">
            <path d="M0,20.751L-0.215,20.751L-4.895,20.751L-5.109,20.751L-5.109,20.536L-5.109,7.157C-5.109,5.177 -5.805,4.33 -7.428,4.33C-8.791,4.33 -10.391,5.147 -11.621,6.464L-11.621,20.751L-11.837,20.751L-16.517,20.751L-16.732,20.751L-16.732,20.536L-16.732,0.645L-16.732,0.43L-13.512,0.43L-13.465,0.579L-12.564,3.38C-10.459,1.106 -8.242,0 -5.792,0C-1.947,0 0,2.421 0,7.196L0,20.751Z" style="fill:rgb(35,31,32);fill-rule:nonzero;"/>
        </g>
        <g transform="matrix(1,0,0,1,458.456,297.026)">
            <path d="M0,26.367C-4.004,26.367 -5.948,24.385 -5.948,20.301L-5.948,9.363L-8.699,9.363L-8.914,9.363L-8.914,9.148L-8.914,5.911L-8.914,5.697L-5.841,5.697L-4.934,0.181L-4.904,0L-0.838,0L-0.838,5.697L3.451,5.697L3.451,9.363L3.236,9.363L-0.838,9.363L-0.838,20.029C-0.838,21.769 -0.541,22.388 1.131,22.388C1.637,22.388 2.434,22.242 3.213,22.006L3.445,21.935L3.488,22.174L4.074,25.412L4.104,25.586L3.941,25.652C3.412,25.867 1.969,26.367 0,26.367" style="fill:rgb(35,31,32);fill-rule:nonzero;"/>
        </g>
        <g transform="matrix(1,0,0,1,468.672,314.579)">
            <path d="M0,-3.473L6.916,-3.473C6.798,-6.828 5.698,-8.463 3.552,-8.463C1.448,-8.463 0.284,-6.828 0,-3.473M3.901,8.814C-1.788,8.814 -5.323,4.832 -5.323,-1.58C-5.323,-8.085 -1.841,-12.287 3.552,-12.287C9.017,-12.287 12.15,-8.37 12.15,-1.541L12.15,-0.116L11.936,-0.116L-0.041,-0.116C0.238,3.17 1.567,4.64 4.253,4.64C6.45,4.64 7.902,3.826 9.441,2.841L9.623,2.726L9.739,2.908L11.61,5.832L11.716,5.998L11.562,6.119C9.656,7.593 7.767,8.814 3.901,8.814" style="fill:rgb(35,31,32);fill-rule:nonzero;"/>
        </g>
        <g transform="matrix(1,0,0,1,492.151,302.292)">
            <path d="M0,21.101C-6.773,21.101 -9.187,15.732 -9.187,10.706C-9.187,5.769 -6.781,0 0,0C2.797,0 4.75,0.668 6.537,2.238L6.682,2.364L6.572,2.523L4.428,5.605L4.3,5.787L4.12,5.654C2.999,4.812 1.876,4.252 0.039,4.252C-2.587,4.252 -3.919,6.412 -3.919,10.667C-3.919,14.853 -2.585,16.888 0.155,16.888C1.965,16.888 3.14,16.206 4.344,15.183L4.516,15.037L4.653,15.216L6.877,18.064L6.992,18.212L6.862,18.347C5.027,20.226 2.848,21.101 0,21.101" style="fill:rgb(35,31,32);fill-rule:nonzero;"/>
        </g>
        <g transform="matrix(1,0,0,1,310.951,326.315)">
            <path d="M0,-34.706C-4.631,-34.706 -8.988,-32.901 -12.27,-29.624C-15.547,-26.345 -17.354,-21.987 -17.354,-17.355C-17.354,-12.722 -15.547,-8.363 -12.269,-5.081C-8.99,-1.808 -4.632,-0.001 0,-0.001C4.635,-0.001 8.992,-1.808 12.273,-5.085C15.547,-8.363 17.354,-12.722 17.354,-17.355C17.354,-21.987 15.547,-26.345 12.272,-29.626C8.99,-32.901 4.631,-34.706 0,-34.706M0,8.03C-13.992,8.028 -25.381,-3.359 -25.383,-17.355C-25.381,-31.349 -13.992,-42.735 0,-42.736C13.994,-42.735 25.383,-31.349 25.383,-17.355C25.383,-3.359 13.994,8.028 0,8.03" style="fill:rgb(253,187,48);fill-rule:nonzero;"/>
        </g>
        <g transform="matrix(1,0,0,1,504.827,322.719)">
            <path d="M0,-3.061L0.948,-3.061L1.557,-0.829L2.135,-3.061L3.083,-3.061L3.083,0L2.462,0L2.462,-2.342L1.808,0L1.241,0L0.599,-2.342L0.599,0L0,0L0,-3.061ZM-2.026,-2.561L-2.822,-2.561L-2.822,-3.061L-0.611,-3.061L-0.611,-2.561L-1.395,-2.561L-1.395,0L-2.026,0L-2.026,-2.561Z" style="fill:rgb(35,31,32);fill-rule:nonzero;"/>
        </g>
        <g transform="matrix(-1,-0,-0,1,679.184,-50.682)">
            <rect x="338.602" y="330.352" width="1.98" height="1.978" style="fill:rgb(253,187,48);"/>
        </g>
        <g transform="matrix(-1,-0,-0,1,679.184,-58.566)">
            <rect x="338.602" y="334.292" width="1.98" height="1.982" style="fill:rgb(253,187,48);"/>
        </g>
        <g transform="matrix(-1,-0,-0,1,667.916,-46.799)">
            <rect x="333.033" y="328.433" width="1.85" height="1.933" style="fill:rgb(253,187,48);"/>
        </g>
        <g transform="matrix(-1,-0,-0,1,660.602,-39.293)">
            <rect x="329.369" y="324.723" width="1.864" height="1.847" style="fill:rgb(35,31,32);"/>
        </g>
        <g transform="matrix(-1,-0,-0,1,671.838,-43.002)">
            <rect x="334.883" y="326.57" width="2.072" height="1.862" style="fill:rgb(35,31,32);"/>
        </g>
        <g transform="matrix(1,0,0,1,0,-42.911)">
            <rect x="327.514" y="326.57" width="1.855" height="1.771" style="fill:rgb(35,31,32);"/>
        </g>
        <g transform="matrix(-1,-0,-0,1,667.916,-39.293)">
            <rect x="333.033" y="324.723" width="1.85" height="1.847" style="fill:rgb(35,31,32);"/>
        </g>
        <g transform="matrix(-1,-0,-0,1,675.247,-54.622)">
            <rect x="336.645" y="332.33" width="1.957" height="1.962" style="fill:rgb(35,31,32);"/>
        </g>
        <g transform="matrix(-1,-0,-0,1,669.679,-50.696)">
            <rect x="333.034" y="330.366" width="3.611" height="1.964" style="fill:rgb(35,31,32);"/>
        </g>
        <g transform="matrix(1,0,0,1,0,-44.936)">
            <rect x="331.233" y="326.57" width="1.8" height="3.796" style="fill:rgb(35,31,32);"/>
        </g>
        <g transform="matrix(1,0,0,1,331.233,320.249)">
            <path d="M0,-32.972L0,-31.11L-1.864,-31.11L-1.864,-32.972L-4.956,-32.972L-4.956,-31.629L-6.614,-31.629L-6.614,-29.974L-4.763,-29.974L-4.763,-28.129L-6.614,-28.129L-6.614,-29.974L-8.579,-29.974L-8.579,-27.08L-10.44,-27.08L-10.44,-25.235L-11.676,-25.235L-11.676,-23.38L-13.032,-23.38C-14.558,-21.113 -18.378,-14.046 -19.534,-11.166C-23.696,-16.96 -26.929,-19.258 -29.475,-20.089C-30.85,-20.503 -32.504,-19.007 -30.222,-16.654C-24.983,-10.892 -23.333,-6.123 -21.741,-2.316C-20.899,-0.31 -17.122,0 -16.362,-2.041C-14.75,-6.361 -12.413,-11.213 -9.646,-15.198L-9.646,-17.263L-8.168,-17.263L-8.168,-19.124L-6.614,-19.124L-6.614,-21.283L-4.756,-21.283L-4.756,-23.362L-6.634,-23.362L-6.634,-25.253L-4.756,-25.253L-4.756,-23.362L-2.919,-23.362L-2.925,-25.235L-1.45,-25.235L-1.45,-27.493L0.205,-27.493L0.205,-29.048L1.8,-29.048L1.8,-32.972L0,-32.972Z" style="fill:rgb(35,31,32);fill-rule:nonzero;"/>
        </g>
    </g>
</svg>
