<?xml version="1.0" encoding="utf-8"?>
<!-- Generator: Adobe Illustrator 23.0.2, SVG Export Plug-In . SVG Version: 6.00 Build 0)  -->
<svg version="1.1" id="Layer_1" xmlns:serif="http://www.serif.com/"
	 xmlns="http://www.w3.org/2000/svg" xmlns:xlink="http://www.w3.org/1999/xlink" x="0px" y="0px" viewBox="0 0 792 612"
	 style="enable-background:new 0 0 792 612;" xml:space="preserve">
<style type="text/css">
	.st0{clip-path:url(#SVGID_2_);}
	.st1{fill:#010A14;}
	.st2{fill-rule:evenodd;clip-rule:evenodd;fill:#010A14;}
</style>
<g transform="matrix(1,0,0,1,0,294.5)">
	<g transform="matrix(9.9533,0,0,9.9533,5.22323,-287.101)">
		<g>
			<defs>
				<rect id="SVGID_1_" x="-354.8" y="-111.9" width="788.3" height="277.6"/>
			</defs>
			<clipPath id="SVGID_2_">
				<use xlink:href="#SVGID_1_"  style="overflow:visible;"/>
			</clipPath>
			<g class="st0">
				<path class="st1" d="M19.6,33.7l1-2.8l1.9-5.2l2-5.4c-0.4-0.7-1-1.3-1.8-1.5c-1.2-0.4-2.6-0.1-3.4,0.7c-0.1-1.2-0.9-2.3-2.1-2.7
					c-1-0.4-2.1-0.2-2.9,0.3c3.1-3.5,8.1-5,12.7-3.5l0.4-0.4c0.1-0.1,0.3,0,0.3,0.1l0.1,0.6c4.6,1.8,7.4,6.1,7.7,10.8
					c-0.3-0.8-1-1.5-1.9-1.9c-1.2-0.5-2.6-0.1-3.4,0.7c-0.1-1.2-0.9-2.3-2.1-2.7c-0.9-0.3-1.8-0.3-2.5,0.1l-2.1,5.8L22.7,29l-1,2.7
					c0,0,0,0,0,0l-2.9,7.9c-0.1,0.2-0.2,0.4-0.4,0.6c-0.2,0.1-0.4,0.2-0.6,0.2c-0.2,0-0.5-0.1-0.6-0.2c-0.2-0.1-0.3-0.3-0.4-0.6
					l-4.8-12.8l-0.1-0.2c0-0.1,0-0.1,0-0.2c0-0.2,0.1-0.4,0.2-0.5c0.1-0.1,0.3-0.2,0.5-0.2c0.1,0,0.3,0,0.4,0.1
					c0.1,0.1,0.2,0.2,0.3,0.4l2.7,7.3l1.8,5.1L19.6,33.7z"/>
				<path class="st2" d="M48.7,33.3l0.1,5h0l-8.1-12c-0.1-0.1-0.2-0.3-0.3-0.4c-0.1-0.1-0.3-0.2-0.5-0.2c-0.2,0-0.4,0.1-0.6,0.2
					c-0.1,0.2-0.2,0.4-0.2,0.7v13c0,0.2,0.1,0.4,0.2,0.5c0.1,0.1,0.3,0.2,0.4,0.2c0.2,0,0.4-0.1,0.5-0.2c0.1-0.1,0.2-0.3,0.2-0.5
					v-6.8l-0.1-5h0l8,11.9c0.1,0.2,0.2,0.3,0.4,0.4c0.1,0.1,0.3,0.2,0.6,0.2c0.3,0,0.5-0.1,0.6-0.2c0.1-0.2,0.2-0.4,0.2-0.7V26.5
					c0-0.2-0.1-0.4-0.2-0.5c-0.1-0.1-0.3-0.2-0.5-0.2c-0.2,0-0.4,0.1-0.5,0.2c-0.1,0.1-0.2,0.3-0.2,0.5V33.3z"/>
				<path class="st2" d="M77.4,33.3l0.1,5h0l-8.1-12c-0.1-0.1-0.2-0.3-0.3-0.4c-0.1-0.1-0.3-0.2-0.5-0.2c-0.2,0-0.4,0.1-0.6,0.2
					c-0.1,0.2-0.2,0.4-0.2,0.7v13c0,0.2,0.1,0.4,0.2,0.5c0.1,0.1,0.3,0.2,0.5,0.2c0.2,0,0.4-0.1,0.5-0.2c0.1-0.1,0.2-0.3,0.2-0.5
					v-6.8l-0.1-5h0l8,11.9c0.1,0.2,0.2,0.3,0.4,0.4c0.1,0.1,0.3,0.2,0.6,0.2c0.3,0,0.5-0.1,0.6-0.2c0.2-0.2,0.2-0.4,0.2-0.7V26.5
					c0-0.2-0.1-0.4-0.2-0.5c-0.1-0.1-0.3-0.2-0.5-0.2c-0.2,0-0.4,0.1-0.5,0.2c-0.1,0.1-0.2,0.3-0.2,0.5V33.3z"/>
				<path class="st2" d="M11.9,39.4L7,26.5c-0.2-0.5-0.6-0.8-1.2-0.8c-0.6,0-0.9,0.3-1.1,0.8l-4.9,13c-0.1,0.3-0.1,0.5,0,0.7
					c0.1,0.2,0.3,0.2,0.5,0.2c0.2,0,0.3,0,0.4-0.1C0.9,40.2,1,40,1.1,39.8l1.4-3.5h6.9l1.4,3.5c0.1,0.2,0.2,0.4,0.3,0.4
					c0.1,0.1,0.2,0.1,0.4,0.1c0.2,0,0.4-0.1,0.5-0.3C12,40,12,39.7,11.9,39.4z M2.8,35.2L5.9,27h0.1l3,8.2H2.8z"/>
				<path class="st2" d="M35.9,39.4L31,26.5c-0.2-0.5-0.6-0.8-1.2-0.8c-0.6,0-0.9,0.3-1.1,0.8l-4.9,13c-0.1,0.3-0.1,0.5,0,0.7
					c0.1,0.2,0.3,0.2,0.5,0.2c0.2,0,0.3,0,0.4-0.1c0.1-0.1,0.2-0.2,0.3-0.4l1.4-3.5h6.9l1.4,3.5c0.1,0.2,0.2,0.4,0.3,0.4
					c0.1,0.1,0.2,0.1,0.4,0.1c0.2,0,0.4-0.1,0.5-0.3C36,40,36,39.7,35.9,39.4z M26.8,35.2l3.1-8.2h0.1l3,8.2H26.8z"/>
				<path class="st2" d="M64.6,39.4l-4.9-12.9c-0.2-0.5-0.6-0.8-1.2-0.8c-0.6,0-0.9,0.3-1.1,0.8l-4.9,13c-0.1,0.3-0.1,0.5,0,0.7
					c0.1,0.2,0.3,0.2,0.5,0.2c0.2,0,0.3,0,0.4-0.1c0.1-0.1,0.2-0.2,0.3-0.4l1.4-3.5H62l1.4,3.5c0.1,0.2,0.2,0.4,0.3,0.4
					c0.1,0.1,0.2,0.1,0.4,0.1c0.2,0,0.4-0.1,0.5-0.3C64.7,40,64.7,39.7,64.6,39.4z M55.5,35.2l3.1-8.2h0.1l3,8.2H55.5z"/>
			</g>
		</g>
	</g>
</g>
</svg>
