<?xml version="1.0" encoding="UTF-8" standalone="no"?>
<!DOCTYPE svg PUBLIC "-//W3C//DTD SVG 1.1//EN" "http://www.w3.org/Graphics/SVG/1.1/DTD/svg11.dtd">
<svg width="100%" height="100%" viewBox="0 0 1420 640" version="1.1" xmlns="http://www.w3.org/2000/svg" xmlns:xlink="http://www.w3.org/1999/xlink" xml:space="preserve" xmlns:serif="http://www.serif.com/" style="fill-rule:evenodd;clip-rule:evenodd;stroke-linejoin:round;stroke-miterlimit:1.41421;">
    <g transform="matrix(1,0,0,1,0,294.5)">
        <g transform="matrix(9.9533,0,0,9.9533,5.22323,-287.101)">
            <clipPath id="_clip1">
                <rect x="0" y="0.811" width="142" height="50"/>
            </clipPath>
            <g clip-path="url(#_clip1)">
                <path d="M35.488,38.088L37.344,33.061L40.754,23.713L44.355,13.948C43.719,12.721 42.602,11.702 41.156,11.17C38.938,10.366 36.574,10.948 35.129,12.463C34.992,10.37 33.555,8.405 31.34,7.6C29.531,6.94 27.629,7.209 26.199,8.151C31.801,1.913 40.633,-0.802 48.957,1.788L49.73,1.081C49.969,0.948 50.234,1.045 50.324,1.303L50.488,2.327C58.676,5.553 63.84,13.28 64.246,21.686C63.688,20.198 62.461,18.928 60.785,18.319C58.566,17.51 56.207,18.092 54.758,19.612C54.621,17.514 53.188,15.553 50.969,14.745C49.43,14.186 47.82,14.295 46.496,14.92L42.656,25.362L41.078,29.647L39.25,34.545C39.219,34.623 39.289,34.475 39.25,34.545L33.973,48.666C33.809,49.096 33.574,49.424 33.273,49.655C32.973,49.881 32.602,49.999 32.16,49.999C31.719,49.999 31.352,49.889 31.062,49.666C30.773,49.444 30.547,49.112 30.383,48.666L21.801,25.694L21.699,25.362C21.672,25.249 21.656,25.139 21.652,25.026C21.664,24.639 21.789,24.354 22.027,24.163C22.266,23.975 22.551,23.877 22.875,23.881C23.117,23.877 23.336,23.948 23.527,24.1C23.719,24.249 23.871,24.495 23.984,24.842L28.867,37.975L32.125,47.077L35.488,38.088Z" style="fill:rgb(1,10,20);fill-rule:nonzero;"/>
                <path d="M0.121,48.334C-0.062,48.873 -0.038,49.284 0.191,49.569C0.422,49.854 0.729,49.999 1.121,49.999C1.395,50.002 1.629,49.932 1.828,49.776C2.023,49.627 2.195,49.366 2.34,49.002L4.777,42.674L17.164,42.674L19.602,48.963C19.73,49.331 19.891,49.596 20.082,49.76C20.277,49.924 20.512,50.002 20.785,49.999C21.195,49.995 21.516,49.846 21.746,49.549C21.98,49.256 22.004,48.838 21.82,48.299L13.023,25.1C12.684,24.182 11.992,23.725 10.953,23.733C9.953,23.725 9.289,24.182 8.957,25.1L0.121,48.334Z" style="fill:rgb(1,10,20);"/>
                <path d="M10.914,26.096L11.062,26.096L16.461,40.717L5.445,40.717L10.914,26.096Z" style="fill:white;"/>
                <path d="M43.09,48.334C42.906,48.873 42.93,49.284 43.156,49.569C43.387,49.854 43.695,49.999 44.086,49.999C44.359,50.002 44.598,49.932 44.793,49.776C44.992,49.627 45.16,49.366 45.305,49.002L47.746,42.674L60.129,42.674L62.57,48.963C62.699,49.331 62.855,49.596 63.051,49.76C63.242,49.924 63.477,50.002 63.754,49.999C64.16,49.995 64.48,49.846 64.714,49.549C64.945,49.256 64.969,48.838 64.789,48.299L55.988,25.1C55.652,24.182 54.961,23.725 53.918,23.733C52.922,23.725 52.258,24.182 51.922,25.1L43.09,48.334Z" style="fill:rgb(1,10,20);"/>
                <path d="M53.883,26.096L54.031,26.096L59.426,40.717L48.41,40.717L53.883,26.096Z" style="fill:white;"/>
                <path d="M87.746,37.311L87.855,46.299L87.781,46.299L73.238,24.807C73.078,24.557 72.879,24.342 72.641,24.163C72.402,23.983 72.082,23.889 71.684,23.881C71.238,23.881 70.887,24.018 70.633,24.288C70.379,24.557 70.25,24.952 70.246,25.471L70.246,48.741C70.254,49.182 70.363,49.502 70.582,49.706C70.797,49.905 71.066,50.002 71.387,49.999C71.746,50.002 72.039,49.905 72.262,49.706C72.484,49.502 72.602,49.182 72.609,48.741L72.609,36.495L72.496,27.541L72.57,27.541L86.93,48.889C87.113,49.194 87.332,49.456 87.598,49.666C87.859,49.881 88.191,49.991 88.594,49.999C89.062,49.999 89.43,49.862 89.699,49.584C89.965,49.307 90.105,48.889 90.109,48.334L90.109,25.139C90.102,24.713 89.988,24.397 89.773,24.19C89.555,23.983 89.285,23.881 88.965,23.881C88.605,23.881 88.316,23.983 88.09,24.19C87.867,24.397 87.754,24.713 87.746,25.139L87.746,37.311Z" style="fill:rgb(1,10,20);"/>
                <path d="M94.598,48.334C94.414,48.873 94.438,49.284 94.668,49.569C94.898,49.854 95.207,49.999 95.598,49.999C95.871,50.002 96.109,49.932 96.305,49.776C96.5,49.627 96.672,49.366 96.816,49.002L99.258,42.674L111.641,42.674L114.078,48.963C114.207,49.331 114.367,49.596 114.559,49.76C114.754,49.924 114.988,50.002 115.262,49.999C115.672,49.995 115.992,49.846 116.223,49.549C116.457,49.256 116.48,48.838 116.297,48.299L107.5,25.1C107.16,24.182 106.469,23.725 105.43,23.733C104.43,23.725 103.766,24.182 103.434,25.1L94.598,48.334Z" style="fill:rgb(1,10,20);"/>
                <path d="M105.391,26.096L105.539,26.096L110.938,40.717L99.922,40.717L105.391,26.096Z" style="fill:white;"/>
                <path d="M139.148,37.311L139.262,46.299L139.188,46.299L124.641,24.807C124.48,24.557 124.281,24.342 124.043,24.163C123.805,23.983 123.488,23.889 123.086,23.881C122.641,23.881 122.289,24.018 122.035,24.288C121.781,24.557 121.652,24.952 121.648,25.471L121.648,48.741C121.656,49.182 121.77,49.502 121.984,49.706C122.199,49.905 122.473,50.002 122.793,49.999C123.152,50.002 123.441,49.905 123.664,49.706C123.891,49.502 124.004,49.182 124.012,48.741L124.012,36.495L123.902,27.541L123.977,27.541L138.336,48.889C138.516,49.194 138.738,49.456 139,49.666C139.266,49.881 139.598,49.991 140,49.999C140.465,49.999 140.832,49.862 141.102,49.584C141.371,49.307 141.508,48.889 141.512,48.334L141.512,25.139C141.504,24.713 141.391,24.397 141.176,24.19C140.961,23.983 140.691,23.881 140.367,23.881C140.012,23.881 139.719,23.983 139.496,24.19C139.273,24.397 139.156,24.713 139.148,25.139L139.148,37.311Z" style="fill:rgb(1,10,20);"/>
            </g>
        </g>
        <g transform="matrix(1,0,0,1,-3,177.5)">
            <text x="6px" y="140.425px" style="font-family:'Roboto-Regular', 'Roboto';font-size:113.9px;">The Cloud Security Platform</text>
        </g>
    </g>
</svg>
