<?xml version="1.0" encoding="utf-8"?>
<!-- Generator: Adobe Illustrator 19.2.0, SVG Export Plug-In . SVG Version: 6.00 Build 0)  -->
<svg version="1.1" id="Layer_1" xmlns="http://www.w3.org/2000/svg" xmlns:xlink="http://www.w3.org/1999/xlink" x="0px" y="0px"
	 viewBox="0 0 512 512" style="enable-background:new 0 0 512 512;" xml:space="preserve">
<style type="text/css">
	.st0{fill:#000222;}
	.st1{fill:#505CFD;}
</style>
<g>
	<path class="st0" d="M243.2,5.8c-9.1,0.6-17.1,0.7-25,1.6c-19.2,2.1-33.1,11.4-39,30.4c-2.6,8.3-4.3,16.9-5.9,25.4
		c-0.5,2.6-1.3,3.4-3.9,3.7c-12,1.5-24,2.8-35.9,5c-9.8,1.8-19.3,5.1-27.1,11.9c-9.2,8.1-7.8,19.4,1.9,26.3
		c11.4,8.1,26.2,4.5,39.2,4.4c7.1-0.1,14.3-0.1,21.4-0.2c21-0.1,42-0.2,63-0.3c22.3-0.1,44.6-0.1,66.9-0.1c12.7,0,25.7,0,38.5,0.3
		c11.7,0.3,25.1,3.1,36.2-2c8.1-3.8,12.6-12.2,9.4-20.9c-3.9-10.5-16.9-15-26.6-18c-13.5-4.2-27.6-5.6-41.6-6.5
		c-2.5-0.2-3.2-1.1-3.6-3.5c-1.7-8.5-3.3-17.1-5.9-25.4c-5.5-17.4-17.6-27.4-35.6-29.9C260.3,6.8,251.2,6.4,243.2,5.8z"/>
	<path class="st1" d="M326.2,147.4c-0.4-2.8-5.3-3.6-5.4-3.6c-6.2-0.8-11.6-1.4-16.6-1.7c-7.5-0.5-14.1-0.7-20.3-0.7
		c-8.8,0-16.8,0.5-24.4,1.4c-5.5,0.7-11.5,1.3-17.5,1.4c-6-0.1-12-0.7-17.5-1.4c-7.6-0.9-15.6-1.4-24.4-1.4
		c-6.2,0-12.8,0.2-20.3,0.7c-5,0.3-10.4,0.9-16.6,1.7c-0.1,0-5,0.8-5.4,3.6c-0.3,2-0.6,5.8,1.2,8c2.4,2.9,3.4,5.7,3.6,9.2
		c0.3,7.2,2.3,14.2,6.1,20.8c3.6,6.4,9.2,10.2,16.5,11.2c4.9,0.7,9.7,1.1,14.3,1.1c4.5,0,9-0.4,13.3-1c10.2-1.7,17.3-7.4,20.5-16.7
		c1.7-4.9,2.8-9.9,3.8-14.9c0.3-1.4,0.6-2.7,0.9-4.1c0.7-3.2,1.8-3.7,3.9-3.8c2.1,0.1,3.2,0.6,3.9,3.8c0.3,1.4,0.6,2.7,0.9,4.1
		c1.1,4.9,2.1,10,3.8,14.9c3.2,9.3,10.3,15.1,20.5,16.7c4.3,0.7,8.8,1,13.3,1c4.6,0,9.4-0.4,14.3-1.1c7.3-1,12.9-4.8,16.5-11.2
		c3.7-6.6,5.8-13.6,6.1-20.8c0.1-3.5,1.2-6.3,3.6-9.2C326.7,153.2,326.5,149.4,326.2,147.4z M273.4,188c-10-1.7-15.5-7.5-16.8-17.6
		c-0.2-1.6-0.3-3.3-0.4-4.9c-0.1-1.1-0.1-2.3-0.3-3.4c-0.4-3.8,1.3-6.5,4.8-7.8c4.5-1.6,9-2.7,13.3-3.2c4-0.4,7.6-0.6,11-0.6
		c6.2,0,11.7,0.7,16.9,2.1c7.9,2.2,9.8,4.6,9.3,12.5c-0.3,5-1.3,9.8-2.8,13.9c-2.1,5.6-7,8.7-14.9,9.6c-2.1,0.2-4.2,0.3-6.5,0.4
		c-1,0-2.1,0.1-3.3,0.1c-0.9-0.1-1.9-0.1-2.9-0.2C278.5,188.6,275.9,188.4,273.4,188z M203.1,188.7c-1,0.1-2,0.1-2.9,0.2
		c-1.1-0.1-2.2-0.1-3.3-0.1c-2.3-0.1-4.4-0.2-6.5-0.4c-7.9-0.8-12.7-3.9-14.9-9.6c-1.5-4-2.5-8.8-2.8-13.9
		c-0.4-7.8,1.4-10.3,9.3-12.5c5.2-1.4,10.7-2.1,16.9-2.1c3.4,0,7,0.2,11,0.6c4.3,0.5,8.8,1.5,13.3,3.2c3.5,1.3,5.1,4,4.8,7.8
		c-0.1,1.1-0.2,2.3-0.3,3.4c-0.1,1.6-0.2,3.3-0.4,4.9c-1.3,10.1-6.8,15.9-16.8,17.6C208.1,188.4,205.6,188.6,203.1,188.7z"/>
	<path class="st0" d="M334.6,229c-5.1-2.8-11.3-3.3-17-1.3c-0.3,0.1-0.4,0.4-0.3,0.7c0.1,0.4,0.4,0.3,0.7,0.3c0.8,0.1,2,0,2.8,0.1
		c1.6,0.1,2.8,0.2,4.3,0.7c3.1,0.9,5.7,2.8,6.9,6c2.9,8-6.3,15.8-16.3,14.2c-13.2-2-20.2-11.1-29-20c-1.8-1.8-3.4-3.8-5.1-5.8
		c-9.4-11.3-28.2-10.4-37.7,0.8c-0.5,0.6-1,1.1-1.6,1.8c-0.1,0.1-0.2,0.2-0.4,0.2c-0.1,0-0.3-0.1-0.4-0.2c-0.6-0.7-1.1-1.3-1.6-1.8
		c-9.5-11.2-28.3-12.1-37.7-0.8c-1.6,2-3.3,3.9-5.1,5.8c-8.9,8.9-15.9,18-29,20c-10,1.5-19.1-6.2-16.3-14.2c1.1-3.1,3.7-5.1,6.9-6
		c1.5-0.4,2.7-0.6,4.3-0.7c0.8,0,2,0,2.8-0.1c0.3,0,0.6,0.1,0.7-0.3c0.1-0.3,0-0.6-0.3-0.7c-5.7-1.9-11.9-1.4-17,1.3
		c-6.2,3.4-8.8,9.1-7.1,15.6c2.2,8.6,8.9,13.9,18.1,17.2c9.4,3.4,19.2,5.2,29.4,5.9c14.6,1,28.5-0.7,41.2-7.3c3.8-2,7.3-4.2,11-6.3
		c0,0,0,0,0,0s0,0,0,0c3.7,2.1,7.2,4.4,11,6.3c12.6,6.7,26.5,8.4,41.2,7.3c10.2-0.7,20-2.6,29.4-5.9c9.2-3.3,15.9-8.6,18.1-17.2
		C343.3,238.1,340.8,232.4,334.6,229z"/>
	<path class="st0" d="M352.1,498c-14.4,1.8-28.8,3.1-43.3,4.2c-2,0.2-4,0.2-6,0.4c-9.9,0.6-20,1.1-29.9,1.5
		c-0.6,0.1-1.8,0.1-3.4,0.1c-4.6,0.2-9.3,0.3-14,0.4c0,0-7.4,0-16.4-0.1c-9.1,0.1-16.5,0.1-16.5,0.1c-4.7-0.1-9.3-0.2-14-0.4
		c-1.5,0-2.6,0-3.3-0.1c-10-0.4-20-0.9-30-1.5c-2-0.2-4-0.2-6-0.4c-17.2-1.2-34.2-2.8-51.2-5.2c-29.4-4.1-58.6-10.3-87.3-19.6
		c-4-1.3-7.9-2.7-11.9-4.5c-15.9-6.7-13.5-3.4-12.8-19.7c0.1-2.8,0.2-5.7,0.2-8.7c1.1-22.8,3.1-45.5,10.3-67.4
		c2.2-7,4.8-14.4,9.3-20c0.2-0.4,0.6-0.7,0.9-1.1c4.6-5.5,11-10.8,17.5-12.7c19.5-5.2,38.9-10.2,58.4-15.1c0,0,0,0,0.1,0
		c22.8-5.9,45.5-11.5,68.5-17.2c1.4-0.4,3-0.3,5.6-0.5h0.6c0.2,1.2,0.6,2.3,0.9,3.5c4.4,16.4,8.6,32.9,13.7,49.1
		c6,19.4,12.8,38.6,19.5,57.8c0.6,1.8,1.4,3.5,2.4,5.3c2.3-17.3,5.9-44.8,7.9-60.6c1-7.1,1.4-11.7,1.4-12.1c-1-2.5-1.9-4.8-3-7.1
		c-0.1-0.3-0.2-0.5-0.4-0.7c-0.5-1.3-1.1-2.7-1.7-4c-0.2-0.3-0.5-0.7-0.6-1.1c-0.1-0.2-0.2-0.3-0.2-0.5c-1-1.8-2-3.6-2-5.9
		c0-1,0.2-2.1,0.6-3c0.1-2,0.7-3.6,2-4.8c0-0.1,0.1-0.2,0.2-0.3l0.2-0.1c0.1-0.4,0.1-0.6,0.2-0.6c1.2-1.9,2.6-2.2,3.5-2.5h1.4
		c0.6-0.2,1-0.2,1.4-0.2c2.1-0.2,7.5-0.2,14.3-0.2h0.5c6.7,0,12.1,0,14.2,0.2c0.4,0,0.8,0,1.4,0.2h1.4c1,0.2,2.3,0.6,3.5,2.5
		c0.2,0.1,0.2,0.2,0.2,0.6l0.2,0.1c0.1,0.1,0.2,0.2,0.2,0.3c1.3,1.2,1.9,2.8,2,4.8c0.3,0.9,0.6,1.9,0.6,3c0,2.3-1,4.2-2,5.9
		c-0.1,0.2-0.2,0.3-0.2,0.5c-0.2,0.4-0.5,0.8-0.6,1.1c-0.6,1.3-1.2,2.7-1.7,4c-0.2,0.2-0.3,0.4-0.4,0.7c-1.1,2.3-2.1,4.7-3,7.1
		c0,0.4,0.5,5.1,1.4,12.1c2.1,15.8,5.7,43.3,8,60.6c0.9-1.8,1.8-3.5,2.3-5.3c6.7-19.2,13.5-38.4,19.5-57.8
		c5.1-16.3,9.3-32.7,13.7-49.1c0.2-1.2,0.6-2.3,0.9-3.5h0.6c2.6,0.2,4.2,0.1,5.7,0.5c22.6,5.6,45.2,11.2,67.7,17
		c-34,16.9-57.4,52-57.4,92.6C317.3,451.5,330.8,479.1,352.1,498z"/>
	<path class="st1" d="M421.1,335.1c-46.7-0.2-85.6,38-85.9,84.2c-0.3,48.6,37.8,86.4,84.3,87c48.2,0.5,86.7-37.6,86.9-85.1
		C506.5,373.8,468.3,335.3,421.1,335.1z M365.2,374.1c12.7,12.7,25.3,25.3,37.9,37.9c6.6,6.6,13.3,13.3,19.9,19.9
		c14.7,14.7,29.4,29.4,44.2,44.2c-16.1,13.4-34.9,19.5-55.8,16.3c-29.6-4.5-50.1-21.4-59.5-49.9
		C343.5,417.7,349.1,394.7,365.2,374.1z M440.9,432c-6.6-6.6-13.3-13.3-19.9-19.9c-15.6-15.6-31.1-31.1-46.8-46.8
		c16.9-13.6,36.1-19.9,57.7-16.1c28.5,5,48.3,21.5,57.6,48.9c8.6,25.2,3.1,48.2-13.2,69.4C464.4,455.6,452.7,443.7,440.9,432z"/>
</g>
</svg>
