<?xml version="1.0" encoding="UTF-8"?>
<svg width="88px" height="74px" viewBox="0 0 88 74" version="1.1" xmlns="http://www.w3.org/2000/svg" xmlns:xlink="http://www.w3.org/1999/xlink">
    <!-- Generator: Sketch 46.2 (44496) - http://www.bohemiancoding.com/sketch -->
    <title>amazon</title>
    <desc>Created with Sketch.</desc>
    <defs></defs>
    <g id="Page-1" stroke="none" stroke-width="1" fill="none" fill-rule="evenodd">
        <g id="amazon" fill-rule="nonzero" fill="#F7A80D">
            <path d="M44.7535236,35.216877 L30.7010861,40.567034 L43.7177065,45.4999734 L58.8104067,40.567034 L44.7535236,35.216877 Z M23.6281889,41.9029974 L23.1569588,65.9747644 L43.7177065,74 L43.7177065,49.0063355 L23.6281889,41.9029974 Z M65.8833039,41.9029974 L47.3008335,48.1711122 L47.3008335,71.7425331 L65.8833039,65.0564127 L65.8833039,41.9029974 Z M21.6010104,0.890379599 L7.54857287,6.24053666 L20.5651932,11.173082 L35.6578934,6.24053666 L21.6010104,0.890379599 Z M0.471230109,7.57610605 L0,31.6478731 L20.5607477,39.6731087 L20.5607477,14.6833839 L0.471230109,7.57610605 Z M42.726345,7.57610605 L24.1438747,13.8442208 L24.1438747,37.4156418 L42.726345,30.7299153 L42.726345,7.57610605 Z M66.8746653,0 L52.8222278,5.35015706 L65.8388482,10.2827024 L80.9315484,5.35015706 L66.8746653,0 Z M45.7448851,6.68966619 L45.273655,30.7614332 L65.8344026,38.7866688 L65.8344026,13.7930043 L45.7448851,6.68966619 Z M88,6.68966619 L69.4175297,12.957781 L69.4175297,36.5292019 L88,29.8434755 L88,6.68966619 Z" id="Shape"></path>
        </g>
    </g>
</svg>