<?xml version="1.0" encoding="utf-8"?>
<!-- Generator: Adobe Illustrator 19.2.0, SVG Export Plug-In . SVG Version: 6.00 Build 0)  -->
<svg version="1.1" id="Layer_1" xmlns="http://www.w3.org/2000/svg" xmlns:xlink="http://www.w3.org/1999/xlink" x="0px" y="0px"
	 viewBox="0 0 512 512" style="enable-background:new 0 0 512 512;" xml:space="preserve">
<style type="text/css">
	.st0{fill:#000222;}
	.st1{fill:#2D78BD;}
</style>
<g id="Quarantine">
	<g>
		<path class="st0" d="M3.4,254.8C6.9,113.2,115.1,4.1,255.3,3.7c144.1-0.4,253.5,112.5,253.2,252.4
			c-0.3,142.6-111.7,252.7-253.5,252.1C114.2,507.7,5.6,397.3,3.4,254.8z M95.3,129.9c-39.5,52.2-53.4,111-37.1,174.4
			c21.3,83.2,76.2,135,160.3,152.1c59.9,12.2,115.3-2,163.6-39.6C286.4,321,191.6,226.2,95.3,129.9z M417,382.5
			c42.1-56.8,55.4-119.3,34.1-186.2c-26.4-82.8-85.1-131.1-171-142.8c-55.3-7.5-106,7.2-150.1,42C226,191.4,320.8,286.2,417,382.5z"
			/>
		<g>
			<g>
				<path class="st1" d="M104.7,211.3c6.1,15.6,18.1,22.1,35.1,21c9.8-0.7,20.1-0.1,29.6,2.2c8.3,2,14.7,8.4,14,18.2
					c-0.6,9.7-5.2,17.4-14.9,20.3c-5.1,1.5-10.8,1.8-16.2,1.7c-7.2-0.1-14.5-1.7-21.7-1.6c-15,0.3-27,9.5-30.1,22.4
					c-3.6,14.7,3.3,29.7,16.8,36.7c12,6.2,26.3,3.1,36.8-7.8c6-6.2,11.8-12.6,18.2-18.3c6.5-5.7,14-8.7,22.9-5.2
					c16.1,6.3,18.2,26.1,3.9,38.9c-6.2,5.5-12.7,10.7-18.9,16.3c-14.1,12.8-14.2,31.3-0.5,44.7c13.2,12.9,32.2,11.6,44.8-2.5
					c9.3-10.4,9.9-21.8,7.2-34.8c-2.6-12.6,0.7-24,12.3-31.7c7.1-4.6,13.7-3.5,20.3,0.9c11.2,7.6,11.8,18.6,10,30.4
					c-0.5,3.1-1.6,6.2-1.4,9.2c0.3,6.5,0.2,13.3,2,19.4c4.6,15.5,20.7,23.9,36.2,19.6c10.4-2.8,17.8-9,21.6-18.3L229.2,289.3
					c0,0-0.1,0.1-0.1,0.1c-5.3,12.9-32.8,13.9-30.7-3.9c1.8-6.6,5.3-12.2,10-17l-93.3-93.3C103.9,183,99.5,198,104.7,211.3z"/>
			</g>
			<g>
				<path class="st1" d="M409.2,314.6c1.4-11.8-2.4-21.8-12.7-28.6c-10.8-7.2-22.6-6.9-34.9-6.4c-7.3,0.3-15.3-0.7-21.8-3.7
					c-7.4-3.3-12.5-10.1-11.3-19.2c1.2-8.9,5.7-16,15.1-17.5c7.7-1.3,15.6-1.2,23.5-1.3c5.5-0.1,11,1.4,16.5,0.9
					c14.7-1.4,26.2-12.1,28.6-25.8c2.3-13.1-5.1-26.7-17.9-33.2c-12.1-6.2-26.7-3.1-36.8,7.7c-5.4,5.8-10.5,11.9-16,17.6
					c-12.1,12.5-31.1,8.6-37.1-7.4c-3.3-8.7,0.7-19.3,10.3-27.3c6.1-5.1,12.5-9.9,18.1-15.4c9.9-9.7,12.2-20.2,7.6-30.9
					c-6-13.9-18.4-22.2-32.4-21.8c-12.3,0.4-22.6,7.9-26.1,21.3c-2,7.8-0.7,16.4-1.8,24.5c-1.2,9-2.7,18.2-5.6,26.7
					c-2.6,7.7-10.7,9.7-17.4,7.6c-6.3-2-13.8-6.2-16.5-11.6c-3.3-6.5-2.7-15.2-2.9-23c-0.2-6.9,1.5-13.8,1-20.6
					c-1.1-14.9-9.2-23.8-23.1-26.7c-14-2.9-28.6,3.3-34.9,14.7c-0.6,1.1-1.1,2.3-1.6,3.5l216.9,217
					C402.9,331.1,408,324.3,409.2,314.6z"/>
			</g>
		</g>
	</g>
</g>
</svg>
