<?xml version="1.0" encoding="utf-8"?>
<!-- Generator: Adobe Illustrator 19.2.0, SVG Export Plug-In . SVG Version: 6.00 Build 0)  -->
<svg version="1.1" id="Layer_1" xmlns="http://www.w3.org/2000/svg" xmlns:xlink="http://www.w3.org/1999/xlink" x="0px" y="0px"
	 viewBox="0 0 512 512" style="enable-background:new 0 0 512 512;" xml:space="preserve">
<style type="text/css">
	.st0{fill:#000222;}
	.st1{fill:#505CFD;}
	.st2{fill:none;}
</style>
<g>
	<path class="st0" d="M233.4,334.2h-53.5c-34.1,0-68.1,0-102.2-0.1c-42.1,0-67.2-26.9-67.2-72V100.9c0-13.8,3.1-25.8,9.5-36.6
		c2.9-4.9,7.7-8.1,13.2-9c5.5-0.9,11,0.7,15.1,4.4c49.6,43.6,99,87,148.5,130.6c9.4,8.3,19,12.7,28.5,13.3c1.2,0,2.6,0,3.9,0l0.3,0
		l0.5,0c1.3,0.1,2.7,0.1,4,0c9.4-0.6,19-5,28.4-13.3c49.5-43.6,98.9-87,148.4-130.5c4.2-3.7,9.7-5.3,15.2-4.4
		c5.6,0.9,10.4,4.2,13.2,9.1c6.3,10.8,9.4,22.7,9.4,36.6v112.5c0,4.5-3.6,8.1-8.1,8.1s-8.1-3.6-8.1-8.1V100.9
		c0-10.9-2.3-20.2-7.2-28.4c-0.5-0.9-1.4-1.2-1.9-1.3c-0.5-0.1-1.2-0.1-1.9,0.5c-49.6,43.6-99,87-148.5,130.6
		c-12.1,10.7-25,16.5-38.3,17.3c-1.9,0.1-3.8,0.1-5.5,0c-1.2,0.1-3.1,0.1-4.9,0c-13.4-0.8-26.3-6.6-38.4-17.3
		c-49.5-43.6-98.9-87-148.4-130.5c-0.7-0.7-1.5-0.7-2-0.6c-0.5,0.1-1.3,0.3-1.9,1.3c-4.9,8.3-7.2,17.5-7.2,28.4v161.3
		c0,36,18.1,55.8,51,55.8c34.1,0.1,68.1,0.1,102.2,0.1h53.5c4.5,0,8.1,3.6,8.1,8.1S237.9,334.2,233.4,334.2z"/>
	<path class="st1" d="M396.5,43.6c-4-5.9-19.8-5.4-25.8-5.7c-12.3-0.7-24.7,0.1-37.1,0.1c-19.8-0.1-39.5-0.1-59.2-0.1
		c-14.9,0-29.8-0.1-44.8-0.1c-14.9,0-29.8,0.1-44.7,0.1c-19.7,0-39.5,0-59.2,0.1c-12.4,0.1-24.8-0.8-37.2-0.1
		c-5.9,0.3-21.7-0.1-25.7,5.7c-0.9,1.3-0.4,3.3,2.8,6.1c47.7,42,95.4,84.1,143.2,126c0.1,0.1,0.1,0.1,0.2,0.2
		c11.9,10.3,29.3,10.3,41.2,0c0.1-0.1,0.1-0.1,0.2-0.2c47.8-41.9,95.5-84,143.2-126C396.9,46.9,397.5,45,396.5,43.6z"/>
	<line class="st2" x1="236.7" y1="166.4" x2="233.4" y2="169.6"/>
	<g>
		<path class="st0" d="M483.5,253.6c-2.7-0.3-5.3-0.5-8-0.8c-6.4-0.6-12.3-1.3-18.1-2.3c-21.8-4-41.9-12.7-61.4-26.4
			c-7-5.1-15.6-5.4-23.2-0.6l-2.2,1.4c-5.2,3.3-10.1,6.5-15.1,9.1c-20.9,11.2-44.1,17.6-71,19.5c-17.4,1.4-19.3,14.8-19.3,20.2
			c0,3.6,0,7.2,0,10.8v5.2c0.3,17.6,1.8,33.4,4.7,48.3c5.1,26,13.7,48,26.1,67.5c18.2,28.7,44.7,51.3,78.7,67.1
			c2.6,1.2,5.6,1.8,8.6,1.8c3.8,0,7.3-1,10.1-2.5c39.2-22.4,68.1-53.1,85.9-91.5c14.3-30.9,21.6-66,22.2-107.3
			C501.5,264.1,495.8,254.7,483.5,253.6z M464.9,373.7c-17.1,36.8-44.3,64.3-79.3,84.3c-1,0.6-3,0.6-4.1,0.1
			c-29.6-13.7-54.2-33.4-71.8-61.1c-12.2-19.1-19.6-40-24-62c-2.9-15-4.1-30.2-4.4-45.5c0-5.1-0.1-10.3,0-15.5c0-4,0.6-4.4,4.6-4.7
			c27.2-2,53.1-8.5,77.2-21.3c6.2-3.4,12.3-7.3,18.3-11.1c2-1.3,3.4-1.3,5.3,0.1c20.6,14.5,43.1,24.6,67.9,29.2
			c9,1.6,18.1,2.3,27.2,3.3c2.4,0.2,3.8,0.8,3.8,3.6C485,307.9,479.6,341.8,464.9,373.7z"/>
		<path class="st1" d="M435.3,293c-3.3,0-6.5,1.4-9,3.8c-8.9,8.8-19.9,19.3-30.5,29.5c-11,10.6-22.5,21.6-31.7,30.7c0,0,0,0,0,0
			c-0.1-0.1-0.3-0.3-0.4-0.4l-23-23.3c-2.9-2.9-6.2-4.2-9.9-3.9c-5.2,0.4-9,3.3-10.7,8.1c-1.7,4.8-0.7,9.4,3,13.2
			c12.1,12.2,19.9,20.1,32.1,32.3c1.4,1.4,3.1,2.5,4.9,3c1.4,0.5,2.8,0.7,4.2,0.7h0c3.4,0,6.5-1.4,9.3-4.2
			c10.4-10.4,23.1-22.6,35.4-34.4c12-11.5,24.3-23.4,34.5-33.6c0.3-0.3,0.6-0.6,0.9-0.9c3.6-4,4.2-10.3,1.3-14.8
			C443.4,295.2,439.5,293,435.3,293z"/>
	</g>
</g>
</svg>
