<?xml version="1.0" encoding="utf-8"?>
<!-- Generator: Adobe Illustrator 19.2.0, SVG Export Plug-In . SVG Version: 6.00 Build 0)  -->
<svg version="1.1" id="Layer_1" xmlns="http://www.w3.org/2000/svg" xmlns:xlink="http://www.w3.org/1999/xlink" x="0px" y="0px"
	 viewBox="0 0 512 512" style="enable-background:new 0 0 512 512;" xml:space="preserve">
<style type="text/css">
	.st0{fill:#000222;}
	.st1{fill:#505CFD;}
</style>
<g>
	<path class="st0" d="M502.7,243.9c-10.7-37.4-44.1-62.6-83-62.8H411c1.8-32.9-4.9-59.3-20.9-82.6c-19-27.6-44.2-44.8-77.2-52.6
		c-8-1.9-16.4-2.8-25.1-2.8c-33.4,0-78.9,15.3-106.6,57c-10.9-4.8-22.9-7.4-35.6-7.4c-46.7,0-85,36.2-88.2,82
		c-5.4,2.7-10.7,6-15.5,9.8c-13.1,10.2-23.1,23.8-29.3,39.3c-10.1,25.3-8.6,53.4,4,77.4c13.6,25.8,34.4,42.3,60.7,48.6
		c0,0.2,24.6,0.3,54.1,0.6v-13.1c0-4.9,0.9-9.5,2.4-13.8H103c-27.9-0.1-47.7-11.7-60.4-35.9c-8.6-16.4-9.5-35.7-2.8-53
		c4.3-10.5,11.3-19.9,20.1-27c0.3-0.2,0.6-0.5,0.9-0.7c4.2-3.1,8.9-5.9,13.7-7.9c0.4-0.2,1.6-0.5,2.4-0.7c2.7-0.8,6.8-2,10.6-4.4
		c-0.9-4.1-1.4-8.3-1.4-12.8c0-32.6,26.6-59.2,59.3-59.2c16.4,0,31.2,6.7,41.9,17.5c4.6-1.7,8.7-5,10.7-9.6
		c2.3-4.9,4.8-9.3,7.6-13.4c21.3-32,56.4-43.8,82.1-43.8c6.5,0,12.6,0.7,18.4,2c25.5,6,45.1,19.3,59.7,40.6
		c13.1,19.3,18,42,15.2,71.9l-0.3,3.2c-0.6,5.2,1.3,10.3,4.7,14.2c3.5,3.8,8.5,6.1,13.7,6.1h20.2c25.8,0.1,47.9,16.8,54.9,41.5
		c4.8,16.4,1.5,34-8.7,48.2c-10.3,14-26,22.4-43,23.1c-4.7,0.2-9.7,0.2-16.2,0.2h-28.6c1.5,4.1,2.4,8.5,2.5,13.2
		c0.2,5.4,0.2,10.6,0.2,16c4.8,0.1,7.4,0.1,7.4,0.1c3.1,0,6.1,0.1,9.3,0.1h9.3c6.8,0,12.1-0.1,17.1-0.2
		c26.2-0.9,50.1-13.7,65.8-35.1C505,295.9,509.9,269.1,502.7,243.9z"/>
	<path class="st1" d="M356.9,445v-69.4c0-12.7,0.1-25.5-0.1-38.2c-0.3-8.6-4.9-13.8-13.4-15c-2.3-0.4-3-1.2-3-3.5
		c0-12.3,0.1-24.7-0.5-37c-0.5-12.1-4.8-23.3-11.2-33.6c-13-20.5-31.2-33.7-55-39.2c-2.5-0.5-5-1-7.6-1.4c-2.5-0.3-5-0.4-7.6-1.1
		h-4.6c-6.7,1.1-12.8,1.6-18.8,3.3c-31.5,9.1-52.4,29.3-61.3,61.1c-3,10.9-2.3,22.2-2.3,33.4v17.3c-1.6,0.3-3,0.5-4.4,0.8
		c-7.2,1.5-11.9,7.1-11.9,14.5v77.8c0,11.9,0.1,23.7,0,35.6c-0.1,10.4,2.3,14.7,11.1,18.4h180c5.2-2,8.9-5.5,10.1-11.2
		C357.2,453.6,356.9,449.3,356.9,445z M271.3,401.4c-2.9,2-3.7,4.2-3.7,7.4c0.3,7.4,0.3,14.7,0.1,22.1c-0.1,6.1-3.1,10.4-8.2,12
		c-4.6,1.6-9.3,0.5-12.6-3.4c-1.2-1.8-2.3-4-2.6-6.1c-0.4-4.6-0.1-9.6-0.1-14.3h-0.3v-3.8c0.3-6.5-0.5-11.9-6.7-16.9
		c-9.4-7.8-10.5-20.9-4.8-31.2c5.5-9.8,17.3-15.8,28.4-13.4c10.9,2.5,18.4,9.3,20.9,20.3C284.4,385.1,280.6,394.5,271.3,401.4z
		 M308.4,318.4c0,2.9-1,3.8-3.7,3.8c-16.4-0.1-32.6,0-49,0h-48.2c-4.1,0-4.4-0.1-4.4-4.2c0-10-0.4-19.9,0.1-29.9
		c1-16.5,8.9-29.3,22-39c24.7-18.3,60.6-10.6,75.9,16c4.8,8.3,7.4,17.1,7.2,26.6C308.3,300.7,308.3,309.5,308.4,318.4z"/>
</g>
</svg>
