<?xml version="1.0" encoding="utf-8"?>
<!-- Generator: Adobe Illustrator 19.2.0, SVG Export Plug-In . SVG Version: 6.00 Build 0)  -->
<svg version="1.1" id="Layer_1" xmlns="http://www.w3.org/2000/svg" xmlns:xlink="http://www.w3.org/1999/xlink" x="0px" y="0px"
	 viewBox="0 0 512 512" style="enable-background:new 0 0 512 512;" xml:space="preserve">
<style type="text/css">
	.st0{fill:#000222;}
	.st1{fill:#2D78BD;}
</style>
<g>
	<g>
		<path class="st0" d="M315.9,360.4c0-6.8-0.7-12.9-2.2-18.6h-117c0.7,3,0.9,6.2,0.3,9.4l-0.3,1.8c-0.8,5.9-0.8,11.6,0.2,17
			c41.1,0.4,85.6,0.7,121.5,0.9C316.8,367.8,315.9,364.2,315.9,360.4z M505.8,261.4c-10.9-37.9-44.6-63.4-84.1-63.6H413
			c1.8-33.4-5-60.1-21.2-83.7c-19.2-27.9-44.8-45.3-78.2-53.2c-8.1-1.9-16.6-2.8-25.4-2.8c-33.8,0-80,15.5-108,57.7
			c-11-4.9-23.2-7.6-36-7.6c-47.2,0-86,36.7-89.3,83c-5.5,2.8-10.8,6.1-15.7,9.9C26,211.6,15.8,225.2,9.6,240.9
			c-10.2,25.6-8.7,54.1,4.1,78.4c13.8,26.1,34.8,42.8,61.5,49.2c0,0.3,30.4,0.7,72.2,1.1c-0.6-7.2-0.3-14.6,0.7-22
			c0.2-1.7,0.5-3.2,0.8-4.9c0.1-0.3,0.2-0.6,0.2-0.9h-47.9c-28.3-0.1-48.3-11.9-61.2-36.4c-8.7-16.5-9.7-36-2.8-53.6
			c4.3-10.7,11.3-20.1,20.4-27.3c0.3-0.2,0.6-0.5,0.9-0.7c4.3-3.2,9-6,13.9-8c0.4-0.2,1.6-0.5,2.4-0.7c2.8-0.8,6.9-2,10.8-4.4
			c-0.9-4.2-1.4-8.5-1.4-13c0-33.1,26.9-60,60.1-60c16.6,0,31.6,6.8,42.4,17.7c4.7-1.7,8.7-5.1,10.9-9.8c2.3-4.9,4.8-9.4,7.6-13.5
			c21.6-32.4,57.1-44.3,83.1-44.3c6.5,0,12.8,0.7,18.7,2c25.8,6.1,45.6,19.5,60.4,41.1c13.4,19.5,18.3,42.6,15.4,72.7l-0.3,3.3
			c-0.6,5.3,1.3,10.5,4.8,14.4c3.5,3.9,8.6,6.1,13.9,6.1h20.5c26.1,0.1,48.5,17,55.6,42c4.8,16.6,1.5,34.4-8.9,48.7
			c-10.4,14.2-26.3,22.7-43.5,23.4c-4.7,0.2-9.8,0.2-16.4,0.2H364c0.9,6.5,1.3,13.1,0.9,19.8c-0.2,3.4-1.1,6.7-2.6,9.7
			c16.9,0.2,27.3,0.2,27.3,0.2c3.1,0,6.2,0.1,9.4,0.1h9.4c6.9,0,12.3-0.1,17.3-0.2c26.5-0.9,50.8-13.9,66.6-35.6
			C508.2,314,513.1,286.9,505.8,261.4z"/>
		<path class="st1" d="M322.3,407l-35.9-3.5c-4.6-0.4-8.7,2.8-9.4,7.9c-0.6,4.7,2.6,9,7.4,9.7l7.9,1.1c-13.2,9.7-37.6,15.6-60.6,8.5
			c-2.4-0.7-4.8-1.6-7-2.6c-14-6.1-25-15.5-32.9-28c-9.5-15.1-13.1-31.7-10.7-49.4l0.3-2c0.7-4.3-1.9-8.4-6.3-9.8l0,0
			c-2.3-0.6-4.9-0.3-6.9,1c-2.1,1.3-3.5,3.4-3.9,5.7c-0.3,1.4-0.5,2.8-0.7,4.1c-3.8,27.4,5.4,55,24.7,73.9
			c12.1,11.8,25.2,20,39.1,24.2c22.1,6.8,46.4,3.9,72.1-8.6l-1,3.1c-1.5,4.6,1,9.5,5.8,11.1c4.5,1.4,9.3-1,10.9-5.5l11.5-32.8
			c0.6-1.7,0.5-3.4-0.3-5C325.4,408.7,324,407.5,322.3,407z"/>
		<path class="st1" d="M349.1,360.7c1.3-23-6.8-45.8-22.1-62.4c-29.2-31.8-66.4-39.5-108.8-22.5l1-3c1.5-4.6-0.9-9.5-5.7-11.2
			c-4.5-1.4-9.3,1-10.9,5.5L192,297.9c-0.7,2.1-0.6,4.3,0.4,6.3c1.2,2.4,3.8,4.1,6.5,4.4l32.6,2.9c2.3,0.2,4.6-0.5,6.4-2
			c1.8-1.5,2.9-3.6,3.1-5.9c0.4-4.5-2.8-8.6-7.5-9.3l-8.3-1.1c20.5-11,41.2-12,61.3-3.1c29.8,13.3,45,36.9,45.2,70.2
			c0,3.8,2.5,7.1,6.1,8.2c0.4,0.1,0.9,0.2,1.4,0.3c2.4,0.3,4.9-0.4,6.8-1.9C347.8,365.4,349,363.1,349.1,360.7z"/>
	</g>
</g>
</svg>
