<?xml version="1.0" encoding="utf-8"?>
<!-- Generator: Adobe Illustrator 19.2.0, SVG Export Plug-In . SVG Version: 6.00 Build 0)  -->
<svg version="1.1" id="Layer_1" xmlns="http://www.w3.org/2000/svg" xmlns:xlink="http://www.w3.org/1999/xlink" x="0px" y="0px"
	 viewBox="0 0 512 512" style="enable-background:new 0 0 512 512;" xml:space="preserve">
<style type="text/css">
	.st0{fill:#000222;}
	.st1{fill:#2D78BD;}
</style>
<g>
	<path class="st0" d="M149.1,329.1c-1.4-15.3-8.6-26.5-23-32.5c-6.4-2.7-13.2-3.8-20.1-3.9c-6.9,0.1-13.6,1.2-20.1,3.9
		c-14.4,6-21.7,17.2-23,32.5c-0.2,2.3,0,4.5,0,6.7c0.1,15.9,3.7,30.9,9.9,45.5c3.1,7.2,7.8,13.4,13.3,19c5.7,5.8,12.8,8.6,19.9,8.3
		c7.1,0.3,14.2-2.5,19.9-8.3c5.5-5.6,10.1-11.8,13.3-19c6.2-14.5,9.8-29.6,9.9-45.5C149.2,333.6,149.3,331.4,149.1,329.1z"/>
	<path class="st0" d="M144.3,502.4c-6.3-2.9-10.3-7-9.7-16.7c0-0.6,0.1-1.3,0.1-2.2l0.2-3.8c0.5-10.1,1.3-21.7,5.1-33.3
		c1.1-3.3,2.7-8.5,6.2-12.8c0.3-0.3,0.5-0.6,0.7-0.8c2.1-2.5,5.2-5.4,9-7.4l-18.2-4.6c-0.6-0.1-1.4-0.1-2.5-0.2
		c-0.1,0.5-0.3,1-0.4,1.5c-2,7.3-3.8,14.6-6.1,21.8c-2.7,8.7-5.7,17.1-8.7,25.7c-0.3,1-0.8,1.9-1.2,2.8c-0.5-3.9-1.2-9-1.9-14
		c-1.2-9.3-2.4-18.4-2.4-18.7c0.5-1.1,0.9-2.1,1.4-3.1c0-0.1,0.1-0.3,0.2-0.4c0.2-0.6,0.5-1.2,0.8-1.8c0.2-0.2,0.3-0.5,0.4-0.7
		c0.4-0.8,0.9-1.6,0.9-2.7c0-0.8-0.4-1.6-0.6-2.3l-0.1-0.3c-0.1-0.2-0.1-0.2-0.2-0.4c0-0.2-0.2-0.5-0.3-0.7l-0.1-0.1
		c0-0.1-0.1-0.2-0.1-0.2c-0.2-0.3-0.4-0.5-0.6-0.6c-0.4-0.2-0.7-0.3-1-0.4h-0.7c-0.2-0.2-0.5-0.2-0.6-0.2c-0.9,0-3.3,0-6.2,0
		s-5.4,0-6.3,0c-0.2,0-0.4,0-0.6,0.2h-0.6c-0.4,0.1-1,0.2-1.6,1c-0.1,0-0.1,0.1-0.1,0.3l-0.1,0c0,0.1-0.1,0.1-0.1,0.2
		c-0.6,0.5-0.8,1.2-0.9,2.1c-0.1,0.4-0.2,0.8-0.2,1.3c0,1,0.4,1.9,0.9,2.7c0,0,0.1,0.1,0.1,0.2c0.1,0.2,0.2,0.4,0.3,0.5
		c0.2,0.6,0.5,1.2,0.8,1.8c0.1,0.1,0.1,0.2,0.2,0.3c0.5,1,0.9,2.1,1.4,3.2c0,0.2-0.2,2.2-0.6,5.4c-0.9,7.1-2.6,19.6-3.6,27.3
		c-0.4-0.9-0.9-1.8-1.2-2.8c-3-8.5-6-17-8.7-25.7c-2.2-7.2-4.1-14.5-6.1-21.9c-0.1-0.5-0.2-1-0.4-1.5c-1.1,0.1-1.9,0-2.5,0.2
		c-10.1,2.6-20.3,5-30.4,7.6c0,0,0,0,0,0c-8.7,2.2-17.3,4.4-25.9,6.7c-2.9,0.8-5.7,3.2-7.8,5.7c-0.2,0.1-0.3,0.3-0.4,0.4
		c-2,2.5-3.1,5.8-4.1,8.9C5.8,460,5,470,4.5,480.2c0,1.3-0.1,2.5-0.1,3.8c-0.3,7.2-1.4,5.8,5.7,8.8c1.7,0.7,3.5,1.4,5.3,2
		c12.7,4.1,25.7,6.8,38.8,8.7c12.8,1.8,25.7,2.7,38.7,3.2c2.5,0.1,22.3,0.2,22.3,0.2c2.5-0.1,4.9-0.2,7.4-0.2
		c7.4-0.3,14.8-0.8,22.2-1.4C144.5,504.3,144.4,503.4,144.3,502.4z"/>
	<path class="st0" d="M445.8,329.1c-1.4-15.3-8.6-26.5-23-32.5c-6.4-2.7-13.2-3.8-20.1-3.9c-6.9,0.1-13.6,1.2-20.1,3.9
		c-14.4,6-21.7,17.2-23,32.5c-0.2,2.3,0,4.5,0,6.7c0.1,15.9,3.7,30.9,9.9,45.5c3.1,7.2,7.8,13.4,13.3,19c5.7,5.8,12.8,8.6,19.9,8.3
		c7.1,0.3,14.2-2.5,19.9-8.3c5.5-5.6,10.1-11.8,13.3-19c6.2-14.5,9.8-29.6,9.9-45.5C445.8,333.6,446,331.4,445.8,329.1z"/>
	<path class="st0" d="M507.6,484c-0.4-11.4-1-22.8-4.7-33.8c-1-3.1-2.1-6.4-4.1-8.9c-2.1-2.6-5.1-5.3-8.1-6.1
		c-7.4-2-14.9-3.9-22.3-5.8c-11.3-2.9-22.7-5.7-34-8.5c-0.6-0.1-1.4-0.1-2.5-0.2c-0.1,0.5-0.3,1-0.4,1.5c-2,7.3-3.8,14.6-6.1,21.8
		c-2.7,8.7-5.7,17.1-8.7,25.7c-0.3,1-0.8,1.9-1.2,2.8c-0.5-3.9-1.2-9-1.9-14c-1.2-9.3-2.4-18.4-2.4-18.7c0.5-1.1,0.9-2.1,1.4-3.1
		c0-0.1,0.1-0.3,0.2-0.4c0.2-0.6,0.5-1.2,0.8-1.8c0.1-0.2,0.2-0.5,0.4-0.7c0.4-0.8,0.9-1.6,0.9-2.7c0-0.8-0.4-1.6-0.6-2.3l-0.2-0.3
		c0-0.2,0-0.2-0.1-0.4c-0.1-0.2-0.2-0.5-0.4-0.7l0-0.1c0-0.1-0.2-0.2-0.2-0.2c-0.2-0.3-0.4-0.5-0.5-0.6c-0.4-0.2-0.7-0.3-1-0.4h-0.7
		c-0.2-0.2-0.5-0.2-0.6-0.2c-0.9,0-3.3,0-6.3,0c-3,0-5.4,0-6.3,0c-0.2,0-0.4,0-0.6,0.2h-0.6c-0.4,0.1-1,0.2-1.6,1c0,0,0,0.1-0.1,0.3
		l-0.1,0c0,0.1-0.1,0.1-0.1,0.2c-0.5,0.5-0.8,1.2-0.8,2.1c-0.1,0.4-0.2,0.8-0.2,1.3c0,1,0.4,1.9,0.9,2.7c0,0,0.1,0.1,0.1,0.2
		c0.1,0.2,0.2,0.4,0.3,0.5c0.2,0.6,0.5,1.2,0.8,1.8c0.1,0.1,0.1,0.2,0.2,0.3c0.4,1,0.9,2.1,1.4,3.2c0,0.2-0.3,2.2-0.6,5.4
		c-0.9,7.1-2.6,19.6-3.6,27.3c-0.4-0.9-0.9-1.8-1.2-2.8c-3-8.5-6-17-8.7-25.7c-2.2-7.2-4.1-14.5-6.1-21.9c-0.1-0.5-0.2-1-0.4-1.5
		c-1.1,0.1-1.9,0-2.5,0.2c-6.1,1.6-12.2,3.1-18.3,4.5c4.2,2.2,7.5,5.5,9.7,8.2c3.5,4.3,5.1,9.2,6.3,12.8c4,12.1,4.7,23.9,5.2,37
		c0,0.9,0.1,1.6,0.1,2.2c0.6,9.6-3.4,13.8-9.8,16.7c0.1,1,0.3,1.9,0.5,2.9c7.1,0.6,14.2,1,21.4,1.3c2.5,0.1,22.3,0.2,22.3,0.2
		c2.5-0.1,5-0.2,7.4-0.2c20.5-0.8,40.9-2.6,60.8-7.3c5.6-1.3,11.1-2.8,16.6-4.6c1.8-0.6,3.5-1.2,5.3-2
		C509,489.8,507.9,491.2,507.6,484z"/>
	<path class="st0" d="M299.1,329.1c-1.4-15.3-8.6-26.5-23-32.5c-6.4-2.7-13.2-3.8-20.1-3.9c-6.9,0.1-13.6,1.2-20.1,3.9
		c-14.4,6-21.7,17.2-23,32.5c-0.2,2.3,0,4.5,0,6.7c0.1,15.9,3.7,30.9,9.9,45.5c3.1,7.2,7.8,13.4,13.3,19c5.7,5.8,12.8,8.6,19.9,8.3
		c7.1,0.3,14.2-2.5,19.9-8.3c5.5-5.6,10.1-11.8,13.3-19c6.2-14.5,9.8-29.6,9.9-45.5C299.1,333.6,299.3,331.4,299.1,329.1z"/>
	<path class="st0" d="M359.3,484c-0.4-11.4-1.1-22.8-4.7-33.8c-1-3.1-2.1-6.4-4.1-8.9c-2.1-2.6-5.1-5.3-8.2-6.1
		c-7.4-2-14.9-3.9-22.3-5.8c-11.3-2.9-22.7-5.7-34-8.5c-0.6-0.2-1.4-0.1-2.5-0.2c-0.1,0.5-0.3,1-0.4,1.5c-2,7.3-3.8,14.6-6.1,21.8
		c-2.7,8.6-5.7,17.2-8.7,25.7c-0.3,1-0.8,1.9-1.2,2.8c-0.5-3.9-1.2-9-1.9-14c-1.2-9.4-2.4-18.4-2.4-18.7c0.5-1.1,0.9-2.1,1.3-3.1
		c0.1-0.1,0.1-0.3,0.2-0.4c0.2-0.6,0.5-1.2,0.8-1.8c0.1-0.2,0.3-0.5,0.4-0.7c0.4-0.8,0.9-1.6,0.9-2.6c0-0.8-0.3-1.6-0.6-2.3
		l-0.1-0.3c-0.1-0.1-0.1-0.2-0.1-0.4c-0.1-0.2-0.2-0.5-0.3-0.7l-0.1-0.1c0-0.1-0.1-0.1-0.1-0.2c-0.2-0.3-0.4-0.5-0.6-0.6
		c-0.4-0.2-0.7-0.3-1-0.4h-0.7c-0.2-0.1-0.5-0.1-0.6-0.1c-0.9-0.1-3.3-0.1-6.3-0.1c-3,0-5.4,0-6.3,0.1c-0.2,0-0.4,0-0.6,0.1h-0.6
		c-0.4,0.1-1.1,0.2-1.6,1c-0.1,0.1-0.1,0.1-0.1,0.3l-0.1,0c0,0.1-0.1,0.1-0.1,0.2c-0.5,0.5-0.8,1.3-0.9,2.1
		c-0.1,0.4-0.2,0.8-0.2,1.3c0,1,0.4,1.9,0.9,2.6c0,0.1,0.1,0.1,0.1,0.2c0.1,0.2,0.2,0.3,0.3,0.5c0.3,0.6,0.5,1.2,0.8,1.8
		c0.1,0.1,0.1,0.2,0.1,0.3c0.5,1,0.9,2.1,1.4,3.2c0,0.2-0.3,2.2-0.6,5.4c-0.9,7.1-2.6,19.6-3.6,27.3c-0.5-0.9-0.9-1.8-1.2-2.8
		c-3-8.5-6-17-8.7-25.7c-2.2-7.2-4.1-14.5-6.1-21.9c-0.1-0.5-0.3-1-0.4-1.5c-1.1,0.1-1.9,0-2.5,0.2c-10.1,2.5-20.3,5-30.4,7.6
		c0,0,0,0,0,0c-8.6,2.2-17.3,4.4-25.9,6.7c-2.9,0.8-5.7,3.2-7.8,5.6c-0.1,0.2-0.3,0.3-0.4,0.5c-2,2.5-3.1,5.8-4.1,8.9
		c-3.2,9.7-4,19.8-4.5,29.9c0,1.3-0.1,2.5-0.2,3.8c-0.3,7.2-1.3,5.8,5.7,8.8c1.7,0.7,3.5,1.4,5.3,2c12.7,4.1,25.7,6.9,38.7,8.7
		c12.8,1.8,25.7,2.7,38.7,3.2c2.5,0.1,22.3,0.2,22.3,0.2c2.5-0.1,5-0.1,7.5-0.2c20.5-0.7,40.9-2.6,60.8-7.3
		c5.6-1.3,11.1-2.8,16.6-4.6c1.8-0.6,3.5-1.2,5.3-2C360.6,489.8,359.6,491.2,359.3,484z"/>
	<g>
		<path class="st1" d="M377.9,43.7c-3.1-0.4-6.3-0.7-9.4-1c-6.9-0.7-13.7-1.4-19.8-2.5c-23.2-4.3-44.8-13.6-65.8-28.3
			c-11.9-8.5-27.5-8.9-39.8-1.1l-2.6,1.7c-5.4,3.5-11.1,7-16.5,9.9c-22.4,12-47.5,18.9-76.9,21c-24.3,2-32.9,20.1-32.9,34.9
			c-0.1,4.2-0.1,8.5,0,12.6v6.2c0.3,20.8,2.1,39.7,5.6,57.6c6.2,31.4,16.5,58,31.6,81.5c12.7,20,28.6,37.5,47.6,52.4
			c5-6.2,11.2-11.4,18.5-15.6c-18.7-13.9-34.2-30.5-46.3-49.5c-13.5-20.9-22.7-44.9-28.3-73.4c-3.1-16.5-4.9-34-5.1-53.2v-6.3
			c-0.1-3.9-0.1-7.9,0-12.1c0-10.6,7.9-11.3,11.1-11.6c32.7-2.3,60.9-10.1,86.3-23.8c6.2-3.3,12.5-7.3,18-10.8l2.6-1.7
			c2.2-1.4,4.4-2.1,6.5-2.1c2.4,0,4.6,0.9,6.9,2.5c24,16.8,48.6,27.3,75.2,32.3c7.1,1.3,14.3,2,21.8,2.8c3,0.2,5.9,0.6,9.2,0.9
			c9.1,0.8,9.8,8.3,9.8,10.4c-0.6,45.7-8.6,84.4-24.3,118.4c-14.4,31-35.5,57.5-63,79.1c6.9,4.4,12.8,9.9,17.3,16.4
			c29.1-23.4,51.6-52.1,67.1-85.6c17.2-37.1,25.8-78.9,26.5-128.2C408.9,62.7,399.1,45.5,377.9,43.7z"/>
		<g>
			<path class="st1" d="M261.5,231.3c-43.5,0-78.8-35.4-78.8-78.8s35.4-78.8,78.8-78.8c16.5,0,32.2,5,45.6,14.5c2.8,2,3.5,6,1.5,8.8
				c-2,2.8-6,3.5-8.8,1.5c-11.2-8-24.5-12.2-38.3-12.2c-36.5,0-66.2,29.7-66.2,66.2s29.7,66.2,66.2,66.2s66.2-29.7,66.2-66.2
				c0-7.7-1.3-15.3-3.9-22.5c-1.2-3.3,0.5-6.9,3.8-8.1c3.3-1.2,6.9,0.5,8.1,3.8c3.1,8.6,4.7,17.6,4.7,26.8
				C340.3,196,305,231.3,261.5,231.3z"/>
			<path class="st1" d="M331.7,98.6c-1.5,2.4-3.1,4.8-4.6,7.2c-4,5.8-7.9,11.7-11.7,17.7c-4.7,7.1-9.4,14.1-14.1,21.2
				c-4.2,6.3-8.4,12.7-12.6,19c-2.4,3.5-4.6,7-7,10.4c-3,4.1-9.3,7.2-14.2,4.7c-1.9-0.9-4.3-2.8-5.6-4.6c-0.2-0.3-0.3-0.5-0.6-0.8
				c-0.5-0.8-1-1.4-1.5-2.2c-0.8-1.1-1.5-2.2-2.3-3.3c-0.9-1.4-1.9-2.6-2.9-4c-1-1.5-2.1-3-3.1-4.5c-1.1-1.6-2.2-3.1-3.3-4.6
				c-1-1.4-2.1-3-3.1-4.5c-0.9-1.4-1.9-2.7-2.9-4.1c-0.7-1-1.4-2-2.2-3.1c-0.6-0.8-1.2-1.7-1.8-2.5c-0.1-0.1-0.2-0.3-0.3-0.4
				c-0.5-0.8-0.8-1.8-0.9-2.8c-0.2-1.5,0.4-3.1,1.4-4.2c0.9-0.9,2.2-1.6,3.5-1.9c0,0,1.7-0.6,4.5,1.2l23.9,20c1.7-1.9,3.3-3.8,5-5.7
				c4.1-4.6,8.2-9.4,12.2-14c5.1-5.7,10.1-11.6,15-17.3c4.6-5.2,9.1-10.3,13.6-15.5c2.6-3.1,5.2-6.3,8.3-9.1
				c2.4-2.2,5.2-1.1,7.3,0.9C331.7,91.7,334.6,94.7,331.7,98.6z"/>
		</g>
	</g>
</g>
</svg>
