<?xml version="1.0" encoding="utf-8"?>
<!-- Generator: Adobe Illustrator 19.2.0, SVG Export Plug-In . SVG Version: 6.00 Build 0)  -->
<svg version="1.1" id="Layer_1" xmlns="http://www.w3.org/2000/svg" xmlns:xlink="http://www.w3.org/1999/xlink" x="0px" y="0px"
	 viewBox="0 0 512 512" style="enable-background:new 0 0 512 512;" xml:space="preserve">
<style type="text/css">
	.st0{fill:#2D78BD;}
	.st1{fill:#000222;}
</style>
<g>
	<g>
		<path class="st0" d="M32.9,12.5c-2.2,6-6.2,11.3-11.9,15.8c-5.9,4.5-11.2,7.5-16.1,9.2v17.2c9.3-3.1,17.5-7.8,24.4-14.3v71.4h18.9
			V12.5L32.9,12.5L32.9,12.5z"/>
		<path class="st0" d="M130.9,22.8c-5.3-6.9-12.9-10.3-22.4-10.3c-9.5,0-17.1,3.3-22.4,10c-6.5,8.2-9.7,21.6-9.7,40.2
			c0,18.9,2.9,32.1,8.9,39.6c1.4,1.8,2.8,3.2,4.4,4.6c3.8-4.2,7.8-8.2,12.1-12c-1.6-1.6-2.8-4.2-3.9-8c-1.2-4.4-1.7-12.3-1.7-24
			c0-11.6,0.6-19.8,1.9-24.7c1-3.8,2.4-6.4,4.2-7.8c1.9-1.5,3.9-2.2,6.2-2.2c2.3,0,4.3,0.7,6.1,2.2s3.2,4.3,4.4,8.7
			c1.3,4.3,1.8,12.2,1.8,23.9c0,7.1-0.2,13.1-0.7,17.6c6.6-4.5,13.4-8.6,20.5-12.1c0.1-1.8,0.1-3.6,0.1-5.4
			C140.6,44.2,137.4,30.8,130.9,22.8z"/>
		<path class="st0" d="M207.7,22.8c-5.3-6.9-12.9-10.3-22.4-10.3c-9.6,0-17.1,3.3-22.4,10c-6.5,8.2-9.7,21.4-9.7,39.9
			c6.5-2.7,13.1-5,19.9-6.8c0.2-7.8,0.9-13.6,1.9-17.4c1-3.8,2.4-6.4,4.2-7.8s3.9-2.2,6.2-2.2s4.3,0.7,6.1,2.2s3.2,4.3,4.4,8.7
			c0.6,2.5,1.2,6.3,1.5,11.3c6.4-0.9,12.8-1.5,19.4-1.7C215.3,37.2,212.4,28.6,207.7,22.8z"/>
		<path class="st0" d="M263.1,12.5c-2.2,6-6.2,11.3-11.9,15.8c-5.9,4.5-11.2,7.5-16.1,9.2v17.2c3.7-1.3,7.1-2.7,10.5-4.6
			c5.1-2.5,9.7-5.8,14-9.7v12c6.5,1.4,12.8,3,18.9,5.1v-45H263.1z"/>
		<path class="st0" d="M332.3,12.5c-2.2,6-6.2,11.3-11.9,15.8c-5.9,4.5-11.2,7.5-16.1,9.2v17.2c9.3-3.1,17.5-7.8,24.4-14.3V83
			c6.7,4.8,13,10.1,18.9,15.8V12.5L332.3,12.5L332.3,12.5z"/>
		<path class="st0" d="M430.5,22.8c-5.4-6.9-13-10.3-22.5-10.3c-9.5,0-17.1,3.3-22.4,10c-6.5,8.2-9.7,21.6-9.7,40.2
			c0,18.9,3,32.1,8.9,39.6c5.9,7.4,13.6,11.1,23.2,11.1c9.5,0,17.1-3.3,22.4-10.1c6.5-8.2,9.7-21.6,9.7-40.3
			C440.1,44.2,436.8,30.8,430.5,22.8z M418.3,87.6c-1,3.8-2.4,6.4-4.2,7.8c-1.9,1.5-3.9,2.2-6.2,2.2s-4.3-0.7-6.1-2.2
			c-1.8-1.4-3.2-4.3-4.4-8.6c-1.3-4.4-1.8-12.3-1.8-24c0-11.6,0.6-19.8,1.9-24.7c1-3.8,2.4-6.4,4.2-7.8c1.9-1.5,3.9-2.2,6.2-2.2
			s4.3,0.7,6.1,2.2s3.2,4.3,4.4,8.7c1.3,4.3,1.8,12.2,1.8,23.9C420.2,74.5,419.6,82.8,418.3,87.6z"/>
	</g>
	<path class="st0" d="M32.9,341.7c-2.2,6.1-6.2,11.3-11.9,15.8c-5.9,4.6-11.2,7.6-16.1,9.2v17.3c9.3-3.1,17.5-8,24.4-14.4V441h18.9
		v-99.3L32.9,341.7L32.9,341.7z"/>
	<path class="st0" d="M120.4,378.9c0.2,3.7,0.3,8.2,0.3,13.3c0,11.6-0.6,19.8-1.9,24.7c-1,3.8-2.4,6.4-4.2,7.8
		c-1.9,1.5-3.9,2.2-6.2,2.2c-2.3,0-4.3-0.7-6.1-2.2s-3.2-4.3-4.5-8.7c-1.2-4.3-1.7-12.2-1.7-23.9s0.6-19.9,1.9-24.7
		c0.5-2,1.2-3.6,1.8-4.9c-4.3-3.9-8.4-8.1-12.3-12.5c-0.5,0.5-1,1-1.5,1.7c-6.5,8.2-9.7,21.6-9.7,40.2c0,18.9,2.9,32.1,8.9,39.6
		c5.9,7.3,13.6,11.1,23.2,11.1c9.5,0,17.1-3.3,22.4-10.1c6.5-8.2,9.7-21.6,9.7-40.3v-1.3C133.6,387.4,126.9,383.4,120.4,378.9z"/>
	<path class="st0" d="M182.8,406.1V441h18.9v-31.6C195.4,408.7,189,407.6,182.8,406.1z"/>
	<path class="st0" d="M274,403.1c-0.2,6.1-0.8,10.6-1.7,13.8c-0.9,3.8-2.4,6.4-4.2,7.8s-3.9,2.2-6.2,2.2s-4.3-0.7-6.1-2.2
		c-1.8-1.5-3.2-4.3-4.4-8.7c-0.5-1.9-0.9-4.4-1.2-7.5c-6.3,0.9-12.7,1.6-19.1,1.9c1.3,9.4,3.8,16.4,7.5,21.1
		c5.9,7.3,13.6,11.1,23.2,11.1c9.6,0,17.1-3.3,22.4-10.1c6.1-7.6,9.3-19.8,9.6-36.6C287.5,398.7,280.9,401.1,274,403.1z"/>
	<path class="st0" d="M32.9,173.5c-2.2,6-6.2,11.3-11.9,15.8c-5.9,4.5-11.2,7.5-16.1,9.2v17.2c9.3-3.1,17.5-7.8,24.4-14.3v71.4h18.9
		v-99.2L32.9,173.5L32.9,173.5z"/>
	<path class="st0" d="M174.7,153.1c-3.1,8.4-8.7,15.9-16.8,22.3s-15.8,10.6-22.7,13v24.2c13.3-4.4,24.8-11.1,34.5-20.2v100.7h26.7
		V153.1H174.7z"/>
	<path class="st0" d="M272.3,153.1c-3.1,8.4-8.7,15.9-16.8,22.3c-8.3,6.3-15.8,10.6-22.7,13v24.2c13.3-4.4,24.8-11.1,34.5-20.2
		v100.7H294V153.1H272.3z"/>
	<path class="st0" d="M430.5,183.8c-5.4-6.9-13-10.3-22.5-10.3c-4.6,0-8.8,0.8-12.5,2.4c1.8,5.8,3.3,11.6,4.5,17.6
		c0.5-0.8,1.2-1.6,1.8-2.1c1.9-1.5,3.9-2.2,6.2-2.2s4.3,0.7,6.1,2.2c1.8,1.5,3.2,4.4,4.4,8.7c1.3,4.3,1.8,12.3,1.8,23.9
		c0,11.6-0.6,19.9-1.9,24.7c-1,3.8-2.4,6.4-4.2,7.8c-1.9,1.5-3.9,2.2-6.2,2.2s-4.3-0.7-6.1-2.2c-0.1,0-0.1-0.1-0.2-0.2
		c-0.8,5.6-1.9,11.2-3.3,16.6c2.9,1,6.2,1.5,9.6,1.5c9.5,0,17.1-3.3,22.4-10c6.5-8.3,9.7-21.7,9.7-40.4S436.8,191.8,430.5,183.8z"/>
	<path class="st1" d="M490.4,417.8L398,326.5c-2.6-2.5-6.7-3.7-10.7-3.1c-2.7,0.4-5,1.5-6.7,3.3c-2.3,2.3-3.6,5.4-3.6,8.7
		c-0.1,3.4,1.2,6.5,3.6,8.8l92.5,91.3c5.1,5,8.4,11.4,9.2,17.5c0.4,2.9,0.4,8.4-3.2,12.2l-6,6.1c-1.8,1.8-4.2,3-7,3.4
		c-7.2,1.1-16.1-2.5-22.8-9l-92.4-91.3c-2.7-2.7-6.6-3.9-10.7-3.3c-2.7,0.4-5.1,1.5-6.8,3.3c-2.3,2.3-3.6,5.5-3.7,8.8
		c0,3.2,1.3,6.4,3.7,8.7l92.4,91.3c12.4,12.1,28.8,18.1,43.8,15.8l0.1,0c8.2-1.2,15.4-4.8,20.9-10.4l6-6.1
		c8.1-8.2,11.8-20.1,10.2-32.7C505.3,438.1,499.5,426.8,490.4,417.8z"/>
	<path class="st0" d="M222.6,74.7c-85.4,0-154.9,69.5-154.9,154.9s69.5,154.9,154.9,154.9S377.5,315,377.5,229.6
		S308,74.7,222.6,74.7z M342.4,229.6c0,66.1-53.8,119.8-119.8,119.8c-66.1,0-119.8-53.8-119.8-119.8s53.8-119.8,119.8-119.8
		C288.7,109.7,342.4,163.5,342.4,229.6z"/>
	<path class="st1" d="M222.6,74.7c-85.4,0-154.9,69.5-154.9,154.9s69.5,154.9,154.9,154.9S377.5,315,377.5,229.6
		S308,74.7,222.6,74.7z M342.4,229.6c0,66.1-53.8,119.8-119.8,119.8c-66.1,0-119.8-53.8-119.8-119.8s53.8-119.8,119.8-119.8
		C288.7,109.7,342.4,163.5,342.4,229.6z"/>
</g>
</svg>
