<?xml version="1.0" encoding="utf-8"?>
<!-- Generator: Adobe Illustrator 19.2.0, SVG Export Plug-In . SVG Version: 6.00 Build 0)  -->
<svg version="1.1" id="Layer_1" xmlns="http://www.w3.org/2000/svg" xmlns:xlink="http://www.w3.org/1999/xlink" x="0px" y="0px"
	 viewBox="0 0 512 512" style="enable-background:new 0 0 512 512;" xml:space="preserve">
<style type="text/css">
	.st0{fill:#000222;}
	.st1{fill:#2D78BD;}
</style>
<g>
	<g>
		<path class="st0" d="M327.7,167.3c-4-0.4-7.8-0.8-11.8-1.2c-9.4-0.9-18.2-1.9-26.7-3.4c-32.1-6-61.9-18.8-90.6-39
			c-10.4-7.5-22.9-8-34.1-0.9l-3.3,2.1c-7.6,4.9-14.9,9.5-22.2,13.4c-30.8,16.5-65,25.9-104.7,28.8c-25.6,2-28.4,21.9-28.4,29.9
			c-0.1,5.3-0.1,10.7,0,16v7.7c0.4,25.9,2.6,49.2,6.9,71.3c7.6,38.3,20.2,70.8,38.5,99.5c26.9,42.4,65.9,75.6,116.1,99
			c3.8,1.7,8.3,2.6,12.7,2.6c5.6,0,10.8-1.4,14.8-3.8c57.8-33,100.4-78.4,126.7-134.9c21.1-45.6,31.8-97.3,32.7-158.3
			C354.2,182.9,345.8,168.9,327.7,167.3z M300.2,344.5c-25.2,54.3-65.3,94.9-117,124.4c-1.5,0.9-4.4,0.9-6.1,0.1
			c-43.6-20.3-80-49.3-105.9-90.1c-18-28.1-28.8-59-35.4-91.5c-4.3-22.1-6.1-44.5-6.4-67.1c0-7.5-0.1-15.2,0-22.9
			c0-5.8,0.9-6.4,6.8-6.9c40-3,78.3-12.5,113.9-31.5c9.2-5,18.1-10.7,27-16.4c2.9-1.9,5-1.9,7.8,0.1c30.5,21.3,63.6,36.2,100.1,43
			c13.2,2.4,26.8,3.4,40.1,4.9c3.5,0.3,5.6,1.2,5.6,5.4C330,247.5,322,297.4,300.2,344.5z"/>
		<path class="st1" d="M256.5,225.4c-4.9,0-9.7,2-13.3,5.6c-13.1,13-29.3,28.5-45,43.6c-16.3,15.6-33.1,31.8-46.7,45.3c0,0,0,0,0,0
			c-0.2-0.2-0.4-0.4-0.6-0.6L117,285c-4.2-4.3-9.1-6.2-14.7-5.8c-7.6,0.6-13.2,4.9-15.8,11.9c-2.6,7.2-1,13.9,4.5,19.4
			c17.9,18.1,29.4,29.7,47.4,47.6c2,2,4.6,3.7,7.2,4.5c2.1,0.7,4.2,1,6.2,1c0,0,0,0,0,0c5,0,9.6-2.1,13.7-6.2
			c15.4-15.3,34.1-33.4,52.3-50.8c17.6-17,35.9-34.5,50.9-49.5c0.4-0.4,0.9-0.9,1.3-1.3c5.3-5.9,6.1-15.1,1.9-21.9
			C268.5,228.6,262.8,225.4,256.5,225.4z"/>
	</g>
	<path class="st1" d="M252.3,23.5c-3.7,6.5-4.3,11.9-1.5,17.3c3,5.9,8.2,8.7,15,8.2c19.5-1.6,38.8-0.6,57.9,3.5
		c81.5,17.6,142.5,84.3,152.6,167.1c0.3,2.4,0.5,4.8,0.9,7.2c1.4,8.4,7.8,13.5,15.8,12.8c8.4-0.8,13.9-7.2,13.2-16.1
		c-1.8-22.7-7.1-44.6-15.8-65.6c-37-89.9-127.1-145.6-224-138.4C261.6,20,256.9,22.2,252.3,23.5z"/>
	<path class="st1" d="M271.1,119.3c4.6,0.7,9.2,2.1,13.8,1.8c29.7-1.4,56.2,6.9,78.9,26c22.3,18.8,34.9,42.9,38.9,71.9
		c0.6,4.7,2.7,10,5.9,13.5c3.9,4.3,9.9,4.7,15.5,1.9c6.2-3.1,8.6-8.4,8-15c-2.4-26-10.8-49.8-26.8-70.5
		c-31.3-40.6-72.7-59.8-124.1-56.8c-7,0.4-12.1,3.8-14.2,10.5C265,108.4,266.5,113.7,271.1,119.3z"/>
</g>
</svg>
