<?xml version="1.0" encoding="UTF-8"?>
<svg width="76px" height="72px" viewBox="0 0 76 72" version="1.1" xmlns="http://www.w3.org/2000/svg" xmlns:xlink="http://www.w3.org/1999/xlink">
    <!-- Generator: Sketch 46.2 (44496) - http://www.bohemiancoding.com/sketch -->
    <title>gsuite</title>
    <desc>Created with Sketch.</desc>
    <defs>
        <path d="M75.0783184,29.4440799 L38.8640707,29.4440799 L38.8640707,43.3482288 L59.709345,43.3482288 C57.7661414,52.1814528 49.6400176,57.2523776 38.8640707,57.2523776 C26.1449203,57.2523776 15.898938,47.7648408 15.898938,35.9872088 C15.898938,24.2095768 26.1449203,14.72204 38.8640707,14.72204 C44.3403716,14.72204 49.2867078,16.5214004 53.1731149,19.4658084 L64.4790264,8.9968022 C57.5894866,3.43514266 48.7567432,0 38.8640707,0 C17.3121769,0 0,16.0306657 0,35.9872088 C0,55.9437519 17.3121769,71.9744176 38.8640707,71.9744176 C58.296106,71.9744176 75.9615927,58.8881599 75.9615927,35.9872088 C75.9615927,33.8606919 75.608283,31.5705968 75.0783184,29.4440799 Z" id="path-1"></path>
        <path d="M75.0783184,29.4440799 L38.8640707,29.4440799 L38.8640707,43.3482288 L59.709345,43.3482288 C57.7661414,52.1814528 49.6400176,57.2523776 38.8640707,57.2523776 C26.1449203,57.2523776 15.898938,47.7648408 15.898938,35.9872088 C15.898938,24.2095768 26.1449203,14.72204 38.8640707,14.72204 C44.3403716,14.72204 49.2867078,16.5214004 53.1731149,19.4658084 L64.4790264,8.9968022 C57.5894866,3.43514266 48.7567432,0 38.8640707,0 C17.3121769,0 0,16.0306657 0,35.9872088 C0,55.9437519 17.3121769,71.9744176 38.8640707,71.9744176 C58.296106,71.9744176 75.9615927,58.8881599 75.9615927,35.9872088 C75.9615927,33.8606919 75.608283,31.5705968 75.0783184,29.4440799 Z" id="path-3"></path>
        <path d="M75.0783184,29.4440799 L38.8640707,29.4440799 L38.8640707,43.3482288 L59.709345,43.3482288 C57.7661414,52.1814528 49.6400176,57.2523776 38.8640707,57.2523776 C26.1449203,57.2523776 15.898938,47.7648408 15.898938,35.9872088 C15.898938,24.2095768 26.1449203,14.72204 38.8640707,14.72204 C44.3403716,14.72204 49.2867078,16.5214004 53.1731149,19.4658084 L64.4790264,8.9968022 C57.5894866,3.43514266 48.7567432,0 38.8640707,0 C17.3121769,0 0,16.0306657 0,35.9872088 C0,55.9437519 17.3121769,71.9744176 38.8640707,71.9744176 C58.296106,71.9744176 75.9615927,58.8881599 75.9615927,35.9872088 C75.9615927,33.8606919 75.608283,31.5705968 75.0783184,29.4440799 Z" id="path-5"></path>
        <path d="M75.0783184,29.4440799 L38.8640707,29.4440799 L38.8640707,43.3482288 L59.709345,43.3482288 C57.7661414,52.1814528 49.6400176,57.2523776 38.8640707,57.2523776 C26.1449203,57.2523776 15.898938,47.7648408 15.898938,35.9872088 C15.898938,24.2095768 26.1449203,14.72204 38.8640707,14.72204 C44.3403716,14.72204 49.2867078,16.5214004 53.1731149,19.4658084 L64.4790264,8.9968022 C57.5894866,3.43514266 48.7567432,0 38.8640707,0 C17.3121769,0 0,16.0306657 0,35.9872088 C0,55.9437519 17.3121769,71.9744176 38.8640707,71.9744176 C58.296106,71.9744176 75.9615927,58.8881599 75.9615927,35.9872088 C75.9615927,33.8606919 75.608283,31.5705968 75.0783184,29.4440799 Z" id="path-7"></path>
    </defs>
    <g id="Page-1" stroke="none" stroke-width="1" fill="none" fill-rule="evenodd">
        <g id="gsuite">
            <g id="Clipped">
                <mask id="mask-2" fill="white">
                    <use xlink:href="#path-1"></use>
                </mask>
                <g id="a"></g>
                <polygon id="Shape" fill="#FBBC05" fill-rule="nonzero" mask="url(#mask-2)" points="-3.53309734 57.2523776 -3.53309734 14.72204 26.49823 35.9872088"></polygon>
            </g>
            <g id="Clipped">
                <mask id="mask-4" fill="white">
                    <use xlink:href="#path-3"></use>
                </mask>
                <g id="a"></g>
                <polygon id="Shape" fill="#EA4335" fill-rule="nonzero" mask="url(#mask-4)" points="-3.53309734 14.72204 26.49823 35.9872088 38.8640707 26.0089373 81.2612387 19.6293866 81.2612387 -3.27156444 -3.53309734 -3.27156444"></polygon>
            </g>
            <g id="Clipped">
                <mask id="mask-6" fill="white">
                    <use xlink:href="#path-5"></use>
                </mask>
                <g id="a"></g>
                <polygon id="Shape" fill="#34A853" fill-rule="nonzero" mask="url(#mask-6)" points="-3.53309734 57.2523776 49.4633627 19.6293866 63.4190972 21.2651688 81.2612387 -3.27156444 81.2612387 75.245982 -3.53309734 75.245982"></polygon>
            </g>
            <g id="Clipped">
                <mask id="mask-8" fill="white">
                    <use xlink:href="#path-7"></use>
                </mask>
                <g id="a"></g>
                <polygon id="Shape" fill="#4285F4" fill-rule="nonzero" mask="url(#mask-8)" points="81.2612387 75.245982 26.49823 35.9872088 19.4320353 31.0798621 81.2612387 14.72204"></polygon>
            </g>
        </g>
    </g>
</svg>