<?xml version="1.0" encoding="utf-8"?>
<!-- Generator: Adobe Illustrator 19.2.0, SVG Export Plug-In . SVG Version: 6.00 Build 0)  -->
<svg version="1.1" id="Layer_1" xmlns="http://www.w3.org/2000/svg" xmlns:xlink="http://www.w3.org/1999/xlink" x="0px" y="0px"
	 viewBox="0 0 512 512" style="enable-background:new 0 0 512 512;" xml:space="preserve">
<style type="text/css">
	.st0{fill:#2D78BD;}
	.st1{fill:#000222;}
</style>
<g>
	<circle class="st0" cx="256" cy="54.6" r="47.9"/>
	<circle class="st0" cx="457.4" cy="256" r="47.9"/>
	<circle class="st0" cx="256" cy="457.4" r="47.9"/>
	<circle class="st0" cx="54.6" cy="256" r="47.9"/>
	<path class="st1" d="M59.4,181.5c17.7-45.9,51-83.7,94-107.2l-10.2-0.1c-1.2,0-2.3-0.5-3.2-1.4s-1.3-2-1.3-3.2
		c0-2.4,1.9-4.4,4.2-4.5c0.1,0,0.3,0,0.4,0l24.3,0.2c2.3,0,4.4,1.3,5.5,3.2c1.1,2,1.1,4.4-0.1,6.4l-12.4,21
		c-0.8,1.3-2.2,2.1-3.7,2.2c-0.9,0-1.8-0.2-2.5-0.6c-1-0.6-1.8-1.6-2.1-2.8c-0.3-1.2-0.1-2.4,0.5-3.4l4.7-8
		c-40.8,22.4-72.4,58.2-89.1,101.7c-0.7,1.9-2.5,3.1-4.3,3.2c-0.7,0-1.4-0.1-2-0.3C59.7,186.9,58.4,184.1,59.4,181.5z"/>
	<path class="st1" d="M342.8,63.9c44.7,20.4,80.4,56,101.2,100.4l0.7-10.1c0.1-1.2,0.6-2.3,1.6-3.1c0.9-0.8,2.1-1.2,3.3-1.1
		c2.4,0.2,4.2,2.1,4.2,4.5c0,0.1,0,0.3,0,0.4l-1.7,24.3c-0.2,2.3-1.5,4.3-3.6,5.3c-2,1-4.5,0.8-6.4-0.4l-20.2-13.6
		c-1.3-0.9-2-2.3-2-3.8c0-0.9,0.3-1.8,0.8-2.5c0.7-1,1.7-1.7,2.9-1.9c1.2-0.2,2.4,0,3.4,0.7l7.7,5.2c-19.8-42.1-53.6-75.8-96-95.2
		c-1.8-0.8-2.9-2.6-2.9-4.5c0-0.7,0.1-1.3,0.4-2C337.4,63.9,340.3,62.8,342.8,63.9z"/>
	<path class="st1" d="M447.9,343.7c-20.7,44.6-56.5,80-101.1,100.5l10.1,0.8c1.2,0.1,2.3,0.7,3.1,1.6c0.8,0.9,1.2,2.1,1.1,3.3
		c-0.2,2.4-2.2,4.2-4.5,4.2c-0.1,0-0.3,0-0.4,0l-24.2-1.9c-2.3-0.2-4.3-1.6-5.3-3.6c-1-2.1-0.8-4.5,0.5-6.4l13.8-20.1
		c0.9-1.3,2.3-2,3.8-2c0.9,0,1.8,0.3,2.5,0.8c1,0.7,1.7,1.7,1.9,2.9c0.2,1.2,0,2.4-0.7,3.4l-5.3,7.7c42.2-19.5,76.1-53.1,95.8-95.4
		c0.8-1.8,2.7-2.9,4.6-2.8c0.7,0,1.3,0.2,2,0.5C448,338.3,449,341.2,447.9,343.7z"/>
	<path class="st1" d="M172.9,449.3c-45-19.8-81.3-54.8-102.7-98.9l-0.6,10.1c-0.1,1.2-0.6,2.3-1.5,3.1c-0.9,0.8-2.1,1.2-3.3,1.1
		c-2.4-0.1-4.3-2.1-4.3-4.4c0-0.1,0-0.3,0-0.4l1.4-24.3c0.1-2.3,1.5-4.3,3.5-5.4c2-1,4.5-0.9,6.4,0.4l20.4,13.3
		c1.3,0.8,2,2.2,2.1,3.8c0,0.9-0.3,1.8-0.7,2.5c-0.7,1-1.7,1.7-2.9,2c-1.2,0.2-2.4,0-3.4-0.6l-7.8-5.1c20.4,41.8,54.8,75,97.4,93.7
		c1.8,0.8,2.9,2.6,2.9,4.5c0,0.7-0.1,1.3-0.4,2C178.3,449.3,175.4,450.4,172.9,449.3z"/>
	<g>
		<path class="st1" d="M372.8,336.9l-49.1-48.4c-1.4-1.3-3.5-2-5.7-1.7c-1.4,0.2-2.7,0.8-3.6,1.7c-1.2,1.2-1.9,2.9-1.9,4.6
			c0,1.8,0.6,3.4,1.9,4.7l49.1,48.4c2.7,2.7,4.5,6,4.9,9.3c0.2,1.6,0.2,4.5-1.7,6.4l-3.2,3.2c-1,1-2.2,1.6-3.7,1.8
			c-3.8,0.6-8.5-1.3-12.1-4.8l-49-48.4c-1.4-1.4-3.5-2.1-5.7-1.7c-1.5,0.2-2.7,0.8-3.6,1.8c-1.2,1.2-1.9,2.9-1.9,4.7
			c0,1.7,0.7,3.4,2,4.6l49,48.4c6.6,6.4,15.3,9.6,23.3,8.4l0,0c4.3-0.6,8.2-2.5,11.1-5.5l3.2-3.2c4.3-4.3,6.3-10.7,5.4-17.4
			C380.7,347.7,377.6,341.6,372.8,336.9z"/>
		<path class="st1" d="M230.8,154.9c-45.3,0-82.1,36.9-82.1,82.1s36.8,82.1,82.1,82.1s82.1-36.9,82.1-82.1S276.1,154.9,230.8,154.9z
			 M294.3,237c0,35.1-28.5,63.6-63.6,63.6c-35.1,0-63.6-28.5-63.6-63.6s28.5-63.6,63.6-63.6C265.8,173.5,294.3,202,294.3,237z"/>
	</g>
</g>
</svg>
