<?xml version="1.0" encoding="utf-8"?>
<!-- Generator: Adobe Illustrator 19.2.0, SVG Export Plug-In . SVG Version: 6.00 Build 0)  -->
<svg version="1.1" id="Layer_1" xmlns="http://www.w3.org/2000/svg" xmlns:xlink="http://www.w3.org/1999/xlink" x="0px" y="0px"
	 viewBox="0 0 512 512" style="enable-background:new 0 0 512 512;" xml:space="preserve">
<style type="text/css">
	.st0{fill:#2E79BE;}
	.st1{fill:#2D3E4F;}
	.st2{fill:#000222;}
</style>
<g>
	<path class="st0" d="M352.1,153c0,8.8-0.2,17.6,0.1,26.4c0.2,6.7-4.2,13.9-13.6,14c-17.8,0.2-35.6,0.2-53.4,0
		c-8.2-0.1-13.5-5.9-13.5-14.1c0-17.4,0-34.8,0-52.1c0-9.1,5.6-14.6,14.7-14.6c17.1,0,34.1,0,51.2,0c9.4,0,15,6.8,14.6,14.7
		C351.8,135.8,352.1,144.4,352.1,153z"/>
	<path class="st0" d="M54.6,153c0-8.8,0.2-17.6-0.1-26.4c-0.2-6.6,4.3-13.8,13.7-13.9c17.7-0.2,35.4-0.2,53.1,0
		c8.4,0.1,13.6,6,13.6,14.4c0,17.3,0,34.6,0,51.9c0,8.9-5.3,14.5-14.1,14.6c-17.6,0.2-35.2,0.1-52.8,0c-8-0.1-13.5-5.8-13.5-13.8
		C54.5,170.8,54.6,161.9,54.6,153C54.6,153,54.6,153,54.6,153z"/>
	<path class="st0" d="M203.4,4.2c8.9,0,17.8,0,26.7,0c8,0.1,13.7,5.6,13.7,13.6c0.1,17.5,0.1,35,0,52.5c-0.1,9-5.7,14.3-14.7,14.3
		c-17.3,0-34.6,0-51.9,0c-8.4,0-14.3-5.4-14.3-13.7c-0.2-17.6-0.2-35.2,0-52.8c0.1-9.3,6.9-14.2,14-14
		C185.8,4.5,194.6,4.2,203.4,4.2C203.4,4.2,203.4,4.2,203.4,4.2z"/>
	<path class="st0" d="M312.1,4.3c9,0,18,0,27,0c7.7,0.1,12.9,5.3,13,13c0.1,18.2,0.1,36.5,0,54.7c0,6.9-5.8,12.7-12.8,12.7
		c-18.1,0-36.2,0-54.4,0c-7.5,0-13.2-5.8-13.2-13.3c0-18,0-36,0-54c0-7.5,5.5-13,13-13C293.9,4.2,303,4.3,312.1,4.3z"/>
	<path class="st0" d="M54.6,44.2c0-9.1,0-18.2,0-27.4c0-7.1,5.4-12.5,12.4-12.6c18.3-0.1,36.7-0.1,55,0c7.3,0,12.9,5.6,12.9,12.9
		c0.1,18.2,0.1,36.5,0,54.7c0,6.7-5.9,12.7-12.6,12.7c-18.3,0.1-36.7,0.1-55,0c-7.1,0-12.7-5.6-12.7-12.7
		C54.6,62.7,54.6,53.4,54.6,44.2z"/>
	<g>
		<path class="st1" d="M445.1,409c-1.5-4.3-4-7.9-6.6-11.7c-3.1-4.6-3.7-10.5-4.2-15.8c-0.5-5.8-1.4-11.1-2.6-16.7
			c-2.2-11.8-4.5-23.6-6.9-35.4c-2.2-10.6-4.6-21.1-7.4-31.7c-4.9-18.1-12.2-35.7-19.8-53c-5.3-12.2-15.9-18.4-29.5-18.6
			c-4.4-0.1-8.9,0.2-13.4,1c-26.3,4.3-52.8,8.7-79.1,13c-10.8,1.8-19.2-3.2-23.4-13.1c-10.3-24.7-20.8-49.2-31.1-73.9
			c-3.9-9.4-10.4-16.6-19.8-20.6c-11.1-4.9-23.9,1.1-26,13c-1.3,6.6-1.5,13.9,0.3,20.1c14,46.9,28.5,93.7,42.9,140.4
			c5,16.4,10,32.7,15.1,49.5c-2-0.1-3.3-0.1-4.8-0.1c-14.9-0.7-30-1.7-44.9-1.3c-16.3,0.5-32,5-46.5,13.1c-5.9,3.3-11,7.5-13.8,14.1
			c-5.1,12.7,1.3,22.9,14.7,23.1c6.4,0.1,12.7-0.6,18.9-1.2c11.9-1.3,23.6-2.8,35.5,0.3c20.9,5.4,40.6,14.4,60.1,23.3
			c6,2.7,11.8,5.4,18,7.9c3,1.4,6,2.7,9.1,3.9c1.9,0.9,4.5,1.3,6,2.9c2.1,2.1,0.9,5,0.6,7.6c-0.3,4,0.9,7.8,2.2,11.7
			c3.3,10.5,6.5,20.9,9.7,31.5c4.2,13.3,13.9,18.5,27.3,14.4c39.1-12,78.2-24.2,117.4-36.3c12-3.7,16.8-12.6,13.1-24.8
			c-2.4-7.9-4.9-15.9-7.3-23.8C447.7,417.5,446.6,413.1,445.1,409z M434.6,457.9l-111.5,33.4c-4.9,1.5-10.1-1.3-11.6-6.2l-9.7-32.6
			c-1.4-4.7,1.4-10,6.2-11.5l111.5-33.3c4.9-1.5,10,1.4,11.5,6.2l9.8,32.4C442.3,451.4,439.5,456.5,434.6,457.9z"/>
		<path class="st2" d="M445.1,409c-1.5-4.3-4-7.9-6.6-11.7c-3.1-4.6-3.7-10.5-4.2-15.8c-0.5-5.8-1.4-11.1-2.6-16.7
			c-2.2-11.8-4.5-23.6-6.9-35.4c-2.2-10.6-4.6-21.1-7.4-31.7c-4.9-18.1-12.2-35.7-19.8-53c-5.3-12.2-15.9-18.4-29.5-18.6
			c-4.4-0.1-8.9,0.2-13.4,1c-26.3,4.3-52.8,8.7-79.1,13c-10.8,1.8-19.2-3.2-23.4-13.1c-10.3-24.7-20.8-49.2-31.1-73.9
			c-3.9-9.4-10.4-16.6-19.8-20.6c-11.1-4.9-23.9,1.1-26,13c-1.3,6.6-1.5,13.9,0.3,20.1c14,46.9,28.5,93.7,42.9,140.4
			c5,16.4,10,32.7,15.1,49.5c-2-0.1-3.3-0.1-4.8-0.1c-14.9-0.7-30-1.7-44.9-1.3c-16.3,0.5-32,5-46.5,13.1c-5.9,3.3-11,7.5-13.8,14.1
			c-5.1,12.7,1.3,22.9,14.7,23.1c6.4,0.1,12.7-0.6,18.9-1.2c11.9-1.3,23.6-2.8,35.5,0.3c20.9,5.4,40.6,14.4,60.1,23.3
			c6,2.7,11.8,5.4,18,7.9c3,1.4,6,2.7,9.1,3.9c1.9,0.9,4.5,1.3,6,2.9c2.1,2.1,0.9,5,0.6,7.6c-0.3,4,0.9,7.8,2.2,11.7
			c3.3,10.5,6.5,20.9,9.7,31.5c4.2,13.3,13.9,18.5,27.3,14.4c39.1-12,78.2-24.2,117.4-36.3c12-3.7,16.8-12.6,13.1-24.8
			c-2.4-7.9-4.9-15.9-7.3-23.8C447.7,417.5,446.6,413.1,445.1,409z M434.6,457.9l-111.5,33.4c-4.9,1.5-10.1-1.3-11.6-6.2l-9.7-32.6
			c-1.4-4.7,1.4-10,6.2-11.5l111.5-33.3c4.9-1.5,10,1.4,11.5,6.2l9.8,32.4C442.3,451.4,439.5,456.5,434.6,457.9z"/>
	</g>
</g>
</svg>
