<?xml version="1.0" encoding="utf-8"?>
<!-- Generator: Adobe Illustrator 19.2.0, SVG Export Plug-In . SVG Version: 6.00 Build 0)  -->
<svg version="1.1" id="Layer_1" xmlns="http://www.w3.org/2000/svg" xmlns:xlink="http://www.w3.org/1999/xlink" x="0px" y="0px"
	 viewBox="0 0 512 512" style="enable-background:new 0 0 512 512;" xml:space="preserve">
<style type="text/css">
	.st0{fill:#2D78BD;}
	.st1{fill:#000222;}
</style>
<g>
	<path class="st0" d="M266,301.2c0,12.2,0,24.1,0,36.4c-6.5,0-12.6,0-19.3,0c0-12,0-24.1,0-36.7c-2.7,0-4.9,0-7,0
		c-42.6,0-69.5,0-112.1,0c-21,0-35.5,12.5-38.8,33.4c-0.2,1.1-0.5,2.1-0.8,3.4c-6,0-11.9,0-19.3,0c1.3-6.4,1.9-12.7,3.9-18.5
		c7.6-22.5,29.2-37.7,53.2-37.7c43-0.1,70.2,0,113.2,0c2.3,0,4.6,0,7.4,0c0-13.1,0-25.7,0-38.8c6.6,0,12.8,0,19.4,0
		c0,12.7,0,25.3,0,38.8c2.5,0,4.6,0,6.7,0c43,0,70.2,0,113.2,0c28.3,0,50.8,18.4,56.6,46.1c0.7,3.1,0.6,6.4,1,10
		c-6.4,0-12.3,0-18.9,0c-0.3-1.9-0.7-4-1-6c-2.5-16.4-18-30.5-34.7-30.6c-45.3-0.2-74.9-0.1-120.3,0
		C267.9,300.8,267.4,301,266,301.2z"/>
	<g>
		<path class="st1" d="M252.5,86.7c-2,0-4-0.2-6-0.4c-2.4-0.3-4.8-0.6-7.1-0.9c-6.8-0.9-14.6-1.5-20.7-4.7c-5-2.6-8.3-7-10.1-12
			c-0.2-0.6-0.4-1.2-0.6-1.8c-4.2-15.1,1.8-27.4,17.2-33.7c4.4-1.8,7.5-3.8,9.2-8.6c3.1-8.7,12.9-13.8,22.8-13.3
			c9.8,0.4,18.4,6.6,21.2,15.5c0.8,2.5,2,4.2,4.7,4.9c1.5,0.4,2.9,1.1,4.3,1.8c18.1,8.3,21.2,22.6,14.5,38.3
			c-3.9,9.1-16.1,12.7-25.7,13.7c-3.8,0.4-7.6,0.6-11.4,0.9C260.8,86.5,256.7,86.7,252.5,86.7z"/>
		<path class="st1" d="M352.2,134.7H330c-0.3-8.3-1.8-16.8-4.4-25.4c3.1-2.9,5.9-6.2,8.3-10.1c6.9-11.1,10.2-24.4,10.1-40.6
			c0-0.9-0.5-2.3-1.2-3.3c-0.8-1-1.8-1.5-3.1-1.5h-0.4l-0.2,0l-0.2,0c-0.7,0-1.5,0.1-2.2,0.3c-1.8,0.6-2.9,2.5-3.1,5.1
			c-0.1,1.2-0.2,2.5-0.2,3.7c-0.2,3.1-0.3,6.3-0.8,9.5c-1.3,7.7-3.9,17.6-10.7,25.8c-0.1-0.3-0.2-0.5-0.3-0.8
			c-3.5-8.4-7.3-14.7-9.6-18.3c-1.5,2.8-3.6,5.2-6,7.4c2,3.4,4.7,8.3,7.3,14.4c1.4,3.3,2.6,6.6,3.6,9.9c5.3,17,5.8,33.7,1.6,49.4
			c-0.8,2.8-1.7,5.7-2.8,8.4c-3.9,9.9-9.9,17.8-19.7,25.5c-5.5,4.3-11.4,8.1-17.6,11.3c-6.5,3.4-13.5,6.6-20,7.6l5.3-114.5
			c-3,0.2-6.3,0.4-9.5,0.4h-1.8c-1.4,0-2.7-0.1-3.9-0.2l5.4,114.5c-2.2-0.4-4.9-1.4-7.2-2.3l-1.9-0.7c-3.8-1.4-7.5-3.1-11.1-4.9
			c-6-3.1-11.9-6.9-17.2-11.1c-10-7.9-16.3-16.2-20.2-26.9c-1-2.8-1.9-5.6-2.6-8.4c-3.7-14.6-3.3-30,1.3-45.8c1-3.4,2.1-6.7,3.4-10
			c2.8-7.1,5.9-12.7,8.2-16.5c-2.3-2.1-4.4-4.6-6-7.4c-0.4,0.6-0.8,1.2-1.1,1.8c-2.5,4-6.1,10.5-9.4,18.7c-0.2,0.5-0.4,1.1-0.6,1.7
			c-9.1-8.6-12.2-20.1-13.7-28.9c-0.5-3.2-0.7-6.4-0.9-9.5c-0.1-1.2-0.1-2.5-0.2-3.7c-0.2-2.6-1.3-4.5-3.1-5.1
			c-0.7-0.3-1.5-0.4-2.2-0.3l-0.2,0l-0.2,0h-0.4c-1.3,0-2.4,0.5-3.1,1.5c-0.7,1-1.2,2.4-1.2,3.3c-0.1,16.2,3.2,29.5,10.1,40.6
			c3.3,5.3,7.2,9.6,11.7,13c-2.1,7.6-3.2,15.1-3.5,22.5h-22.2c-2.9,0-5.2,2.3-5.2,5.2c0,2.9,2.4,5.2,5.2,5.2h22.3
			c0.4,5.3,1.2,10.6,2.5,15.8c0.3,1.1,0.6,2.3,1,3.4c-0.1,0-0.2,0.1-0.3,0.1c-19.5,9.1-29.3,24.2-29.8,46.1c0,1.5,0.3,5,3.7,5.7
			c0.3,0.1,0.7,0.1,1,0.1c1.9,0,3.5-1.1,4.2-2.9c0.4-0.8,0.6-2,0.6-3.4c0.2-9.9,3.1-18.3,8.4-25c3.8-4.7,8.8-8.6,15.1-11.5
			c-0.1-0.3-0.2-0.5-0.3-0.8c-0.7-1.9-1.3-3.8-1.9-5.8c0.4,1.1,0.7,2.3,1.1,3.4c4.5,12.2,11.8,22,23.1,30.9
			c5.8,4.6,12.1,8.7,18.7,12.1c3.9,2,8,3.8,12,5.3l1.8,0.7c3.5,1.4,7.9,3.1,12.2,3.1c0.4,0,0.8,0,1.2,0c8.8-0.7,17.6-4.7,25.8-8.9
			c6.7-3.4,13.1-7.6,19.1-12.3c9.8-7.7,16.5-16.1,21-25.9c4.7,2.7,8.7,6,11.8,9.8c5.4,6.7,8.2,15.2,8.4,25c0,1.4,0.2,2.6,0.6,3.4
			c0.8,1.8,2.3,2.9,4.2,2.9c0.3,0,0.7,0,1-0.1c3.4-0.7,3.8-4.2,3.7-5.7c-0.5-20.6-9.1-35.1-26.4-44.4c0.4-1.3,0.8-2.5,1.1-3.8
			c1.5-5.7,2.4-11.5,2.8-17.3h22.4c2.9,0,5.2-2.3,5.2-5.2C357.4,137,355.1,134.7,352.2,134.7z"/>
	</g>
	<g>
		<path class="st1" d="M75,406.1c-1.4,0-2.8-0.1-4.2-0.3c-1.7-0.2-3.3-0.4-5-0.7c-4.7-0.7-10.2-1.1-14.5-3.3c-3.5-1.8-5.8-4.9-7-8.4
			c-0.1-0.4-0.3-0.8-0.4-1.3c-2.9-10.6,1.3-19.2,12-23.6c3.1-1.3,5.3-2.7,6.5-6c2.2-6.1,9-9.6,15.9-9.3c6.9,0.3,12.9,4.6,14.8,10.9
			c0.6,1.8,1.4,2.9,3.3,3.4c1,0.3,2,0.8,3,1.3c12.7,5.8,14.8,15.8,10.2,26.8c-2.7,6.4-11.3,8.9-18,9.6c-2.6,0.3-5.3,0.5-7.9,0.6
			C80.9,406,77.9,406.2,75,406.1z"/>
		<path class="st1" d="M144.8,439.7h-15.5c-0.2-5.8-1.2-11.8-3-17.8c2.2-2,4.1-4.4,5.8-7.1c4.8-7.8,7.1-17.1,7-28.4
			c0-0.7-0.4-1.6-0.9-2.3c-0.5-0.7-1.3-1.1-2.2-1.1h-0.3l-0.1,0l-0.1,0c-0.5,0-1,0-1.5,0.2c-1.2,0.4-2.1,1.7-2.2,3.6
			c-0.1,0.8-0.1,1.7-0.2,2.6c-0.1,2.2-0.2,4.4-0.6,6.6c-0.9,5.4-2.7,12.3-7.5,18c-0.1-0.2-0.1-0.4-0.2-0.5
			c-2.5-5.9-5.1-10.3-6.7-12.8c-1.1,1.9-2.5,3.7-4.2,5.2c1.4,2.3,3.3,5.8,5.1,10.1c1,2.3,1.8,4.6,2.5,6.9
			c3.7,11.9,4.1,23.5,1.1,34.5c-0.5,2-1.2,4-1.9,5.9c-2.7,7-6.9,12.5-13.7,17.9c-3.8,3-8,5.7-12.3,7.9c-4.6,2.3-9.4,4.6-14,5.3
			l3.7-80.1c-2.1,0.1-4.4,0.3-6.7,0.3h-1.3c-1,0-1.9-0.1-2.7-0.1l3.7,80.1c-1.6-0.3-3.4-1-5.1-1.6l-1.3-0.5c-2.6-1-5.2-2.2-7.8-3.4
			c-4.2-2.2-8.3-4.8-12.1-7.8c-7-5.5-11.4-11.4-14.2-18.8c-0.7-1.9-1.3-3.9-1.8-5.9c-2.6-10.2-2.3-21,0.9-32c0.7-2.3,1.5-4.7,2.4-7
			c2-4.9,4.1-8.9,5.7-11.5c-1.6-1.5-3.1-3.2-4.2-5.2c-0.3,0.4-0.6,0.9-0.8,1.2c-1.7,2.8-4.3,7.3-6.6,13.1c-0.1,0.4-0.3,0.8-0.4,1.2
			c-6.4-6-8.6-14.1-9.6-20.2c-0.4-2.2-0.5-4.4-0.6-6.6c0-0.8-0.1-1.7-0.2-2.6c-0.1-1.8-0.9-3.2-2.2-3.6c-0.5-0.2-1-0.3-1.5-0.2
			l-0.1,0l-0.1,0H16c-0.9,0-1.7,0.4-2.2,1.1c-0.5,0.7-0.9,1.7-0.9,2.3c-0.1,11.3,2.2,20.6,7,28.4c2.3,3.7,5.1,6.7,8.2,9.1
			c-1.4,5.3-2.3,10.6-2.5,15.8H10.2c-2,0-3.7,1.6-3.7,3.6c0,2,1.7,3.7,3.7,3.7h15.6c0.3,3.7,0.8,7.4,1.7,11.1
			c0.2,0.8,0.4,1.6,0.7,2.4c-0.1,0-0.1,0.1-0.2,0.1c-13.7,6.4-20.5,16.9-20.8,32.2c0,1,0.2,3.5,2.6,4c0.2,0,0.5,0.1,0.7,0.1
			c1.3,0,2.4-0.7,3-2c0.3-0.6,0.4-1.4,0.4-2.4c0.1-6.9,2.1-12.8,5.9-17.5c2.7-3.3,6.2-6,10.5-8.1c-0.1-0.2-0.1-0.4-0.2-0.6
			c-0.5-1.3-0.9-2.7-1.3-4.1c0.3,0.8,0.5,1.6,0.8,2.4c3.2,8.5,8.3,15.4,16.2,21.6c4.1,3.2,8.5,6.1,13.1,8.4c2.7,1.4,5.6,2.7,8.4,3.7
			l1.2,0.5c2.5,1,5.5,2.1,8.5,2.1c0.3,0,0.6,0,0.9,0c6.1-0.5,12.3-3.3,18-6.2c4.7-2.4,9.2-5.3,13.3-8.6c6.9-5.4,11.6-11.2,14.7-18.1
			c3.3,1.9,6.1,4.2,8.2,6.9c3.8,4.7,5.8,10.6,5.9,17.5c0,1,0.1,1.8,0.4,2.4c0.5,1.3,1.6,2,3,2c0.2,0,0.5,0,0.7-0.1
			c2.4-0.5,2.6-3,2.6-4c-0.3-14.4-6.4-24.5-18.4-31c0.3-0.9,0.6-1.8,0.8-2.7c1.1-4,1.7-8,2-12.1h15.7c2,0,3.6-1.6,3.6-3.7
			C148.4,441.3,146.8,439.7,144.8,439.7z"/>
	</g>
	<g>
		<path class="st1" d="M253.6,406.1c-1.4,0-2.8-0.1-4.2-0.3c-1.7-0.2-3.3-0.4-5-0.7c-4.7-0.7-10.2-1.1-14.5-3.3
			c-3.5-1.8-5.8-4.9-7-8.4c-0.1-0.4-0.3-0.8-0.4-1.3c-2.9-10.6,1.3-19.2,12-23.6c3.1-1.3,5.3-2.7,6.5-6c2.2-6.1,9-9.6,15.9-9.3
			c6.9,0.3,12.9,4.6,14.8,10.9c0.5,1.8,1.4,2.9,3.3,3.4c1,0.3,2,0.8,3,1.3c12.7,5.8,14.8,15.8,10.2,26.8c-2.7,6.4-11.3,8.9-18,9.6
			c-2.6,0.3-5.3,0.5-7.9,0.6C259.4,406,256.5,406.2,253.6,406.1z"/>
		<path class="st1" d="M323.3,439.7h-15.5c-0.2-5.8-1.2-11.8-3-17.8c2.2-2,4.1-4.4,5.8-7.1c4.8-7.8,7.1-17.1,7-28.4
			c0-0.7-0.4-1.6-0.9-2.3c-0.5-0.7-1.3-1.1-2.2-1.1h-0.3l-0.1,0l-0.1,0c-0.5,0-1,0-1.5,0.2c-1.2,0.4-2.1,1.7-2.2,3.6
			c-0.1,0.8-0.1,1.7-0.2,2.6c-0.1,2.2-0.2,4.4-0.6,6.6c-0.9,5.4-2.7,12.3-7.5,18c-0.1-0.2-0.1-0.4-0.2-0.5
			c-2.5-5.9-5.1-10.3-6.7-12.8c-1.1,1.9-2.5,3.7-4.2,5.2c1.4,2.3,3.3,5.8,5.1,10.1c1,2.3,1.8,4.6,2.5,6.9
			c3.7,11.9,4.1,23.5,1.1,34.5c-0.5,2-1.2,4-1.9,5.9c-2.7,7-6.9,12.5-13.7,17.9c-3.8,3-8,5.7-12.3,7.9c-4.6,2.3-9.4,4.6-14,5.3
			l3.7-80.1c-2.1,0.1-4.4,0.3-6.7,0.3h-1.3c-1,0-1.9-0.1-2.7-0.1l3.7,80.1c-1.6-0.3-3.4-1-5.1-1.6l-1.3-0.5c-2.6-1-5.2-2.2-7.8-3.4
			c-4.2-2.2-8.3-4.8-12.1-7.8c-7-5.5-11.4-11.4-14.1-18.8c-0.7-1.9-1.3-3.9-1.8-5.9c-2.6-10.2-2.3-21,0.9-32c0.7-2.3,1.5-4.7,2.4-7
			c2-4.9,4.1-8.9,5.7-11.5c-1.6-1.5-3.1-3.2-4.2-5.2c-0.3,0.4-0.6,0.9-0.8,1.2c-1.7,2.8-4.3,7.3-6.6,13.1c-0.1,0.4-0.3,0.8-0.4,1.2
			c-6.4-6-8.6-14.1-9.6-20.2c-0.4-2.2-0.5-4.4-0.6-6.6c0-0.8-0.1-1.7-0.2-2.6c-0.1-1.8-0.9-3.2-2.2-3.6c-0.5-0.2-1-0.3-1.5-0.2
			l-0.1,0l-0.1,0h-0.3c-0.9,0-1.7,0.4-2.2,1.1c-0.5,0.7-0.9,1.7-0.9,2.3c-0.1,11.3,2.2,20.6,7,28.4c2.3,3.7,5.1,6.7,8.2,9.1
			c-1.4,5.3-2.3,10.6-2.5,15.8h-15.5c-2,0-3.7,1.6-3.7,3.6c0,2,1.6,3.7,3.7,3.7h15.6c0.3,3.7,0.8,7.4,1.7,11.1
			c0.2,0.8,0.4,1.6,0.7,2.4c-0.1,0-0.1,0.1-0.2,0.1c-13.7,6.4-20.5,16.9-20.8,32.2c0,1,0.2,3.5,2.6,4c0.2,0,0.5,0.1,0.7,0.1
			c1.3,0,2.4-0.7,3-2c0.3-0.6,0.4-1.4,0.4-2.4c0.1-6.9,2.1-12.8,5.9-17.5c2.7-3.3,6.2-6,10.5-8.1c-0.1-0.2-0.1-0.4-0.2-0.6
			c-0.5-1.3-0.9-2.7-1.3-4.1c0.3,0.8,0.5,1.6,0.8,2.4c3.2,8.5,8.3,15.4,16.2,21.6c4.1,3.2,8.5,6.1,13.1,8.4c2.7,1.4,5.6,2.7,8.4,3.7
			l1.2,0.5c2.5,1,5.5,2.1,8.5,2.1c0.3,0,0.6,0,0.9,0c6.1-0.5,12.3-3.3,18-6.2c4.7-2.4,9.2-5.3,13.3-8.6c6.9-5.4,11.6-11.2,14.7-18.1
			c3.3,1.9,6.1,4.2,8.2,6.9c3.8,4.7,5.8,10.6,5.9,17.5c0,1,0.1,1.8,0.4,2.4c0.5,1.3,1.6,2,3,2c0.2,0,0.5,0,0.7-0.1
			c2.4-0.5,2.6-3,2.6-4c-0.3-14.4-6.4-24.5-18.4-31c0.3-0.9,0.5-1.8,0.8-2.7c1.1-4,1.7-8,2-12.1h15.7c2,0,3.6-1.6,3.6-3.7
			C326.9,441.3,325.3,439.7,323.3,439.7z"/>
	</g>
	<g>
		<path class="st1" d="M432.1,406.1c-1.4,0-2.8-0.1-4.2-0.3c-1.7-0.2-3.3-0.4-5-0.7c-4.7-0.7-10.2-1.1-14.5-3.3
			c-3.5-1.8-5.8-4.9-7-8.4c-0.1-0.4-0.3-0.8-0.4-1.3c-2.9-10.6,1.3-19.2,12-23.6c3.1-1.3,5.3-2.7,6.5-6c2.2-6.1,9-9.6,15.9-9.3
			c6.9,0.3,12.9,4.6,14.8,10.9c0.5,1.8,1.4,2.9,3.3,3.4c1,0.3,2,0.8,3,1.3c12.7,5.8,14.8,15.8,10.2,26.8c-2.7,6.4-11.3,8.9-18,9.6
			c-2.6,0.3-5.3,0.5-7.9,0.6C437.9,406,435,406.2,432.1,406.1z"/>
		<path class="st1" d="M501.8,439.7h-15.5c-0.2-5.8-1.2-11.8-3-17.8c2.2-2,4.1-4.4,5.8-7.1c4.8-7.8,7.1-17.1,7-28.4
			c0-0.7-0.4-1.6-0.9-2.3c-0.5-0.7-1.3-1.1-2.2-1.1h-0.3l-0.1,0l-0.1,0c-0.5,0-1,0-1.5,0.2c-1.2,0.4-2.1,1.7-2.2,3.6
			c-0.1,0.8-0.1,1.7-0.2,2.6c-0.1,2.2-0.2,4.4-0.6,6.6c-0.9,5.4-2.7,12.3-7.5,18c-0.1-0.2-0.1-0.4-0.2-0.5
			c-2.5-5.9-5.1-10.3-6.7-12.8c-1.1,1.9-2.5,3.7-4.2,5.2c1.4,2.3,3.3,5.8,5.1,10.1c1,2.3,1.8,4.6,2.5,6.9
			c3.7,11.9,4.1,23.5,1.1,34.5c-0.5,2-1.2,4-1.9,5.9c-2.7,7-6.9,12.5-13.7,17.9c-3.8,3-8,5.7-12.3,7.9c-4.6,2.3-9.4,4.6-14,5.3
			l3.7-80.1c-2.1,0.1-4.4,0.3-6.7,0.3h-1.3c-1,0-1.9-0.1-2.7-0.1l3.7,80.1c-1.6-0.3-3.4-1-5.1-1.6l-1.3-0.5c-2.6-1-5.2-2.2-7.8-3.4
			c-4.2-2.2-8.3-4.8-12.1-7.8c-7-5.5-11.4-11.4-14.1-18.8c-0.7-1.9-1.3-3.9-1.8-5.9c-2.6-10.2-2.3-21,0.9-32c0.7-2.3,1.5-4.7,2.4-7
			c2-4.9,4.1-8.9,5.7-11.5c-1.6-1.5-3.1-3.2-4.2-5.2c-0.3,0.4-0.6,0.9-0.8,1.2c-1.7,2.8-4.3,7.3-6.6,13.1c-0.1,0.4-0.3,0.8-0.4,1.2
			c-6.4-6-8.6-14.1-9.6-20.2c-0.4-2.2-0.5-4.4-0.6-6.6c0-0.8-0.1-1.7-0.2-2.6c-0.1-1.8-0.9-3.2-2.2-3.6c-0.5-0.2-1-0.3-1.5-0.2
			l-0.1,0l-0.1,0h-0.3c-0.9,0-1.7,0.4-2.2,1.1c-0.5,0.7-0.9,1.7-0.9,2.3c-0.1,11.3,2.2,20.6,7,28.4c2.3,3.7,5.1,6.7,8.2,9.1
			c-1.4,5.3-2.3,10.6-2.5,15.8h-15.5c-2,0-3.7,1.6-3.7,3.6c0,2,1.6,3.7,3.7,3.7h15.6c0.3,3.7,0.8,7.4,1.7,11.1
			c0.2,0.8,0.4,1.6,0.7,2.4c-0.1,0-0.1,0.1-0.2,0.1c-13.7,6.4-20.5,16.9-20.8,32.2c0,1,0.2,3.5,2.6,4c0.2,0,0.5,0.1,0.7,0.1
			c1.3,0,2.4-0.7,3-2c0.3-0.6,0.4-1.4,0.4-2.4c0.1-6.9,2.1-12.8,5.9-17.5c2.7-3.3,6.2-6,10.5-8.1c-0.1-0.2-0.1-0.4-0.2-0.6
			c-0.5-1.3-0.9-2.7-1.3-4.1c0.3,0.8,0.5,1.6,0.8,2.4c3.2,8.5,8.3,15.4,16.2,21.6c4.1,3.2,8.5,6.1,13.1,8.4c2.7,1.4,5.6,2.7,8.4,3.7
			l1.2,0.5c2.5,1,5.5,2.1,8.5,2.1c0.3,0,0.6,0,0.9,0c6.1-0.5,12.3-3.3,18-6.2c4.7-2.4,9.2-5.3,13.3-8.6c6.9-5.4,11.6-11.2,14.7-18.1
			c3.3,1.9,6.1,4.2,8.2,6.9c3.8,4.7,5.8,10.6,5.9,17.5c0,1,0.1,1.8,0.4,2.4c0.5,1.3,1.6,2,3,2c0.2,0,0.5,0,0.7-0.1
			c2.4-0.5,2.6-3,2.6-4c-0.3-14.4-6.4-24.5-18.4-31c0.3-0.9,0.5-1.8,0.8-2.7c1.1-4,1.7-8,2-12.1h15.7c2,0,3.6-1.6,3.6-3.7
			C505.5,441.3,503.8,439.7,501.8,439.7z"/>
	</g>
</g>
</svg>
