<?xml version="1.0" encoding="utf-8"?>
<!-- Generator: Adobe Illustrator 19.2.0, SVG Export Plug-In . SVG Version: 6.00 Build 0)  -->
<svg version="1.1" id="Layer_1" xmlns="http://www.w3.org/2000/svg" xmlns:xlink="http://www.w3.org/1999/xlink" x="0px" y="0px"
	 viewBox="0 0 512 512" style="enable-background:new 0 0 512 512;" xml:space="preserve">
<style type="text/css">
	.st0{fill:#000222;}
	.st1{fill:#2D78BD;}
</style>
<g>
	<path class="st0" d="M400.5,498.4c0,3.6-4.2,5.7-7,3.4l-15.1-11.7c-2.1-1.6-4-3.1-5.9-4.6c-4-3.1-7.7-6-11.4-8.9
		c-5.6-4.4-11.2-8.9-16.8-13.3c-15.1-11.9-30.7-24.2-46.1-36.2c0,0-0.1,0-0.1,0c-32.7-0.1-65.9-0.1-98.1-0.1
		c-35.6,0-72.4,0-108.6-0.1c-8.7,0-16.9-1-24.5-2.8c-16.4-3.9-29.3-13.1-36.5-25.9c-7.1-12.7-8.2-28.3-3-44
		c4-12.2,10.3-23.2,16.4-33.8l0.2-0.3c36.4-63.2,73.5-127.4,109.3-189.5c15.9-27.6,31.9-55.1,47.8-82.7c5.1-8.9,12.6-20.2,24.6-28.6
		c9.4-6.6,20-10.1,30.7-10.1c12.4,0,24,4.6,33.7,13.4c7.9,7.2,14.7,15.4,19.6,23.8C356.7,127.2,404.1,209.5,450,289l26,45
		c5.8,10,13.2,25.4,11.5,43.6c-2.3,24.2-18.9,41.8-44.2,47c-6.6,1.4-13.8,2.1-22.1,2.4c-4.1,0.1-8.6,0.2-14,0.2c-2.2,0-4.4,0-6.7,0
		L400.5,498.4L400.5,498.4z M256.4,36.6c-5,0-10.1,1.8-14.9,5.2c-6,4.2-11.1,10.3-16.6,19.9c-15.9,27.6-31.8,55.1-47.8,82.7
		c-35.9,62.1-72.9,126.3-109.3,189.5l-0.2,0.3c-5.4,9.4-11,19.1-14.1,28.6c-2.8,8.5-2.5,16.1,0.9,22.2c3.4,6.1,10,10.5,19,12.7
		c5.5,1.3,11.6,2,18.2,2c36.2,0.1,73,0.1,108.5,0.1c32.2,0,65.5,0,98.3,0.1c5.8,0,11.9,2.1,16.4,5.6c15.6,12.1,31.3,24.5,46.5,36.6
		c3.5,2.7,6.9,5.5,10.4,8.2c0.6,0.5,1.4,0,1.4-0.7v-49.8h13.7c3.6,0,7.1,0,10.6,0c3.3,0,6.6,0,9.8,0c5.1,0,9.3-0.1,13.1-0.2
		c6.7-0.2,12.4-0.8,17.5-1.8c13.7-2.8,21.3-10.5,22.5-22.8c0.8-8-1.7-16.4-7.9-27.2l-26-45C380.4,223.2,333,140.9,286.1,60.2
		c-3.5-6-8.4-11.9-14.3-17.2C267.1,38.7,261.9,36.6,256.4,36.6z"/>
	<g>
		<polygon class="st1" points="270.1,302.9 242.5,302.9 228.3,222.5 228.3,142.1 283.7,142.1 283.7,222.5 		"/>
		<path class="st1" d="M279.1,369.9h-46.2c-0.2,0-0.4-0.2-0.4-0.4v-39.3c0-0.2,0.2-0.4,0.4-0.4h46.2c0.2,0,0.4,0.2,0.4,0.4v39.3
			C279.5,369.7,279.3,369.9,279.1,369.9z"/>
	</g>
</g>
</svg>
