<?xml version="1.0" encoding="utf-8"?>
<!-- Generator: Adobe Illustrator 19.2.0, SVG Export Plug-In . SVG Version: 6.00 Build 0)  -->
<svg version="1.1" id="Layer_1" xmlns="http://www.w3.org/2000/svg" xmlns:xlink="http://www.w3.org/1999/xlink" x="0px" y="0px"
	 viewBox="0 0 512 512" style="enable-background:new 0 0 512 512;" xml:space="preserve">
<style type="text/css">
	.st0{fill:#000222;}
	.st1{fill:#2E79BE;}
</style>
<g>
	<path class="st0" d="M7.2,244.1c0.9-0.1,1.7-0.3,2.6-0.3c2.3,0,4.5,0.4,6.7,0.9c4.4-6.5,9.2-12.7,14.9-18.1
		c4-31,14.3-60.1,29.6-85.8c-8.1-3.1-15.2-8.4-20.5-15.1c-20.9,34.3-33.6,74-35.9,116.5c0.1,0,0.2,0.1,0.2,0.1
		C5.7,242.9,6.4,243.5,7.2,244.1z"/>
	<path class="st0" d="M471.3,125.6C466.6,133,460,139,452.1,143c17.8,30.7,28.5,66,30,103.6h-43c0.5,2.8,0.8,5.7,0.8,8.6
		c0,3.5-0.3,6.8-1,10h43.2c-1.5,37.3-12.1,72.4-29.7,103c7.9,3.6,14.8,9.2,19.9,16.3c22.5-37.7,35.4-81.7,35.4-128.7
		C507.8,208.3,494.4,163.6,471.3,125.6z"/>
	<path class="st0" d="M390.7,437.8c-14.2,10.6-29.8,19.6-46.4,26.7c7.7-14.4,14.2-28,20-41.6l5.7-11.9c1.5-3,2.7-6.2,3.8-9.2
		l1.2-3.6l3.6,1c1.2,0.3,2.5,0.8,3.7,1.1l3.1,1.1c1.4-6.1,4-11.8,7.5-16.7l-12.2-4.6l1-3.6c7.2-23.5,12.2-47.5,15.1-72.8
		c-1.8,0.2-3.6,0.3-5.4,0.3c-4.4,0-8.8-0.6-12.9-1.7c-2.6,24-7.3,47.5-14.1,70.4l-1,3.4l-7.6-1.4c-24.5-5.8-49.8-9.2-77.5-10.8
		l-12.6-1v-97.5h78.2c-0.7-3.2-1-6.5-1-10c0-3,0.3-5.8,0.8-8.6h-77.9v-97.6l12.5-1c27.8-1.6,53.1-5.1,77.5-10.7l7.9-1.5l1,3.4
		c6.6,22.5,11.3,45.6,14,69.1c4.2-1.1,8.5-1.7,13.1-1.7c1.7,0,3.5,0.1,5.2,0.3c-2.9-24.9-7.9-48.5-14.9-71.5l-1-3.6l10-3.8
		c-3.6-5-6.2-10.6-7.7-16.7l-0.7,0.3c-1.2,0.4-2.4,0.8-3.7,1.2l-3.6,1l-1.2-3.6c-1-2.8-2.2-6.1-3.8-9.2l-5.5-11.5
		c-5.9-14-12.6-27.7-20.1-41.9c16,6.8,31.1,15.4,44.9,25.6c4.8-7.4,11.5-13.3,19.4-17.3C366.2,23.5,313.2,4.2,255.9,4.2
		c-56.6,0-108.9,18.8-150.9,50.3c7.2,4.7,13.2,11.3,17.1,19c14-10.4,29.2-19.1,45.4-26c-7.7,14.3-14.2,28-20.1,41.8l-5.6,11.6
		c-1.5,3.1-2.7,6.3-3.8,9.2l-1.2,3.5l-3.6-1c-1.2-0.3-2.5-0.8-3.7-1.2l-4.6-1.7c-1.8,6-4.8,11.5-8.7,16.2l15,5.8l-1,3.6
		c-5.8,18.7-10,37.8-13,57.7h2.2l3.2,0.9c0.8,0.2,1.6,0.3,2.4,0.3l3.2,0.4c2.4,0.3,4.7,0.7,7,1.1c2.7-19.2,6.8-38,12.3-56.4l1-3.4
		l3.4,0.6c1.4,0.3,2.8,0.5,4.4,0.9c24.9,5.8,49.9,9.2,76.8,10.6l13.3,1v97.6h-34.6c0.9,1.2,1.7,2.4,2.4,3.7c3.1,5,5.8,9.9,7.9,15
		h24.2v81.6c1.4,4,2.1,8.5,2.3,13.1c0.3,10.7,0.2,21.3,0.2,31.8v87.7c0.1,4.8,0.1,10.7-1.5,17.4c-0.8,3.8-2.1,7.2-3.8,10.5
		c4,0.3,8.1,0.3,12.2,0.3c57.7,0,110.9-19.5,153.3-52.2C401.6,451.5,395.1,445.3,390.7,437.8z M246.8,130.7l-4-0.1
		c-27.4-0.5-54.7-4.1-83.6-11.1l-4.3-1l1.5-4.1c8.9-24.9,20.1-48.3,34-71.8c0.7-1.1,1-2.4,1.2-3.8c17.6-5.2,36.1-8.4,55.2-9.2V130.7
		z M265.1,29.7c19.1,0.8,37.7,3.9,55.3,9.2c0.2,1.3,0.5,2.6,1.1,3.8c14,23.5,25,46.9,34,71.8l1.5,4.1l-4.3,1
		c-29,7-56.3,10.6-83.6,11.1l-4,0.1L265.1,29.7L265.1,29.7z M320.4,473c-17.6,5.2-36.2,8.5-55.3,9.2V381.3l4,0.1
		c27.4,0.4,54.7,4.1,83.6,11.1l4.3,1l-1.5,4.1c-9,24.9-20.1,48.3-34,71.8C320.9,470.4,320.6,471.8,320.4,473z"/>
	<path class="st1" d="M391.2,290.3c-19.3,0-35-15.7-35-35s15.7-35,35-35c19.3,0,35,15.7,35,35S410.5,290.3,391.2,290.3z M391.2,231
		c-13.4,0-24.4,10.9-24.4,24.4s10.9,24.4,24.4,24.4s24.4-10.9,24.4-24.4S404.6,231,391.2,231z"/>
	<path class="st1" d="M432.6,447.8c-19.3,0-35-15.7-35-35c0-19.3,15.7-35,35-35s35,15.7,35,35C467.5,432.1,451.8,447.8,432.6,447.8z
		 M432.6,388.5c-13.4,0-24.4,10.9-24.4,24.4s10.9,24.4,24.4,24.4s24.4-10.9,24.4-24.4S446,388.5,432.6,388.5z"/>
	<path class="st1" d="M430.1,134.5c-19.3,0-35-15.7-35-35s15.7-35,35-35c19.3,0,35,15.7,35,35S449.4,134.5,430.1,134.5z M430.1,75.2
		c-13.4,0-24.4,10.9-24.4,24.4s10.9,24.4,24.4,24.4s24.4-10.9,24.4-24.4S443.6,75.2,430.1,75.2z"/>
	<path class="st1" d="M78.6,130.4c-19.3,0-35-15.7-35-35s15.7-35,35-35s35,15.7,35,35S97.8,130.4,78.6,130.4z M78.6,71
		C65.1,71,54.2,82,54.2,95.4s10.9,24.4,24.4,24.4s24.4-10.9,24.4-24.4S92,71,78.6,71z"/>
	<path class="st1" d="M222.8,477.3v-75.2c0-13.7,0.1-27.6-0.1-41.4c-0.3-9.3-5.3-14.9-14.5-16.3c-2.5-0.4-3.2-1.3-3.2-3.8
		c0-13.3,0.1-26.7-0.6-40c-0.6-13.1-5.2-25.3-12.1-36.3c-14-22.2-33.8-36.5-59.5-42.4c-2.7-0.6-5.5-1-8.3-1.5
		c-2.7-0.3-5.5-0.4-8.3-1.2h-5c-7.2,1.2-13.9,1.8-20.4,3.5C56.6,232.7,34,254.5,24.3,289c-3.2,11.8-2.5,24.1-2.5,36.2v18.8
		c-1.8,0.3-3.2,0.6-4.7,0.9c-7.8,1.6-12.9,7.7-12.9,15.7v84.2c0,12.9,0.1,25.7,0,38.6c-0.1,11.2,2.5,16,12,19.9h194.9
		c5.6-2.2,9.6-5.9,10.9-12.1C223.1,486.6,222.8,481.9,222.8,477.3z M130.1,430.1c-3.1,2.2-4,4.6-4,8c0.3,8,0.3,16,0.1,23.9
		c-0.1,6.6-3.4,11.2-8.9,13c-5,1.8-10,0.6-13.6-3.7c-1.3-1.9-2.5-4.3-2.8-6.6c-0.4-5-0.1-10.3-0.1-15.5h-0.3V445
		c0.3-7.1-0.6-12.9-7.2-18.3c-10.2-8.4-11.4-22.6-5.2-33.8c5.9-10.6,18.8-17.1,30.7-14.5c11.8,2.7,19.9,10,22.6,22
		C144.3,412.5,140.2,422.7,130.1,430.1z M170.3,340.2c0,3.1-1,4.1-4,4.1c-17.7-0.1-35.3,0-53,0H61.1c-4.4,0-4.7-0.1-4.7-4.6
		c0-10.8-0.4-21.6,0.1-32.4c1-17.9,9.6-31.8,23.8-42.3c26.7-19.8,65.6-11.5,82.1,17.3c5.2,9,8,18.5,7.8,28.8
		C170.2,321,170.2,330.6,170.3,340.2z"/>
</g>
</svg>
