<?xml version="1.0" encoding="utf-8"?>
<!-- Generator: Adobe Illustrator 19.2.0, SVG Export Plug-In . SVG Version: 6.00 Build 0)  -->
<svg version="1.1" id="Layer_1" xmlns="http://www.w3.org/2000/svg" xmlns:xlink="http://www.w3.org/1999/xlink" x="0px" y="0px"
	 viewBox="0 0 512 512" style="enable-background:new 0 0 512 512;" xml:space="preserve">
<style type="text/css">
	.st0{fill:#000222;}
	.st1{fill:#2D78BD;}
</style>
<g>
	<path class="st0" d="M465.3,27.1h-13.9h-7.7H49c-28.1,0-39.8,11.6-39.8,39.5c-0.1,97.9-0.1,195.8,0,293.6
		c0,27.6,11.3,39.1,38.7,39.1c52.2,0.1,104.4,0.1,156.6,0c-0.2,2.9-0.4,5.9-0.6,8.8c-0.6,8.6-0.9,17.3-2.1,25.9
		c-0.3,2.5-0.9,4.9-1.8,7.1c-2.5,7.6-7.5,13.8-14.7,18.3c-2.7,1.7-5.4,3.3-8,4.9c-4.7,2.8-9.5,5.6-14.1,8.5
		c-2.1,1.3-4.1,3.2-5.1,5.3c-1.6,3.4-0.1,5.9,3.8,6.6c1.3,0.2,2.5,0,3.8,0c60.8,0,121.6,0.1,182.3,0c3.3,0,7.5,1.2,8.5-3.5
		c0.8-4.2-2.2-6.5-5.4-8.5c-4.9-2.9-9.9-5.9-14.8-8.9c-1.8-1.2-3.7-2.3-5.5-3.4c-7.6-4.5-12.9-10.5-15.8-17.9
		c-1.5-3.6-2.3-7.6-2.7-12c-0.7-10.3-1.6-20.7-2.4-31.4h155.6c25.8,0,37.6-12,37.6-38v-297C502.8,39.5,490.2,27.1,465.3,27.1z
		 M274.4,371.2c-3.9,6.8-11.1,11.4-18.9,11.1c-7.8-0.3-14.4-4.7-17.9-11.1c-1.8-3.2-2.8-7-2.8-11c0.2-11.8,9.6-21.4,21.2-21.5
		c12,0,21.4,10,21.1,22.6C277,364.9,276,368.3,274.4,371.2z M462.3,320.5c-137.2-0.3-274.3-0.2-411.5-0.2
		c-14.2,0-14.7-0.5-14.7-14.9V71.2c0-16.7,0.2-16.7,17.3-16.7c49.5-0.1,322.3-0.1,390.2-0.1h7.7h9.2c14.5,0,15.2,0.6,15.2,14.6
		c0.1,79.2-0.1,158.4,0.3,237.5C476.1,316.6,473.1,320.5,462.3,320.5z"/>
	<path class="st1" d="M173.1,209.4c-1.9,0.2-2.5,0.1-2.6,0.2c-11.1,18.3-28.8,17.8-46.9,16.7c-7.4-0.5-14.9-0.1-23-0.1
		c0-7.6,0-14,0-21.8c9.8,0,19.3-0.7,28.8,0.2c10.6,0.9,18.7-1.8,24.4-11.1c2.1-3.5,5.4-6.2,8.1-9.3c10.7-12,16.7-11.3,24.7,2.9
		c4.8,8.5,9.5,17.1,15.7,28.3c2.9-8.4,5-13.9,6.7-19.6c9.8-32.1,19.4-64.2,29.1-96.3c1.9-6.4,3.8-12.8,12.5-12.5
		c8.5,0.3,10.2,6.5,11.8,13.2c9.3,38.2,18.6,76.4,28,114.6c0.7,2.9,1.8,5.7,4.8,8.7c3.6-12.9,7.3-25.8,10.8-38.7
		c3.7-13.9,6.7-28,11.1-41.6c1.4-4.4,6.1-9.3,10.3-10.8c6.4-2.3,10.3,2.8,13,8.7c8.4,18.7,17.5,37.2,25.9,56
		c2.5,5.5,5.7,7.8,11.7,7.5c10.9-0.4,21.8-0.1,33.4-0.1c0,7.5,0,13.9,0,21.6c-17.2,0-34.3,0.5-51.3-0.4c-3.2-0.2-7-5.1-8.9-8.6
		c-5.2-9.6-9.4-19.8-14.2-29.7c-1.3-2.6-2.9-5.1-5.8-10.2c-5.8,21.2-10.8,39.8-15.8,58.4c-3.5,12.9-7.1,25.7-10.3,38.7
		c-1.6,6.5-4.2,11.8-12,11.7c-7.8-0.1-10.2-5.8-11.7-12.1c-9.6-39.5-19.1-79.1-28.8-118.6c-0.8-3.1-1.9-6.2-5-9.3
		c-4.9,15.9-9.9,31.8-14.7,47.8c-5.2,17-9.8,34.2-15.7,51c-1.7,4.7-6.8,10.4-11.1,11.2c-3.4,0.6-9.4-4.7-12-8.9
		C186.5,234.8,180,222,173.1,209.4z"/>
</g>
</svg>
