<?xml version="1.0" encoding="utf-8"?>
<!-- Generator: Adobe Illustrator 19.2.0, SVG Export Plug-In . SVG Version: 6.00 Build 0)  -->
<svg version="1.1" id="Layer_1" xmlns="http://www.w3.org/2000/svg" xmlns:xlink="http://www.w3.org/1999/xlink" x="0px" y="0px"
	 viewBox="0 0 503.7 503.7" style="enable-background:new 0 0 503.7 503.7;" xml:space="preserve">
<style type="text/css">
	.st0{fill:#000222;}
	.st1{fill:#2E79BE;}
	.st2{fill:#2D78BD;}
</style>
<g>
	<path class="st0" d="M136,366.9l-35.9,53C39.7,378.5,0,308.9,0,230.1c0-43.3,11.9-83.7,32.7-118.3l52.6,37.1
		c-13.5,24-21.2,51.7-21.2,81.1C64,286.8,92.5,337,136,366.9z"/>
	<path class="st1" d="M139,91.3c-12.7,8.2-24.1,18.3-34,29.6l-52.6-37C94.6,32.6,158.5,0,230,0c101.1,0,187,65.2,217.8,155.8
		l-62.6,15.4C361.6,108.5,301,64,230,64c-21.1,0-41.2,4-59.8,11.2C159.1,79.4,148.7,84.8,139,91.3z"/>
	<path class="st0" d="M261.5,441.9c3.2,5,6.7,10,10.3,14.7c-31.6,5.8-63.2,5-92.9-1.9l0.1-0.3c-17.2-3.9-33.8-9.7-49.3-17.2
		l36.4-53.8c19.6,8.2,41.2,12.8,63.7,12.8c3.2,0,6.4-0.1,9.5-0.3C245.2,412.6,252.5,427.8,261.5,441.9z"/>
	<path class="st0" d="M460,230.1c0,2.8-0.1,5.5-0.2,8.2c-19.9-3.8-38.5-11.8-56.4-24.4c-2.8-2-5.7-3.7-8.8-5
		c-0.2-1.7-0.5-3.5-0.8-5.2l62.4-15.3C458.8,201.8,460,215.8,460,230.1z"/>
	<path class="st1" d="M179.4,315.7c12.1,0,23.7,0,35.7,0c0-62.4,0-124.1,0-186.1c-12.1,0-23.9,0-35.7,0
		C179.4,191.9,179.4,253.8,179.4,315.7z"/>
	<path class="st1" d="M278.3,187.7v54.4c-3.6,0.4-7.2,0.7-11,0.9c-10.2,0.6-18.3,3.1-24.7,6.8v-62.1L278.3,187.7L278.3,187.7z"/>
	<path class="st1" d="M116.3,315.7c12,0,23.7,0,35.7,0c0-36.8,0-72.9,0-109.3c-12.1,0-23.9,0-35.7,0
		C116.3,243.1,116.3,279.4,116.3,315.7z"/>
	<path class="st1" d="M341.5,141v77.9c-2.4,1.4-4.6,2.8-6.9,3.9c-9.1,4.9-18.7,8.8-29,11.7V141H341.5z"/>
</g>
<path class="st2" d="M373,503.7c-4.9,0-9.6-1-13.7-2.9c-36.1-16.8-64.4-40.9-83.9-71.6c-13.3-20.6-22.4-44.1-27.8-71.7
	c-3.1-15.8-4.7-32.3-4.9-50.6v-5.4c-0.1-3.5-0.1-7.3,0-11c0-13.5,7.9-30.1,30.2-31.9c25.5-1.8,47.2-7.8,66.6-18.2
	c4.7-2.5,9.6-5.6,14.3-8.6l2.3-1.5c11.2-7.2,25.5-6.8,36.4,1c18.2,12.5,36.9,20.5,56.9,24.3c5.3,0.9,11.2,1.6,17.2,2.2
	c2.7,0.3,5.4,0.5,8.2,0.9c19.4,1.7,28.4,17.4,28.4,31.2c-0.6,43.2-8.2,80-23.3,112.6c-18.9,40.8-49.5,73.4-91,97.1
	C384.5,502.2,378.8,503.7,373,503.7z M373.7,248.4c-1.6,0-3.3,0.5-4.9,1.6l-2.3,1.5c-5,3.2-10.3,6.6-15.8,9.5
	c-22.3,12-47.2,18.9-75.9,20.9c-4,0.3-8.4,1.3-8.4,8.6c-0.1,3.7-0.1,7.1,0,10.6v5.5c0.2,16.7,1.7,31.9,4.5,46.3
	c4.9,24.6,12.9,45.4,24.5,63.5c17.1,26.9,41.9,48.1,74,63c2.2,1.1,6.4,0.5,7.7-0.2c37.4-21.3,64.7-50.4,81.5-86.6
	c13.7-29.5,20.6-63.2,21.1-102.9c0-2.5-0.9-7-7.2-7.6c-3-0.3-5.5-0.6-8.1-0.8c-6.5-0.7-12.9-1.3-19.1-2.4
	c-23.5-4.4-45.2-13.7-66.3-28.5C377.1,249,375.4,248.4,373.7,248.4z"/>
<path class="st2" d="M425.4,336.4l-74.3,59.7c-4,3.2-7.2,4.7-10.5,4.7c-5.2,0-8.9-3.9-11.6-7.2c-5.4-6.7-10.8-13.5-16.1-20.4
	c-5.7-7.3-4.8-14.5,2.5-20.4c3.4-2.7,6.7-4.1,9.9-4.1l1.2,0.1c3.4,0.3,6.5,2.3,9.4,5.8c0.8,1,4.5,6.2,7.2,9.8
	c2.8-2.1,6.2-4.7,6.9-5.3l41.4-33.3c5.2-4.1,10.3-8.3,15.5-12.4c0.6-0.5,1-0.8,1.5-1.1c3.3-2.5,6.3-3.6,9.3-3.6
	c5.3,0,8.9,3.7,11.1,6.5C434.7,322.8,433.6,329.8,425.4,336.4z"/>
</svg>
