<?xml version="1.0" encoding="utf-8"?>
<!-- Generator: Adobe Illustrator 20.1.0, SVG Export Plug-In . SVG Version: 6.00 Build 0)  -->
<svg version="1.1" xmlns="http://www.w3.org/2000/svg" xmlns:xlink="http://www.w3.org/1999/xlink" x="0px" y="0px"
	 viewBox="0 0 48 48" style="enable-background:new 0 0 48 48;" xml:space="preserve">
<style type="text/css">
	.st0{fill:none;}
	.st1{fill:url(#Shape_1_);}
</style>
<g id="Layer_2">
	<rect y="0" class="st0" width="48" height="48"/>
</g>
<g id="Layer_1">
	<title>Box-logo</title>
	<desc>Created with Sketch.</desc>
	<g id="_x5B_Desktop_x5D_-AppBridge.io-">
		<g id="_x5B_Desktop_x5D_-Surveyor-V2" transform="translate(-981.000000, -547.000000)">
			<g id="Supported-Sources" transform="translate(196.000000, 435.000000)">
				<g id="Sources-List" transform="translate(77.000000, 112.000000)">
					<g id="ShareFile-Logo" transform="translate(703.000000, 0.000000)">
						<rect id="Rectangle" x="5.9" y="0.9" class="st0" width="46.2" height="46.2"/>
						<g id="aAsset-1" transform="translate(5.000000, 0.000000)">
							<g id="Layer_2_1_">
								<g id="Layer_1-2">
									
										<linearGradient id="Shape_1_" gradientUnits="userSpaceOnUse" x1="-272.9064" y1="412.2684" x2="-272.9064" y2="413.2317" gradientTransform="matrix(37.664 0 0 -47.8715 10302.5801 19782.9102)">
										<stop  offset="0" style="stop-color:#327541"/>
										<stop  offset="1" style="stop-color:#BBC432"/>
									</linearGradient>
									<path id="Shape" class="st1" d="M24,47c-4.7-0.1-9-1.5-12.6-4.6c-3-2.4-4.9-5.9-5.5-9.6c-0.4-2.4,0.3-4.6,2-6.4
										C8,26.3,8,26.1,8.1,26s0-0.3-0.1-0.4c-2.3-3.8-2.7-7.8-1.6-12C7,10.7,8.5,8,10.7,6c2.8-2.6,6.3-4.3,10-4.8
										C26.3,0.3,31.2,1.6,35.6,5c3.7,2.8,5.8,6.7,6.2,11.3c0.2,2-0.6,3.7-2,5.1c-0.4,0.4-0.4,0.6-0.1,1.1
										c2.7,4.7,2.9,9.7,0.6,14.6c-2.2,4.8-6.1,7.6-11,9.1C27.6,46.7,25.8,47,24,47z M15,17.4c0-2,0.8-4,2.3-5.4
										c2.2-2.1,4.9-2.7,7.9-2.2c3.7,0.6,6.9,3.2,7.3,6.8c0.1,1,1.4,1.7,2.5,1.5c1.1-0.2,1.9-1.2,1.7-2.3
										c-0.3-2.4-1.4-4.6-3.2-6.2c-3.9-3.6-8.4-4.8-13.5-3.5c-4.2,1-7.3,3.4-8.8,7.6c-1.4,4.1-0.6,8.3,2.9,11.1
										c2.1,1.7,4.3,3.2,6.5,4.7c0.4,0.3,0.7,0.6,0.8,1.1c0.2,1.4,1.5,2.3,2.9,2.2c1.5-0.2,2.5-1.3,2.5-2.7c0-1.1-0.5-1.8-1.4-2.4
										C22.8,26,20,24,17.3,22C15.8,20.9,15.1,19.3,15,17.4z M22.8,41.5c3.6,0,6-0.6,8.2-1.9c3.7-2.2,5.7-5.4,5.8-9.7
										c0.1-3-1.1-5.5-3.4-7.5c-2-1.8-4.3-3.3-6.5-4.8c-0.5-0.2-0.8-0.7-0.9-1.2c-0.2-1.3-1.5-2.2-2.8-2.1
										c-1.4,0.1-2.5,1.2-2.6,2.6c0,1,0.5,1.8,1.3,2.4c2.6,1.8,5.1,3.6,7.7,5.4c1,0.7,1.9,1.6,2.4,2.8c1.1,2.5,0.4,5.7-1.8,7.7
										c-2.2,2.1-4.9,2.7-7.9,2.3c-3.7-0.6-6.9-3.2-7.4-6.8c-0.1-1-1.4-1.7-2.5-1.6c-1.1,0.2-1.9,1.2-1.8,2.3
										c0.3,2.4,1.4,4.6,3.2,6.2C16.8,40.3,20.1,41.5,22.8,41.5z"/>
								</g>
							</g>
						</g>
					</g>
				</g>
			</g>
		</g>
	</g>
</g>
</svg>
