<?xml version="1.0" encoding="utf-8"?>
<!-- Generator: Adobe Illustrator 19.2.0, SVG Export Plug-In . SVG Version: 6.00 Build 0)  -->
<svg version="1.1" id="Layer_1" xmlns="http://www.w3.org/2000/svg" xmlns:xlink="http://www.w3.org/1999/xlink" x="0px" y="0px"
	 viewBox="0 0 512 512" style="enable-background:new 0 0 512 512;" xml:space="preserve">
<style type="text/css">
	.st0{fill:#000222;}
	.st1{fill:#2D78BD;}
</style>
<g>
	<path class="st0" d="M442.9,9H69.1c-28,0-50.9,22.9-50.9,50.9v316.4c0,27.9,22.9,50.8,50.9,50.8h58.1c-4.1-6.5-7.8-13.3-11.1-20.3
		h-47c-16.8,0-30.6-13.8-30.6-30.5V108.9h309.8c1.8,0,3.1-1.4,3.1-3.1V73.9c0-1.9,1.6-3.5,3.5-3.5h82.5c2.1,0,3.9,1.8,3.9,3.9v31.2
		c0,1.9,1.5,3.4,3.4,3.4h28.7v267.4c0,16.7-13.8,30.5-30.6,30.5h-52.7c-3.6,7-7.5,13.8-11.7,20.3h64.4c28,0,50.9-22.9,50.9-50.8
		V59.9C493.8,31.9,470.9,9,442.9,9z M70.2,88.3c-12.8,0-24.2-11.3-24.4-24.1C45.5,50.8,57.3,38.8,70.6,39
		C83.4,39.1,95,50.6,95.2,63.4C95.5,76.5,83.6,88.4,70.2,88.3z M145.9,88.3c-13.8,0.1-24.6-11.1-24.2-25.3
		c0.2-13.3,11.7-24.3,24.6-24c13.4,0.4,23.7,11.2,23.6,24.8C169.8,77.6,159.6,88.2,145.9,88.3z M221.1,88.4
		c-12.9,0-24.2-11.2-24.5-24.1C196.3,50.9,208,39,221.4,38.9c12.5,0,24.1,11.5,24.4,24.2C246.2,76.5,234.5,88.4,221.1,88.4z"/>
	<path class="st1" d="M256.1,503c-5.2,0-10.2-1.1-14.4-3.1c-39.7-18.4-70.7-44.9-92.1-78.7c-14.6-22.7-24.6-48.5-30.6-78.8
		c-3.4-17.4-5.1-35.6-5.4-55.7v-6c-0.1-3.9-0.1-8,0-12.2c0-14.2,8.3-31.8,31.9-33.7c28.4-2,52.7-8.7,74.3-20.3
		c5.3-2.8,10.7-6.3,15.9-9.6l2.5-1.6c12-7.6,27-7.2,38.5,1c20.3,14.2,41.2,23.2,63.6,27.4c6,1.1,12.5,1.8,19.2,2.4
		c3,0.3,6,0.6,9.1,1c20.5,1.8,29.9,18.3,29.9,32.9c-0.7,47.6-9,88.1-25.6,123.9c-20.7,44.8-54.4,80.7-100,106.7
		C268.2,501.5,262.1,503,256.1,503z M256.8,220.7c-2.1,0-4.2,0.7-6.4,2l-2.5,1.6c-5.3,3.4-11.4,7.3-17.4,10.5
		c-24.5,13.2-51.8,20.7-83.4,23c-3.1,0.3-10.8,0.9-10.8,11.1c-0.1,4.1-0.1,7.9,0,11.8v6c0.3,18.6,1.9,35.5,5,51.5
		c5.4,27.4,14.4,50.6,27.4,70.9c19.1,30.1,46.8,53.7,82.6,70.3c3,1.4,8.3,0.7,10-0.3c41.6-23.7,72.1-56.1,90.8-96.5
		c15.2-32.9,22.9-70.3,23.5-114.5c0-2-0.7-9.3-9.5-10.1c-3.2-0.4-6.1-0.7-9-0.9c-7.2-0.7-14.2-1.5-21-2.7
		c-25.8-4.8-49.6-15-72.7-31.2C261.2,221.4,259,220.7,256.8,220.7z"/>
	<path class="st1" d="M314,319.7l-82.2,66c-4.4,3.6-8,5.2-11.6,5.2c-5.8,0-9.9-4.3-12.9-7.9c-6-7.5-11.9-15-17.8-22.6
		c-6.3-8.1-5.3-16.1,2.7-22.6c3.7-3,7.4-4.5,11-4.5l1.3,0.1c3.7,0.4,7.2,2.6,10.3,6.5c0.9,1.1,5,6.8,8,10.8c3-2.3,6.8-5.2,7.6-5.9
		l45.8-36.8c5.7-4.5,11.4-9.1,17.1-13.7c0.7-0.5,1.1-0.9,1.7-1.2c3.7-2.7,6.9-4,10.3-4c5.9,0,9.8,4.1,12.2,7.2
		C324.3,304.6,323.1,312.3,314,319.7z"/>
</g>
</svg>
