<?xml version="1.0" encoding="utf-8"?>
<!-- Generator: Adobe Illustrator 19.2.0, SVG Export Plug-In . SVG Version: 6.00 Build 0)  -->
<svg version="1.1" id="Layer_1" xmlns="http://www.w3.org/2000/svg" xmlns:xlink="http://www.w3.org/1999/xlink" x="0px" y="0px"
	 viewBox="0 0 512 512" style="enable-background:new 0 0 512 512;" xml:space="preserve">
<style type="text/css">
	.st0{fill:#000222;}
	.st1{fill:#1D79BC;}
</style>
<g id="Password">
	<g>
		<path class="st0" d="M346,144.2c-2.8,4.5-6.9,5-11.3,2.2c-13.1-8.5-27.3-14-42.7-16.8c-36.9-6.8-74.6,8-98.8,34.9h-19.6
			c36.8-51.4,108.3-68.1,164.6-34.3c1.8,1.1,3.5,2.1,5.2,3.3C347.2,136.4,348.7,140.1,346,144.2z"/>
		<path class="st0" d="M375.2,164.5h-15.7c0.4-1.3,1.2-2.6,2.9-4.1C366.3,156.9,370.1,158.1,375.2,164.5z"/>
		<path class="st0" d="M395.6,346.8c-3.3,16.5-7.6,32.5-12.9,48.4c-0.9,2.5-1.9,4.8-2.8,7.2c-1.8,4.8-5.2,7.5-10.1,5.5
			c-5.1-1.9-6.2-6-4.1-11.4c5.9-16.4,10.6-32.9,14.1-49.7L395.6,346.8L395.6,346.8z"/>
		<path class="st0" d="M419.1,164.5h-18.2c-23.1-38.3-57.2-63.5-105-71.6c-5.2-0.9-9.3-3.2-8.8-8.8c0.7-6.2,5.5-7.4,11-6.6
			c25.5,3.5,48.7,12.9,69.3,28.2C389.9,122.5,407.2,142.2,419.1,164.5z"/>
		<path class="st0" d="M187.7,346.8c-9.3,28.9-25.2,57.5-50.8,62.3c-30.5,5.6-54.7-18.1-49.2-47.9c0.9-5.2,3.8-7.7,8.2-7.2
			c5.1,0.5,7.2,3.7,6.7,9.4c-1.3,13.7,8.4,29,22.3,31.7c20.7,4.1,36.5-23.8,45.7-48.3L187.7,346.8L187.7,346.8z"/>
		<path class="st0" d="M322.3,164.5h-92.4c0.5-2.9,3.3-4.7,6.3-6.2c22.9-10.6,46.3-12.2,69.6-2.5
			C311.8,158.4,317.3,161.2,322.3,164.5z"/>
		<path class="st0" d="M471.2,346.8c-10.2,35-29.5,64.9-56.4,89.9c-1.6,1.3-2.2,1.8-2.8,2.3c-4.2,3.7-8.8,7.6-13.8,1.8
			c-5.1-5.9-0.5-9.6,3.6-13.5c25.6-23.3,43.4-50.1,53.3-80.5L471.2,346.8L471.2,346.8z"/>
		<path class="st0" d="M208.1,499.2c-2-0.6-2.7-0.8-3.5-1c-5.4-1.5-11.2-3.1-9.1-10.6c2.1-7.5,7.7-5.7,13.2-4.4
			c54.5,13.5,105.1,5,151.9-26.3c2.1-1.4,4.2-3,6.3-4.4c4.3-3,9.2-2.8,11.2,1.7c1.2,2.7-0.1,8.9-2.3,10.4c-11.9,8-24,16.2-37,22.2
			C296.4,506.4,252.2,509.7,208.1,499.2z"/>
		<path class="st0" d="M257.2,76.6c1.5,1.7,5.6,4.2,6.2,7.4c1.3,6.4-4.1,8-9.3,8.7c-21.8,2.8-41.8,10.5-60.1,22.5
			c-20.8,13.7-36.9,31.8-48.7,53.8c-1.6,2.9-4.4,5.8-7.4,7c-1.7,0.7-6-1.2-6.9-3.1c-1.2-2.5-1.4-6.6-0.1-9.1
			c8.3-16.7,19.3-31.6,33-44.4C189.5,95.6,219.7,81.3,257.2,76.6z"/>
		<path class="st0" d="M357.6,346.8c-1.4,6.7-2.9,13.3-4.5,19.9c-4.3,17.8-9.7,35.2-14.6,52.7c-1.5,5.4-3.7,10.5-10.4,8.4
			c-6.3-1.9-6-6.9-4.5-12.6c5.5-22.8,11-45.5,16.4-68.4L357.6,346.8L357.6,346.8z"/>
		<path class="st0" d="M430.5,346.8c-0.9,4.4-1.8,8.9-2.5,13.3c-1,5.2-4.2,7.8-9.3,6.6c-5.2-1.1-6.5-4.9-5.6-10
			c0.5-3.3,1.1-6.6,1.7-9.8L430.5,346.8L430.5,346.8z"/>
		<path class="st0" d="M144.7,346.8c-2.3,4.8-4.8,9.4-8.1,13.6c-3.6,4.7-13.6,9.6-16,0.7c-0.1-0.2-0.2-0.4-0.2-0.7
			c-0.1-2.3,1.7-5.4,2.8-7.4c1.2-2.1,2.5-4.1,3.7-6.2L144.7,346.8L144.7,346.8z"/>
		<path class="st0" d="M243.8,55.2c-1.5,1.8-4.4,2.4-7.1,2.9c-18.8,3.6-36.6,9.8-53.2,19.4c-4.7,2.7-9.2,3-12-2
			c-2.8-4.9-0.3-9,4.3-11.5c10.4-5.9,21.3-10.8,32.6-14.6c6.5-2.2,12.8-5.2,19.6-6.5c4.1-0.8,9.9-0.9,13.8,1.7
			c2.7,1.7,3.9,6.2,2.8,9.2C244.4,54.3,244.1,54.8,243.8,55.2z"/>
		<path class="st0" d="M345.5,73.4c-2.4,0.5-5.2,0.1-7.5-0.8c-17.7-7.3-36-11.9-55.1-13c-5.4-0.3-9.3-2.5-9-8.2
			c0.3-5.7,4.7-7.6,9.9-7.3c12.3,0.8,24.6,2.4,36.5,5.5c8.2,2.1,28,6.4,30,16.3C351.2,70.5,348.7,72.8,345.5,73.4z"/>
		<g>
			<path class="st0" d="M68.5,139.6c0.4,0.6,0.2,2.6-1.2,5.6c-2.9,6.3-5.5,12.8-7.7,19.3H42.9c2.7-8.9,6-17.6,9.8-26
				c1.1-2.3,3.3-6.1,7.1-6.1c0.7,0,1.3,0.1,2,0.3C64,133.3,66.4,135.8,68.5,139.6z"/>
			<path class="st0" d="M148.5,107.6l-6.6,6.6c-5,5-10.2,10.2-14.7,15.9c-8.6,10.9-15.7,22.3-21.3,34.4H88
				c10.1-25.1,26-47.6,47.5-67.3c2.8-2.6,5.5-4.1,7.1-4c2.7,0.4,6.2,2.6,8.1,5.2C152.6,101,151.9,104.1,148.5,107.6z"/>
		</g>
		<path class="st0" d="M307.1,346.8c-14.4,47.6-44.9,85.3-91.4,113.2c-1.6,1-3.4,1.9-5.2,2c-3.7,0.3-6.9-1.2-8.2-5.1
			c-1.3-4.4,0.5-7.6,4.5-9.8c17.1-9.4,32.3-21.2,45.3-35.6c17.9-19.9,31-41.4,39.3-64.6L307.1,346.8L307.1,346.8z"/>
		<path class="st0" d="M224.3,346.8c-0.4,0.6-1,1.3-1.4,2c-1,1.4-2.3,2.6-3.8,3.5c-3.3,1.8-6.8,1.9-9.5-1.1
			c-1.1-1.4-1.8-2.9-1.8-4.4H224.3z"/>
		<g>
			<path class="st0" d="M467.4,164.5h-16.8c-22.2-63.9-66.9-108-133.2-131.5c-4.8-1.7-8.2-4.4-9-7.3c-0.5-2,0.1-4,1.7-6
				c1.8-2.2,3.9-3.2,6.5-3.2c1.3,0,2.9,0.3,4.7,0.9c28.1,9.1,53.2,22.9,74.6,41C430.2,87.5,454.1,123,467.4,164.5z"/>
		</g>
		<g>
			<path class="st0" d="M273.1,15.5c-0.4,6-5.5,7.3-9.7,7.3c-1,0-2,0-3,0l-5,0c-68.9,2.2-124.5,30.3-165.2,83.6
				c-4.1,5.4-9.5,6.9-13.6,3.7c-3.9-3-3.7-8.4,0.4-13.8c38.8-50.4,89.9-80,152.1-87.9c11.5-1.5,23.5-1.5,35-1.6h0.6
				c3,0,5.3,0.8,6.8,2.3C272.6,10.7,273.2,12.9,273.1,15.5z"/>
		</g>
		<path class="st0" d="M258.8,361.3c-13.1,20.6-30.1,37.4-50.5,50.7c-4.8,3.1-9.2,2.7-11.7-1c-2.6-3.8-1.2-8.4,3.7-11.5
			c20.3-13.3,36.5-30.6,49.1-51.3c3.1-5.1,6.8-6.4,10.9-3.9c4.2,2.5,4.9,6.8,1.8,11.9C261,357.9,259.9,359.6,258.8,361.3z"/>
		<path class="st0" d="M181.6,428.8c-12,10.5-26.7,17-43.9,19.8c-4.1,0.7-7.5-1.1-9.2-4.6c-1.7-3.6-0.3-6.4,3.8-7.1
			c17.1-2.9,31.3-10,42.9-20.7c2.8-2.6,5.9-2.3,8.9,0.8c3.1,3.2,3.3,6.6,0.5,9.2C183.6,427.1,182.6,427.9,181.6,428.8z"/>
		<path class="st0" d="M299.4,451.2c-10.3,12.2-23.9,20.8-40.5,26.1c-3.9,1.3-7.5,0-9.8-3.2c-2.2-3.3-1.2-6.3,2.7-7.6
			c16.5-5.4,29.4-14.5,39.4-26.8c2.4-3,5.5-3.2,9-0.5c3.6,2.7,4.2,6,1.8,9.1C301.2,449.2,300.3,450.2,299.4,451.2z"/>
		<path class="st0" d="M120.1,446.1c-1.6,1.8-3.7,2.7-5.9,2.7c-1.8,0-3.6-0.5-5-1.8c-24-20.3-41.2-47.3-53.4-68.5
			c-5.7-9.9-11.3-20.6-15-31.7h16.6c3.3,8.3,7.5,16.3,11.9,23.9c12.3,21.4,27.9,45.7,49.9,64.5C122.5,438,122.9,442.8,120.1,446.1z"
			/>
		<path class="st0" d="M181,488.1c-0.6,0-1.1-0.1-1.7-0.2c-15.7-4.4-35.5-11.1-49.6-24.7c-2.5-2.4-2.6-6.3-0.2-8.7
			c2.4-2.5,6.3-2.6,8.7-0.2c12.2,11.6,30.1,17.7,44.4,21.7c3.3,0.9,5.2,4.3,4.3,7.6C186.2,486.3,183.7,488.1,181,488.1z"/>
	</g>
	<circle class="st1" cx="93.6" cy="256" r="35.6"/>
	<circle class="st1" cx="201.9" cy="256" r="35.6"/>
	<circle class="st1" cx="310.1" cy="256" r="35.6"/>
	<circle class="st1" cx="418.4" cy="256" r="35.6"/>
	<path class="st0" d="M478.7,331.1H33.4c-11.6,0-21-9.4-21-21V201.9c0-11.6,9.4-21,21-21h445.3c11.6,0,21,9.4,21,21v108.1
		C499.7,321.6,490.2,331.1,478.7,331.1z M33.4,194.1c-4.3,0-7.8,3.5-7.8,7.8v108.1c0,4.3,3.5,7.8,7.8,7.8h445.3
		c4.3,0,7.8-3.5,7.8-7.8V201.9c0-4.3-3.5-7.8-7.8-7.8H33.4z"/>
</g>
</svg>
