<?xml version="1.0" encoding="utf-8"?>
<!-- Generator: Adobe Illustrator 19.2.0, SVG Export Plug-In . SVG Version: 6.00 Build 0)  -->
<svg version="1.1" id="Layer_1" xmlns="http://www.w3.org/2000/svg" xmlns:xlink="http://www.w3.org/1999/xlink" x="0px" y="0px"
	 viewBox="0 0 512 512" style="enable-background:new 0 0 512 512;" xml:space="preserve">
<style type="text/css">
	.st0{fill:#2D78BD;}
	.st1{fill:#000222;}
</style>
<g>
	<path class="st0" d="M507.7,56.5c0-10-3.9-18.8-11.3-26.5l-0.2-0.2c-7.4-6.9-16.4-10.5-26.3-10.5c-23.2-0.1-43.7-0.1-62.7,0
		c-21.2,0-37.9,16.7-38.1,37.8c0,8.4-0.1,16.8-0.1,25.3c0,3.4,0,6.8,0.1,10.2l0.1,17c0.6,16,10.7,29.3,25,34.3
		c1.1,1.2,19.7,2.7,21.2,2.7c1.6,0.6,2.4,2.2,2.5,4.4V229l-0.1,18.2v23.3c0,2.1,0.6,3.6,2.3,5.2c6,6.7,10.2,12.5,16.4,19.4
		c1.5,1.7,3.9,0,3.9,0s7.5-10.3,14.1-18.6c0.9-0.9,1.7-2.6,1.5-3.5c-1.9-9.7,5.7-16.2,12.8-21.8c3.1-2.4,2.9-2.6,0-5.4
		c-2.4-2.4-5-5-7.3-7.6c-3-2.8-6.1-5.8-3.2-8.5c2.8-2.8,8.7-5.5,11.6-8.2c1.7-1.5,1.5-2.5,0-3.8c-2.9-2.8-8.8-5.8-11.6-8.8
		c-2.8-2.8-2.8-5,0-7.9c2.4-2.6,8.3-5.1,10.9-7.7c0.9-0.7,1.5-1.6,2.4-2.6c-3.4-3.3-6.5-6.5-9.5-9.6c-2-1.7-5.8-4.1-5.8-6.7v-20.5
		c0-3.3,0.9-5,2.8-5.7c1.5,0,22.5-3.1,23.8-4.3c14.6-5.1,24.8-18.7,25-35.1c0.2-7.3,0.2-15.3,0.2-24.1
		C507.9,75.2,507.9,65.8,507.7,56.5z M494.5,106.4c0,14.8-12,26.8-26.8,26.8h-56c-14.8,0-26.8-12-26.8-26.8V59.1
		c0-14.8,12-26.8,26.8-26.8h56c14.8,0,26.8,12,26.8,26.8V106.4z"/>
	<path class="st0" d="M418.6,53.5h39.5c3.3,0.1,6.1,1.1,7.5,2.8c4.4,4.2,5.6,8.4,3.9,13.1c-1.9,4.8-5.7,7.6-10.6,7.6
		c-13.7,0.2-27.4,0.2-41,0c-4.3,0-7.5-2.2-9.5-5.9C403.7,63.2,409.3,53.6,418.6,53.5z"/>
	<g>
		<path class="st1" d="M338.7,94.8c-3.1-34.8-19.6-60.4-52.5-74.1c-14.7-6.1-30.1-8.7-45.8-8.9c-15.7,0.2-31.1,2.8-45.8,8.9
			c-33,13.7-49.4,39.3-52.5,74.1c-0.5,5.1-0.1,10.2-0.1,15.3c0.3,36.2,8.4,70.6,22.7,103.8c7.2,16.5,17.7,30.7,30.3,43.4
			c13,13.2,29.2,19.6,45.5,18.9c16.3,0.6,32.4-5.7,45.5-18.9c12.6-12.8,23.1-26.9,30.3-43.4c14.2-33.2,22.4-67.6,22.7-103.8
			C338.8,105,339.2,99.9,338.7,94.8z"/>
		<path class="st1" d="M476.1,448.1c-1-26-2.4-52-10.6-77c-2.3-7.1-4.9-14.7-9.4-20.2c-4.8-5.9-11.6-12-18.6-14
			c-17-4.6-34-9-51-13.3c-25.8-6.6-51.7-12.9-77.5-19.4c-1.5-0.3-3.1-0.2-5.7-0.4c-0.3,1.2-0.6,2.3-1,3.5
			c-4.5,16.7-8.7,33.4-13.8,49.8c-6.1,19.7-13,39.1-19.8,58.6c-0.8,2.2-1.8,4.2-2.9,6.3c-1.2-8.8-2.7-20.5-4.2-31.9
			c-2.8-21.3-5.4-42-5.4-42.7c1.1-2.4,2-4.8,3.1-7c0.1-0.3,0.3-0.6,0.5-1c0.6-1.3,1.2-2.8,1.8-4.1c0.3-0.5,0.6-1.1,0.9-1.6
			c0.9-1.8,2-3.7,2-6c0-1.9-0.8-3.7-1.3-5.2l-0.3-0.6c-0.1-0.3-0.1-0.5-0.3-0.8c-0.1-0.5-0.5-1.1-0.8-1.6l-0.1-0.3
			c-0.1-0.1-0.3-0.3-0.3-0.5c-0.4-0.6-0.8-1.1-1.3-1.4c-0.8-0.6-1.7-0.8-2.3-0.9H256c-0.5-0.3-1.1-0.3-1.3-0.3
			c-2.1-0.1-7.4-0.1-14.3-0.1c-6.8,0-12.2,0-14.4,0.1c-0.5,0-0.9,0-1.4,0.3h-1.3c-1,0.2-2.4,0.5-3.7,2.3c-0.1,0.1-0.1,0.3-0.3,0.6
			l-0.2,0.1c-0.1,0.1-0.1,0.3-0.2,0.4c-1.2,1.2-1.9,2.9-2,4.9c-0.2,0.9-0.5,1.9-0.5,3c0,2.3,1,4.2,2,6c0.1,0.1,0.2,0.3,0.2,0.5
			c0.2,0.4,0.5,0.8,0.6,1.1c0.6,1.3,1.2,2.7,1.8,4.1c0.1,0.2,0.3,0.5,0.3,0.7c1.1,2.4,2.1,4.8,3.1,7.3c0,0.4-0.6,5.1-1.5,12.2
			c-2.1,16.2-5.9,44.8-8.2,62.4c-1.1-2.1-2.1-4.1-2.9-6.3c-6.8-19.4-13.7-38.9-19.8-58.6c-5.1-16.5-9.3-33.2-13.8-49.9
			c-0.3-1.1-0.6-2.3-0.9-3.4c-2.6,0.2-4.2,0.1-5.7,0.4c-23.1,5.8-46.3,11.5-69.4,17.3c0,0,0,0,0,0c-19.7,4.9-39.5,10-59.1,15.4
			c-6.6,1.8-13,7.3-17.7,12.9c-0.3,0.3-0.6,0.7-0.9,1.1c-4.6,5.6-7.1,13.1-9.4,20.2C8,393.2,6.1,416.3,5,439.4
			c-0.1,2.9-0.2,5.8-0.3,8.7c-0.6,16.5-3.1,13.3,13,20c4,1.7,8,3.1,12,4.5c29,9.4,58.6,15.7,88.4,19.8c29.2,4.1,58.7,6.2,88.3,7.3
			c5.7,0.2,50.9,0.5,50.9,0.5c5.7-0.2,11.3-0.3,17-0.5c46.7-1.7,93.3-5.9,138.7-16.6c12.7-3,25.4-6.5,38-10.5
			c4.1-1.3,8.1-2.8,12-4.5C479.1,461.4,476.7,464.6,476.1,448.1z"/>
	</g>
</g>
</svg>
