<?xml version="1.0" encoding="UTF-8" standalone="no"?>
<!DOCTYPE svg PUBLIC "-//W3C//DTD SVG 1.1//EN" "http://www.w3.org/Graphics/SVG/1.1/DTD/svg11.dtd">
<svg width="100%" height="100%" viewBox="0 0 400 400" version="1.1" xmlns="http://www.w3.org/2000/svg" xmlns:xlink="http://www.w3.org/1999/xlink" xml:space="preserve" xmlns:serif="http://www.serif.com/" style="fill-rule:evenodd;clip-rule:evenodd;stroke-linejoin:round;stroke-miterlimit:1.41421;">
    <g transform="matrix(4.17073,0,0,4.17073,68.622,195.164)">
        <clipPath id="_clip1">
            <rect x="-13.6" y="-44.45" width="90.2" height="88.9"/>
        </clipPath>
        <g clip-path="url(#_clip1)">
            <g transform="matrix(1,0,0,1,-180.6,-44.45)">
                <g>
                    <g>
                        <path d="M151.3,55.4L129.3,27.1L115.5,27.1L115.5,80.5L130.2,80.5L130.2,51.2L153,80.5L166,80.5L166,27.1L151.3,27.1L151.3,55.4Z" style="fill:rgb(74,152,150);fill-rule:nonzero;"/>
                        <path d="M258.1,40.1L274.2,40.1L274.2,80.5L289,80.5L289,40.1L305,40.1L305,27.1L258.1,27.1L258.1,40.1Z" style="fill:rgb(74,152,150);fill-rule:nonzero;"/>
                        <path d="M212.2,37.5L185.6,17.9L173,27.1L204.7,50.5L204.8,50.6L204.8,87.3L219.7,87.3L219.7,50.5L251.4,27.1L238.9,17.8L212.2,37.5Z" style="fill:rgb(74,152,150);fill-rule:nonzero;"/>
                    </g>
                    <g>
                        <g transform="matrix(0.5933,-0.805,0.805,0.5933,43.7869,218.933)">
                            <rect x="234.9" y="53.7" width="7.4" height="24.9" style="fill:rgb(194,43,59);"/>
                        </g>
                        <rect x="208.5" y="1.6" width="7.4" height="24.9" style="fill:rgb(194,43,59);"/>
                        <g transform="matrix(0.8049,-0.5935,0.5935,0.8049,-2.9772,123.206)">
                            <rect x="173.4" y="62.4" width="24.9" height="7.4" style="fill:rgb(194,43,59);"/>
                        </g>
                    </g>
                </g>
            </g>
        </g>
    </g>
</svg>
